<svg width="32" height="32" viewBox="0 0 32 32" fill="none" xmlns="http://www.w3.org/2000/svg">
<rect width="32" height="32" rx="16" fill="url(#paint0_linear_2448_1920)"/>
<path d="M15.6888 22.9734C14.8272 22.8779 14.0172 22.1199 13.8152 21.228C13.7897 21.1148 13.8412 21.1238 13.913 21.1238C14.8363 21.125 15.7599 21.1246 16.6831 21.1246C17.1566 21.1246 17.6301 21.1262 18.1032 21.1231C18.1833 21.1227 18.2069 21.1364 18.1863 21.2276C17.9832 22.1234 17.1761 22.8779 16.3135 22.9734C16.2593 23.0043 16.195 22.9628 16.142 22.9996H15.8325C15.7892 22.9644 15.7332 23.0024 15.6888 22.9734V22.9734Z" fill="white"/>
<path d="M15.9877 20.5021C14.365 20.5021 12.7426 20.5029 11.1199 20.5021C10.56 20.5021 10.1406 20.1779 10.0282 19.6435C9.93569 19.2038 10.0737 18.8366 10.3998 18.5445C10.7367 18.2426 11.0176 17.8914 11.2429 17.4933C11.6254 16.8175 11.8017 16.0842 11.8021 15.3023C11.8025 14.6919 11.795 14.0815 11.8066 13.4712C11.8465 11.4403 13.3586 9.63895 15.2867 9.3222C15.3853 9.30615 15.4082 9.26817 15.4052 9.17343C15.3992 8.98824 15.3999 8.80226 15.4052 8.61707C15.4142 8.26823 15.6696 8.00356 15.9945 8.00003C16.3262 7.99651 16.5887 8.26196 16.5981 8.61629C16.6033 8.80657 16.603 8.99724 16.5981 9.18752C16.5958 9.27052 16.6176 9.30263 16.7019 9.32025C18.3772 9.66909 19.4863 10.691 20.0255 12.3776C20.1613 12.802 20.2004 13.2433 20.2027 13.6904C20.2061 14.3591 20.1718 15.029 20.2211 15.6966C20.3035 16.8069 20.751 17.7372 21.5422 18.4834C21.7758 18.7039 21.9645 18.9431 21.9946 19.2802C22.0559 19.9669 21.5858 20.497 20.9116 20.5017C20.2786 20.506 19.6453 20.5025 19.0124 20.5025C18.0042 20.5025 16.996 20.5025 15.9877 20.5025V20.5021Z" fill="white"/>
<defs>
<linearGradient id="paint0_linear_2448_1920" x1="0.488136" y1="14.2545" x2="30.3379" y2="14.8162" gradientUnits="userSpaceOnUse">
<stop stop-color="#0597D9"/>
<stop offset="1" stop-color="#0597D9" stop-opacity="0.6"/>
</linearGradient>
</defs>
</svg>
