<svg width="20" height="20" viewBox="0 0 20 20" fill="none" xmlns="http://www.w3.org/2000/svg">
<path fill-rule="evenodd" clip-rule="evenodd" d="M0 10C0 18.235 1.765 20 10 20C18.235 20 20 18.235 20 10C20 1.765 18.235 0 10 0C1.765 0 0 1.765 0 10ZM13.9226 6.91074C14.248 7.23618 14.248 7.76382 13.9226 8.08926L9.75592 12.2559C9.43049 12.5814 8.90285 12.5814 8.57741 12.2559L6.49408 10.1726C6.16864 9.84715 6.16864 9.31951 6.49408 8.99408C6.81951 8.66864 7.34715 8.66864 7.67259 8.99408L9.16667 10.4882L12.7441 6.91074C13.0695 6.58531 13.5972 6.58531 13.9226 6.91074Z" fill="#1FA2DD"/>
</svg>
