<svg width="37" height="37" viewBox="0 0 37 37" fill="none" xmlns="http://www.w3.org/2000/svg">
<circle cx="18.5" cy="18.5" r="18.5" fill="#47B3E3"/>
<path d="M10.4018 27.9216C10.1508 27.3837 10.2847 26.9543 10.6825 26.5402C12.8942 24.237 15.0909 21.9182 17.2986 19.6108C17.4393 19.463 17.4393 19.3963 17.2989 19.249C15.0909 16.942 12.8933 14.6241 10.6825 12.3201C10.2855 11.9033 10.1508 11.4756 10.4018 10.9377L10.6584 10.6684C11.1712 10.4045 11.5802 10.5451 11.9755 10.9635C14.1651 13.2806 16.3727 15.5795 18.5626 17.8971C18.7235 18.0659 18.7927 18.044 18.9399 17.8886C21.1605 15.5473 23.3849 13.2099 25.613 10.8765C25.9601 10.5121 26.3688 10.4277 26.7432 10.6359C26.8643 10.7019 26.9696 10.7958 27.0512 10.9107C27.1327 11.0256 27.1884 11.1584 27.2141 11.2991C27.2398 11.4398 27.2347 11.5848 27.1993 11.7231C27.164 11.8615 27.0992 11.9897 27.0099 12.098C26.9511 12.1706 26.8852 12.2365 26.8212 12.3036C24.6119 14.6229 22.4015 16.941 20.1903 19.2578C20.0568 19.398 20.0564 19.4626 20.1903 19.6024C22.4257 21.9389 24.6573 24.2794 26.8852 26.6238C27.2375 26.9936 27.3248 27.4154 27.1341 27.8081C27.0731 27.9361 26.9852 28.0481 26.8771 28.1355C26.769 28.2229 26.6435 28.2836 26.51 28.3129C26.3765 28.3423 26.2383 28.3396 26.1059 28.305C25.9735 28.2704 25.8503 28.2049 25.7454 28.1133C25.6767 28.0511 25.6111 27.9853 25.5487 27.9161C23.3447 25.6024 21.142 23.2876 18.9407 20.9716C18.7931 20.8167 18.7235 20.7943 18.563 20.9636C16.3711 23.2781 14.1659 25.5796 11.9759 27.8971C11.579 28.3139 11.172 28.4557 10.6592 28.1919L10.4018 27.9216Z" fill="white"/>
</svg>
