<svg width="20" height="20" viewBox="0 0 20 20" fill="none" xmlns="http://www.w3.org/2000/svg">
<circle cx="10" cy="10" r="10" fill="#6FCDF8"/>
<path d="M9.73323 8.42139C9.72952 8.28005 9.63148 8.17174 9.51063 8.16624C9.3933 8.16073 9.28824 8.25848 9.27089 8.39167C9.26641 8.42623 9.26797 8.46168 9.26797 8.4969C9.26797 9.86954 9.26797 11.2424 9.26797 12.615C9.26797 12.6443 9.26641 12.6738 9.26953 12.7026C9.28064 12.8105 9.33015 12.8882 9.42039 12.9272C9.58061 12.9965 9.7342 12.8631 9.73439 12.6536C9.73517 11.9541 9.73459 11.2545 9.73459 10.5551C9.73459 9.99018 9.73459 9.42527 9.73459 8.86037C9.73459 8.71397 9.73712 8.56757 9.73323 8.42139V8.42139Z" fill="white"/>
<path d="M8.53308 12.0199C8.4672 10.8254 8.40093 9.63086 8.33485 8.43633C8.32589 8.27364 8.22531 8.1607 8.09238 8.16621C7.95926 8.17171 7.86414 8.29213 7.86882 8.45571C7.87252 8.58427 7.88188 8.71284 7.88909 8.84141C7.92866 9.55689 7.96822 10.2726 8.0076 10.9881C8.03898 11.5576 8.06938 12.1271 8.10213 12.6967C8.10856 12.8085 8.16138 12.8886 8.25552 12.9283C8.42237 12.9983 8.57362 12.8543 8.56875 12.7037C8.55452 12.4292 8.54439 12.2247 8.53308 12.0204V12.0199Z" fill="white"/>
<path d="M11.0558 8.23423C10.9829 8.16246 10.898 8.14507 10.8097 8.18888C10.7153 8.23555 10.673 8.32361 10.667 8.43941C10.6411 8.93893 10.6136 9.43845 10.5859 9.93775C10.5366 10.8316 10.4867 11.7251 10.437 12.619H10.4352C10.4352 12.6394 10.4348 12.6599 10.4352 12.6804C10.4385 12.8263 10.5333 12.9393 10.6576 12.9454C10.7849 12.9518 10.8919 12.8448 10.9005 12.6949C10.933 12.1254 10.9634 11.5559 10.9948 10.9863C11.0239 10.4606 11.0531 9.93489 11.0821 9.40917C11.0995 9.09656 11.1163 8.78417 11.1338 8.47155C11.1391 8.37887 11.1192 8.29654 11.0558 8.23423V8.23423Z" fill="white"/>
<path d="M12.9711 6.63137C12.8756 6.27737 12.6163 6.0603 12.2797 6.05788C11.9737 6.05567 11.6679 6.05854 11.3619 6.05656C11.2876 6.05612 11.189 6.09332 11.1465 6.04092C11.1098 5.99579 11.1363 5.8855 11.1346 5.80404C11.1252 5.34921 10.8327 5.00886 10.4306 5.00468C9.81093 4.9983 9.19111 4.99852 8.57148 5.0049C8.2871 5.00798 8.07309 5.159 7.94094 5.44872C7.88363 5.57421 7.86804 5.70916 7.86726 5.84785C7.86687 5.91456 7.88714 6.00438 7.85712 6.04225C7.82146 6.08716 7.74037 6.05611 7.67917 6.05634C7.35776 6.05788 7.03615 6.05435 6.71474 6.05788C6.37501 6.06162 6.11616 6.28859 6.02358 6.65602C5.946 6.96423 6.06373 7.34663 6.31965 7.49964C6.46486 7.58638 6.51106 7.69161 6.5015 7.85782C6.49917 7.89811 6.50891 7.93928 6.51184 7.98C6.57089 8.7939 6.62937 9.60801 6.68862 10.4219C6.75509 11.3351 6.8235 12.248 6.8888 13.1612C6.90517 13.3889 6.95507 13.5971 7.1032 13.7651C7.21703 13.8941 7.35795 13.9575 7.50959 14H11.4923C11.496 13.9963 11.4995 13.9901 11.5038 13.9894C11.8168 13.9417 12.0782 13.6403 12.1047 13.2486C12.1429 12.6824 12.1865 12.1166 12.2284 11.5506C12.2779 10.8796 12.3282 10.2088 12.3779 9.53778C12.4239 8.91652 12.4703 8.29504 12.5136 7.67356C12.5177 7.61478 12.5364 7.58946 12.583 7.56722C12.9021 7.41532 13.0714 7.0032 12.9713 6.63115L12.9711 6.63137ZM8.3333 5.98192C8.33837 5.92403 8.3333 5.86502 8.33466 5.80647C8.33778 5.64113 8.43251 5.53216 8.57889 5.53062C8.77575 5.52864 8.97242 5.52996 9.16928 5.52996C9.5784 5.52996 9.98752 5.52974 10.3966 5.52996C10.5783 5.52996 10.6687 5.63167 10.6674 5.83707C10.6668 5.90883 10.6966 6.00438 10.6543 6.04577C10.6185 6.08099 10.5362 6.05678 10.4744 6.05678C10.1481 6.05722 9.82185 6.05678 9.49556 6.05678C9.13049 6.05678 8.76542 6.05523 8.40035 6.05832C8.34499 6.05876 8.32842 6.04247 8.33369 5.98126L8.3333 5.98192ZM12.0423 7.73101C11.9745 8.61734 11.9121 9.50432 11.8474 10.3911C11.7803 11.31 11.7127 12.2287 11.6453 13.1474C11.6269 13.3961 11.5525 13.473 11.3287 13.473C10.1051 13.473 8.88159 13.473 7.65792 13.473C7.45482 13.473 7.37608 13.3948 7.35893 13.1648C7.30903 12.494 7.26206 11.8229 7.21274 11.1521C7.15836 10.4113 7.10262 9.67053 7.04785 8.92973C7.01724 8.51563 6.9884 8.10131 6.95682 7.6872C6.9537 7.6456 6.96423 7.63547 6.99697 7.63855C7.01491 7.64031 7.03323 7.63877 7.05135 7.63877H9.50901C10.3282 7.63877 11.1475 7.63965 11.9667 7.63701C12.0347 7.63679 12.0487 7.65022 12.0425 7.73101H12.0423ZM12.3282 7.10931C12.3027 7.11283 12.2764 7.11151 12.2507 7.11151C10.4183 7.11151 8.5861 7.11151 6.75372 7.11151C6.7202 7.11151 6.6857 7.11283 6.65315 7.10491C6.53854 7.07761 6.46018 6.95851 6.46837 6.8295C6.47675 6.70005 6.56836 6.59636 6.6855 6.5858C6.71377 6.58315 6.74242 6.58447 6.77107 6.58447C7.68073 6.58447 8.59039 6.58447 9.50005 6.58447C10.4097 6.58447 11.3297 6.58447 12.2446 6.58447C12.2731 6.58447 12.3019 6.58293 12.33 6.5869C12.4481 6.60407 12.5366 6.72053 12.5343 6.85328C12.5319 6.98251 12.4434 7.09324 12.3282 7.10909V7.10931Z" fill="white"/>
</svg>
