<svg width="20" height="20" viewBox="0 0 20 20" fill="none" xmlns="http://www.w3.org/2000/svg">
<circle cx="10" cy="10" r="10" fill="#6FCDF8"/>
<path d="M14.6581 8.88455L12.8035 6.93164L12.0088 7.76843L13.3029 9.12955H8.47607V10.3131H13.3029L12.0103 11.6743L12.805 12.511L14.6596 10.5581C14.8701 10.336 14.9882 10.0349 14.988 9.72102C14.9877 9.40717 14.869 9.1063 14.6581 8.88455Z" fill="white"/>
<path d="M9.7422 13.0756C9.7422 13.1279 9.72246 13.1781 9.68733 13.2151C9.6522 13.2521 9.60455 13.2728 9.55486 13.2728H7.31134C7.26166 13.2728 7.21401 13.2521 7.17888 13.2151C7.14375 13.1781 7.12401 13.1279 7.12401 13.0756V6.38085C7.12401 6.32853 7.14375 6.27835 7.17888 6.24136C7.21401 6.20437 7.26166 6.18358 7.31134 6.18358H9.55486C9.60455 6.18358 9.6522 6.20437 9.68733 6.24136C9.72246 6.27835 9.7422 6.32853 9.7422 6.38085V8.2801H10.8662V6.38085C10.8657 6.01478 10.7274 5.66386 10.4816 5.40502C10.2358 5.14617 9.9025 5.00052 9.55486 5H7.31134C6.96371 5.00052 6.63045 5.14617 6.38463 5.40502C6.13881 5.66386 6.0005 6.01478 6 6.38085V13.0756C6 13.4418 6.13816 13.793 6.38408 14.052C6.63001 14.3109 6.96355 14.4564 7.31134 14.4564H9.55486C9.90265 14.4564 10.2362 14.3109 10.4821 14.052C10.728 13.793 10.8662 13.4418 10.8662 13.0756V11.1751H9.7422V13.0756Z" fill="white"/>
</svg>
