<svg width="148" height="54" viewBox="0 0 148 54" fill="none" xmlns="http://www.w3.org/2000/svg">
<path d="M52.7555 0.444505V52.759H0.444475V0.444505H52.7555ZM53.2 0H0V53.2035H53.2V0Z" fill="#0D90D8"/>
<path d="M24.791 10.0448C24.9134 10.3363 25.0345 10.629 25.153 10.9232C25.4045 11.0988 25.6547 11.2772 25.9035 11.4568C26.1857 11.5912 26.4678 11.7257 26.7499 11.8601C27.0986 11.9666 27.4472 12.0757 27.7946 12.1848C28.0234 12.459 28.2523 12.7331 28.4786 13.0086C28.7168 13.2508 28.955 13.493 29.1892 13.7366C29.3755 14.0347 29.5578 14.3328 29.7388 14.6309C30.0435 14.8971 30.3456 15.1633 30.6437 15.4321C30.9219 15.6796 31.1973 15.9298 31.4741 16.1814C31.7935 16.3291 32.1129 16.4755 32.4309 16.6259C32.6532 16.8694 32.8754 17.1156 33.0963 17.3618C33.3545 17.5615 33.6127 17.7624 33.8695 17.962C34.0811 18.2122 34.294 18.4651 34.5016 18.7193C34.5149 18.7965 34.5282 18.875 34.5415 18.9522C34.5096 19.0493 34.4777 19.1452 34.4457 19.241C34.491 19.2596 34.5349 19.2769 34.5815 19.2956C34.8729 19.4952 35.1643 19.6961 35.4544 19.8971C35.7046 20.2125 35.9548 20.5306 36.2023 20.8487C36.4286 21.192 36.6535 21.5367 36.8757 21.8814C37.2057 22.1143 37.5344 22.3512 37.8605 22.5894C38.1333 22.7624 38.4061 22.9354 38.6762 23.1098C38.8466 23.3759 39.0116 23.6421 39.1793 23.9083C39.2019 24.2796 39.2258 24.6536 39.2471 25.0249C39.4773 25.2338 39.7049 25.4441 39.9311 25.657C40.184 25.9285 40.4382 26.2013 40.687 26.4728C41.0144 26.6645 41.3391 26.8575 41.6625 27.0518C41.8235 27.3552 41.9845 27.656 42.1415 27.9594C42.4197 28.1404 42.6978 28.3227 42.9733 28.5037C43.0797 28.7965 43.1849 29.0893 43.2887 29.3821C43.4923 29.591 43.6959 29.8013 43.8981 30.0116C43.9926 30.3017 44.0858 30.5918 44.1789 30.882C44.2561 31.1707 44.3333 31.4582 44.4092 31.7483C44.6208 31.948 44.8323 32.1476 45.0426 32.3499C45.3101 32.5003 45.5749 32.652 45.8411 32.8024C45.9701 33.1537 46.0979 33.5037 46.2243 33.8537C46.4745 34.1252 46.7247 34.3981 46.9722 34.6722C47.0787 35.1713 47.1838 35.669 47.2863 36.1681C47.1452 35.874 47.0068 35.5812 46.8644 35.2884C46.6315 35.1327 46.396 34.977 46.1618 34.8226C45.8943 34.5059 45.6228 34.1918 45.35 33.8804C45.1837 33.6501 45.016 33.4225 44.8483 33.195C44.5476 32.9887 44.2495 32.7851 43.9474 32.5828C43.7824 32.282 43.616 31.9812 43.447 31.6818C43.2301 31.4236 43.0119 31.1681 42.7923 30.9112C42.6659 30.5612 42.5381 30.2125 42.409 29.8638C42.1615 29.6443 41.9113 29.4247 41.6611 29.2064C41.3763 29.0241 41.0916 28.8431 40.8068 28.6634C40.5992 28.3999 40.3889 28.1364 40.1813 27.8729C39.81 27.7811 39.4401 27.6879 39.0688 27.5961C38.9237 27.2687 38.7787 26.94 38.631 26.6126C38.4047 26.377 38.1812 26.1428 37.9536 25.9099C37.8006 25.6597 37.6462 25.4108 37.4918 25.162C37.239 24.9969 36.9862 24.8319 36.7306 24.6709C36.5151 24.4819 36.2981 24.2942 36.0786 24.1066C35.9362 23.7473 35.7911 23.3893 35.6447 23.0313C35.36 22.821 35.0725 22.612 34.7851 22.4044C34.3952 22.3073 34.0039 22.2101 33.6127 22.1156C33.3758 21.8228 33.1362 21.534 32.8967 21.2439C32.8901 21.027 32.8834 20.8101 32.8767 20.5945C32.6825 20.2977 32.4895 20.0022 32.2939 19.7094C31.9306 19.5737 31.5659 19.4419 31.2 19.3089C30.9724 19.0001 30.7435 18.6953 30.512 18.3906C30.4068 18.0326 30.2977 17.6746 30.1899 17.3179C29.9344 17.0597 29.6763 16.8015 29.4181 16.5447C29.0734 16.3597 28.7274 16.1774 28.3801 15.995C28.1738 15.6623 27.9689 15.3296 27.76 14.9982C27.3514 14.8585 26.9442 14.7214 26.5343 14.587C26.3573 14.3674 26.1777 14.1491 25.9993 13.9296C25.8663 13.6275 25.7305 13.3254 25.5975 13.0232C25.2834 12.9274 24.9693 12.8343 24.6539 12.7424C24.3758 12.5641 24.0977 12.3884 23.8182 12.2141C23.6945 11.8667 23.572 11.5194 23.4443 11.1734C23.1861 10.9232 22.9279 10.673 22.6698 10.4241C22.4968 10.0661 22.3198 9.70943 22.1441 9.35143C21.7635 9.30884 21.3843 9.26625 21.005 9.22633C20.8826 8.90692 20.7588 8.58752 20.635 8.26811C20.3423 8.00194 20.0495 7.73843 19.7554 7.47492C19.4533 7.24602 19.1526 7.01844 18.8505 6.7922C18.5431 6.56861 18.2343 6.3437 17.9269 6.12278C17.8245 6.02696 17.7233 5.93114 17.6208 5.83398C17.907 5.97772 18.1917 6.12278 18.4752 6.26784C18.8358 6.30777 19.1965 6.34769 19.5558 6.38895C19.7967 6.58592 20.0335 6.78421 20.2731 6.98251C20.5645 7.07434 20.8573 7.16351 21.15 7.25667C21.4401 7.47626 21.7316 7.69718 22.019 7.9181C22.2133 8.20024 22.4049 8.48371 22.5966 8.76851C22.8787 8.94685 23.1568 9.12917 23.4363 9.31017C23.8888 9.55238 24.3386 9.79726 24.787 10.0435L24.791 10.0448Z" fill="#0E9CD2"/>
<path d="M17.9895 6.13742C18.3009 6.3264 18.6123 6.51671 18.9224 6.70835C19.2258 6.9346 19.5279 7.16351 19.8286 7.39241C20.1227 7.65459 20.4181 7.92076 20.7096 8.18427C20.82 8.51565 20.9292 8.84836 21.0369 9.17975C21.4175 9.21834 21.7981 9.25827 22.1787 9.29819C22.369 9.64421 22.5567 9.99157 22.7457 10.3402C23.0038 10.5891 23.2633 10.8407 23.5202 11.0895C23.6466 11.4355 23.7717 11.7816 23.8941 12.1289C24.1736 12.3059 24.453 12.4816 24.7298 12.6599C25.0452 12.7518 25.3593 12.8462 25.6747 12.9394C25.8104 13.2415 25.9435 13.5436 26.0766 13.8457C26.2562 14.064 26.4345 14.2836 26.6129 14.5045C27.0227 14.6402 27.4299 14.7786 27.8385 14.9157C28.0474 15.2484 28.2537 15.5798 28.46 15.9152C28.8073 16.0962 29.1533 16.2798 29.4993 16.4635C29.7575 16.7217 30.0143 16.9785 30.2711 17.2367C30.3789 17.5961 30.4881 17.9527 30.5932 18.3094C30.8247 18.6155 31.0523 18.9216 31.2812 19.2277C31.6471 19.3608 32.0104 19.4952 32.3751 19.6296C32.5694 19.9237 32.765 20.2178 32.958 20.5146C32.9646 20.7315 32.9713 20.9471 32.9779 21.1641C33.2188 21.4542 33.4583 21.7443 33.6952 22.0358C34.0851 22.1316 34.4777 22.2274 34.8689 22.3259C35.155 22.5335 35.4425 22.7438 35.7286 22.9527C35.875 23.3107 36.0187 23.6687 36.1624 24.0281C36.3807 24.2157 36.5989 24.4034 36.8145 24.5923C37.0687 24.7547 37.3229 24.9184 37.5744 25.0821C37.7287 25.331 37.8844 25.5798 38.0375 25.8314C38.2637 26.0643 38.4886 26.2985 38.7148 26.5327C38.8612 26.8614 39.0089 27.1888 39.1527 27.5189C39.5239 27.6094 39.8939 27.7025 40.2639 27.7957C40.4741 28.0592 40.683 28.3201 40.8906 28.5862C41.1754 28.7672 41.4615 28.9496 41.745 29.1319C41.9965 29.3501 42.2454 29.5711 42.4929 29.7893C42.6233 30.138 42.7511 30.488 42.8788 30.838C43.0971 31.0949 43.3153 31.3504 43.5335 31.6086C43.7012 31.9094 43.8689 32.2088 44.0339 32.5096C44.3347 32.7132 44.6354 32.9168 44.9335 33.1231C45.1025 33.352 45.2702 33.5796 45.4365 33.8098C45.7093 34.1212 45.9808 34.4353 46.2496 34.7507C46.4825 34.9064 46.7181 35.0622 46.9523 35.2192C47.0667 35.5346 47.1772 35.8514 47.289 36.1681C47.1479 35.874 47.0095 35.5812 46.8671 35.2884C46.6342 35.1327 46.3987 34.977 46.1645 34.8226C45.897 34.5059 45.6255 34.1918 45.3527 33.8804C45.1864 33.6501 45.0187 33.4225 44.851 33.195C44.5503 32.9887 44.2522 32.7851 43.9501 32.5828C43.7851 32.282 43.6187 31.9812 43.4497 31.6818C43.2328 31.4236 43.0145 31.1681 42.795 30.9112C42.6685 30.5612 42.5408 30.2125 42.4117 29.8638C42.1642 29.6443 41.914 29.4247 41.6638 29.2064C41.379 29.0241 41.0943 28.8431 40.8095 28.6634C40.6019 28.3999 40.3916 28.1364 40.184 27.8729C39.8127 27.7811 39.4428 27.6879 39.0715 27.5961C38.9264 27.2687 38.7814 26.94 38.6337 26.6126C38.4074 26.377 38.1839 26.1428 37.9563 25.9099C37.8033 25.6597 37.6489 25.4108 37.4945 25.162C37.2417 24.9969 36.9888 24.8319 36.7333 24.6709C36.5177 24.4819 36.3008 24.2942 36.0813 24.1066C35.9389 23.7473 35.7938 23.3893 35.6474 23.0313C35.3626 22.821 35.0752 22.612 34.7878 22.4044C34.3978 22.3073 34.0066 22.2101 33.6153 22.1156C33.3785 21.8228 33.1389 21.534 32.8994 21.2439C32.8927 21.027 32.8861 20.8101 32.8794 20.5945C32.6851 20.2977 32.4922 20.0022 32.2966 19.7094C31.9333 19.5737 31.5686 19.4419 31.2027 19.3089C30.9751 19.0001 30.7462 18.6953 30.5147 18.3906C30.4095 18.0326 30.3004 17.6746 30.1926 17.3179C29.9371 17.0597 29.6789 16.8015 29.4208 16.5447C29.0761 16.3597 28.7301 16.1774 28.3828 15.995C28.1765 15.6623 27.9716 15.3296 27.7626 14.9982C27.3541 14.8585 26.9469 14.7214 26.537 14.587C26.36 14.3674 26.1804 14.1491 26.002 13.9296C25.869 13.6275 25.7332 13.3254 25.6001 13.0232C25.2861 12.9274 24.972 12.8343 24.6566 12.7424C24.3785 12.5641 24.1004 12.3884 23.8209 12.2141C23.6972 11.8667 23.5747 11.5194 23.447 11.1734C23.1888 10.9232 22.9306 10.673 22.6725 10.4241C22.4995 10.0661 22.3225 9.70943 22.1468 9.35143C21.7662 9.30884 21.3869 9.26625 21.0077 9.22633C20.8852 8.90692 20.7615 8.58752 20.6377 8.26811C20.345 8.00194 20.0522 7.73843 19.7581 7.47492C19.456 7.24602 19.1552 7.01844 18.8532 6.7922C18.5458 6.56861 18.237 6.3437 17.9296 6.12278C17.8271 6.02696 17.726 5.93114 17.6235 5.83398C17.7446 5.93513 17.8671 6.03494 17.9895 6.13742V6.13742Z" fill="white"/>
<path d="M45.4099 45.6003C45.3806 45.5191 45.3486 45.438 45.318 45.3581C45.0679 44.8165 44.8163 44.2761 44.5608 43.7385C44.3905 43.4111 44.2175 43.0837 44.0445 42.759C43.7571 42.578 43.4696 42.3983 43.1822 42.2213C43.0611 41.7076 42.9413 41.1939 42.8162 40.6815C42.6153 40.2516 42.413 39.8218 42.2067 39.3946C41.9153 39.1031 41.6238 38.8143 41.3297 38.5255C41.2792 38.0451 41.2286 37.562 41.174 37.0802C40.9797 36.7834 40.7841 36.488 40.5858 36.1939C40.4222 35.8731 40.2558 35.5524 40.0881 35.2317C39.7488 35.0999 39.4081 34.9721 39.0701 34.8431C38.9783 34.4731 38.8864 34.1044 38.7906 33.7358C38.5112 33.5268 38.2304 33.3179 37.9483 33.1103C37.8431 32.743 37.7353 32.3743 37.6275 32.0083C37.4186 31.7009 37.207 31.3922 36.9941 31.0861C36.6255 30.945 36.2542 30.8052 35.8842 30.6668C35.6726 30.3647 35.4584 30.0613 35.2441 29.7605C35.0978 29.3347 34.9487 28.9101 34.7983 28.4842C34.3312 28.3565 33.8655 28.23 33.3984 28.1063C33.248 27.6738 33.0976 27.2426 32.9432 26.81C32.6185 26.5279 32.2912 26.2484 31.9651 25.9689C31.8507 25.6083 31.7349 25.2463 31.6191 24.8869C31.5326 24.4904 31.4475 24.0951 31.3596 23.6985C30.9431 23.5468 30.5279 23.3977 30.1101 23.2487C29.9903 22.8747 29.8679 22.4994 29.7441 22.1254C29.4739 21.8779 29.2025 21.6343 28.9283 21.3908C28.6954 21.1246 28.4612 20.8598 28.2244 20.5963C27.9795 20.2609 27.7346 19.9269 27.4871 19.5955C27.1584 19.4038 26.8271 19.2149 26.4957 19.0272C26.2176 18.7318 25.9381 18.4416 25.6586 18.1515C25.318 17.9426 24.9786 17.7363 24.6379 17.53C24.3598 17.3317 24.0817 17.1374 23.8022 16.9404C23.4802 16.7501 23.1568 16.5598 22.8334 16.3722C22.5926 16.1273 22.349 15.8837 22.1042 15.6415C21.8912 15.2489 21.6757 14.8576 21.4601 14.4677C21.0342 14.2308 20.6084 13.9966 20.1812 13.7637C19.8046 13.6532 19.4253 13.5441 19.0461 13.4336C18.7373 13.2313 18.4286 13.0291 18.1198 12.8294C17.8643 12.5393 17.6062 12.2478 17.3467 11.959C16.9701 11.8486 16.5921 11.7381 16.2142 11.629C15.944 11.3548 15.6712 11.0807 15.3984 10.8092C15.0697 10.6202 14.7397 10.4339 14.407 10.2489C13.9825 10.2023 13.5593 10.1557 13.1321 10.1118C12.9192 9.83235 12.7036 9.55553 12.4854 9.27738C12.1953 9.1057 11.9052 8.93535 11.6137 8.765C11.2784 8.70911 10.9417 8.65321 10.6037 8.59998C10.094 8.2686 9.58299 7.94254 9.06665 7.61914C9.51645 8.09825 9.96225 8.58135 10.4041 9.06711C10.7966 9.23213 11.1892 9.39716 11.5791 9.56352C11.7575 9.94281 11.9331 10.3208 12.1061 10.7001C12.5692 10.9543 13.0323 11.2111 13.4928 11.4706C13.731 11.653 13.9692 11.8353 14.2074 12.0189C14.4483 12.1973 14.6865 12.3756 14.926 12.5526C15.2228 12.7429 15.5222 12.9359 15.8176 13.1302C16.1011 13.3405 16.3832 13.5521 16.664 13.765C16.8317 14.0365 16.9993 14.3093 17.1644 14.5822C17.5104 14.8057 17.8564 15.028 18.1997 15.2542C18.3873 15.571 18.5723 15.8864 18.7573 16.2058C19.0021 16.4879 19.2457 16.7714 19.4865 17.0549C19.8711 17.1267 20.2544 17.1999 20.6377 17.2718C20.8759 17.5673 21.1101 17.86 21.3456 18.1555C21.677 18.2939 22.007 18.435 22.3384 18.576C22.4927 18.9354 22.6445 19.292 22.7948 19.6514C23.0956 19.8204 23.395 19.9921 23.6944 20.1651C23.7982 20.4086 23.9007 20.6548 24.0032 20.8997C24.3359 20.9929 24.6659 21.0874 24.9986 21.1832C25.2009 21.4533 25.4005 21.7248 25.6001 21.9963C26.0499 22.16 26.4983 22.3264 26.9468 22.4967C27.0919 22.9612 27.2343 23.4257 27.374 23.8915C27.6801 24.332 27.9848 24.7765 28.2842 25.221C28.589 25.4246 28.8937 25.6282 29.1958 25.8345C29.3063 26.2138 29.4127 26.5918 29.5205 26.9711C29.7933 27.1827 30.0675 27.3969 30.3403 27.6125C30.633 27.8162 30.9245 28.0211 31.2159 28.2274C31.4235 28.6027 31.6298 28.9793 31.8334 29.3573C32.0849 29.6993 32.3351 30.0427 32.5826 30.3874C33.0191 30.5457 33.4569 30.7054 33.8934 30.8691C34.0371 31.3017 34.1809 31.7342 34.3206 32.1667C34.5056 32.5527 34.6892 32.9399 34.8702 33.3285C35.2535 33.5588 35.6367 33.7877 36.0173 34.0219C36.2076 34.4212 36.3966 34.8204 36.5829 35.221C36.9063 35.4938 37.231 35.7707 37.553 36.0461C37.7952 36.2418 38.0348 36.4374 38.2756 36.633C38.5098 36.8753 38.7427 37.1215 38.9743 37.3663C39.1792 37.6179 39.3842 37.8694 39.5891 38.1236C39.5718 38.4457 39.5545 38.7651 39.5372 39.0871C39.7248 39.3147 39.9111 39.5436 40.0974 39.7712C40.3396 40.0187 40.5805 40.2676 40.8201 40.5191C41.0822 40.768 41.3417 41.0182 41.6025 41.2684C41.7223 41.6078 41.8421 41.9471 41.9592 42.2878C42.1734 42.5367 42.3864 42.7869 42.5993 43.0371C42.9426 43.1782 43.2846 43.3219 43.6253 43.467C43.9128 43.6879 44.2002 43.9128 44.4863 44.1377C44.799 44.6208 45.1091 45.1092 45.4152 45.599L45.4099 45.6003Z" fill="#0E9CD2"/>
<path d="M10.472 8.97848C10.8646 9.14217 11.2572 9.30853 11.6471 9.47622C11.8254 9.85551 12.0011 10.2335 12.1727 10.6141C12.6372 10.8683 13.1003 11.1238 13.5607 11.3847C13.8002 11.567 14.0385 11.7493 14.2767 11.9343C14.5175 12.1126 14.7571 12.2896 14.9966 12.468C15.2934 12.6596 15.5915 12.8513 15.8895 13.0456C16.1717 13.2558 16.4538 13.4674 16.7346 13.6817C16.9023 13.9532 17.0699 14.226 17.2363 14.5002C17.5823 14.7224 17.927 14.9447 18.2716 15.1709C18.4593 15.489 18.6456 15.8057 18.8305 16.1238C19.0754 16.406 19.3189 16.6894 19.5625 16.9742C19.9457 17.0448 20.3277 17.118 20.7109 17.1912C20.9478 17.4853 21.1847 17.7807 21.4202 18.0749C21.7502 18.2159 22.0829 18.3557 22.413 18.4967C22.5673 18.8547 22.719 19.2127 22.8707 19.5707C23.1715 19.7424 23.4709 19.9114 23.7703 20.0844C23.8741 20.3306 23.9766 20.5755 24.0791 20.8217C24.4131 20.9149 24.7431 21.008 25.0745 21.1052C25.2781 21.3754 25.479 21.6469 25.6773 21.9184C26.1285 22.082 26.5769 22.2511 27.0241 22.4188C27.1705 22.8846 27.3128 23.3477 27.4539 23.8148C27.76 24.2567 28.0634 24.7012 28.3641 25.1457C28.6689 25.348 28.9736 25.5529 29.2757 25.7592C29.3848 26.1398 29.4913 26.5178 29.5991 26.8971C29.8719 27.11 30.1474 27.3243 30.4188 27.5385C30.7116 27.7422 31.0044 27.9471 31.2945 28.1534C31.5021 28.53 31.7084 28.9067 31.9133 29.2846C32.1648 29.628 32.415 29.9713 32.6639 30.316C33.0857 30.4837 33.5062 30.6527 33.9267 30.8244C34.0864 31.249 34.2461 31.6722 34.4018 32.0967C34.5881 32.484 34.7705 32.8699 34.9514 33.2585C35.3214 33.4901 35.6913 33.7243 36.06 33.9599C36.2636 34.3565 36.4659 34.7531 36.6641 35.151C36.9902 35.4252 37.3135 35.7007 37.6343 35.9788C37.8538 36.1784 38.0721 36.3781 38.2903 36.579C38.5458 36.8172 38.8013 37.0581 39.0568 37.299C39.2485 37.5545 39.4401 37.8114 39.6304 38.0696C39.6277 38.385 39.6238 38.7031 39.6184 39.0211C39.8074 39.2487 39.995 39.4776 40.18 39.7039C40.4222 39.9514 40.6631 40.2016 40.904 40.4531C41.1488 40.7113 41.3923 40.9722 41.6359 41.2357C41.7729 41.5631 41.9087 41.8931 42.0431 42.2232C42.2241 42.468 42.4037 42.7129 42.5834 42.9605C42.96 43.1042 43.3353 43.2519 43.7105 43.3996C43.9807 43.6339 44.2495 43.8681 44.517 44.1037C44.8164 44.6014 45.1145 45.1018 45.4086 45.6049C45.1025 45.1138 44.7924 44.6267 44.4797 44.1436C44.1936 43.9187 43.9062 43.6938 43.6187 43.4728C43.278 43.3278 42.936 43.184 42.5927 43.043C42.3798 42.7928 42.1668 42.5426 41.9526 42.2937C41.8355 41.9543 41.7157 41.615 41.596 41.2743C41.3351 41.0241 41.0756 40.7739 40.8135 40.525C40.5739 40.2748 40.3331 40.0259 40.0909 39.7771C39.9045 39.5495 39.7169 39.3206 39.5306 39.093C39.5479 38.7709 39.5652 38.4515 39.5825 38.1295C39.3789 37.8753 39.174 37.6237 38.9677 37.3722C38.7348 37.1273 38.5019 36.8811 38.269 36.6389C38.0282 36.4419 37.7886 36.2463 37.5464 36.052C37.2244 35.7752 36.901 35.4997 36.5763 35.2269C36.3887 34.8263 36.201 34.427 36.0107 34.0278C35.6301 33.7949 35.2469 33.5646 34.8636 33.3344C34.6826 32.9445 34.499 32.5585 34.314 32.1726C34.1743 31.7387 34.0319 31.3075 33.8868 30.875C33.4517 30.7113 33.0138 30.5516 32.576 30.3932C32.3285 30.0485 32.0783 29.7052 31.8268 29.3631C31.6232 28.9852 31.4169 28.6085 31.2093 28.2332C30.9179 28.027 30.6264 27.822 30.3337 27.6184C30.0609 27.4028 29.7867 27.1885 29.5139 26.9769C29.4061 26.5976 29.2983 26.2197 29.1892 25.8404C28.8871 25.6341 28.5837 25.4305 28.2776 25.2268C27.9769 24.7823 27.6735 24.3378 27.3674 23.8973C27.2277 23.4315 27.0853 22.9671 26.9402 22.5026C26.4918 22.3322 26.0433 22.1659 25.5935 22.0022C25.3939 21.7294 25.1929 21.4592 24.992 21.189C24.6593 21.0932 24.3293 21.0001 23.9966 20.9056C23.8941 20.6607 23.7916 20.4145 23.6878 20.1709C23.3884 19.9993 23.089 19.8263 22.7882 19.6572C22.6379 19.2992 22.4848 18.9412 22.3318 18.5819C22.0018 18.4408 21.6704 18.2998 21.339 18.1614C21.1035 17.8659 20.8693 17.5718 20.6311 17.2777C20.2478 17.2045 19.8645 17.1326 19.48 17.0607C19.2391 16.7773 18.9956 16.4938 18.7507 16.2117C18.5657 15.8923 18.3807 15.5768 18.1931 15.2601C17.8498 15.0339 17.5038 14.8116 17.1578 14.588C16.9914 14.3152 16.8251 14.0424 16.6574 13.7709C16.3766 13.5579 16.0945 13.345 15.811 13.1361C15.5156 12.9418 15.2175 12.7501 14.9194 12.5585C14.6799 12.3801 14.4417 12.2031 14.2008 12.0248C13.9626 11.8411 13.7244 11.6588 13.4862 11.4765C13.0257 11.217 12.5626 10.9601 12.0995 10.7059C11.9252 10.3266 11.7509 9.94867 11.5725 9.56938C11.1826 9.40169 10.7914 9.23666 10.3975 9.07297C9.95566 8.58721 9.50986 8.10411 9.06006 7.625C9.53381 8.0735 10.0049 8.52732 10.4707 8.98247L10.472 8.97848Z" fill="white"/>
<path d="M38.8783 46.8317C38.3487 46.2474 37.8151 45.6672 37.2788 45.0909C37.0845 44.7462 36.8875 44.4015 36.6919 44.0582C36.4151 43.78 36.1409 43.5032 35.8628 43.2264C35.5035 43.0201 35.1429 42.8138 34.7822 42.6102C34.5773 42.2349 34.3697 41.8596 34.1594 41.4869C33.9598 41.1556 33.7602 40.8268 33.5566 40.4968C33.1773 40.3823 32.7981 40.2692 32.4161 40.1574C32.2325 39.8087 32.0475 39.4614 31.8612 39.114C31.5724 38.8559 31.2823 38.6003 30.9922 38.3448C30.907 37.9203 30.8192 37.4997 30.7314 37.0752C30.3947 36.9008 30.0607 36.7278 29.7227 36.5561C29.3993 36.3871 29.0746 36.2208 28.7499 36.0544C28.4544 35.8335 28.1577 35.6152 27.8623 35.3956C27.4417 35.1295 27.0199 34.8646 26.598 34.6038C26.433 34.2258 26.2653 33.8479 26.099 33.4712C26.0098 33.0161 25.9193 32.5623 25.8275 32.1071C25.3471 31.8609 24.8654 31.6174 24.385 31.3778C24.2958 31.0078 24.2053 30.6405 24.1161 30.2705C23.7143 30.0869 23.311 29.9059 22.9091 29.7249C22.4793 29.5838 22.0468 29.4467 21.6156 29.311C21.2976 29.0701 20.9795 28.8305 20.6601 28.5923C20.3102 28.3661 19.9575 28.1452 19.6049 27.9202C19.6248 27.3999 19.6421 26.8795 19.6554 26.3578C19.332 26.0078 19.0073 25.6578 18.6813 25.3104C18.2368 25.1135 17.7923 24.9205 17.3465 24.7289C16.9526 24.4467 16.5547 24.1686 16.1568 23.8904C15.8388 23.7454 15.5221 23.599 15.2027 23.4566C15.1468 23.0347 15.0896 22.6141 15.031 22.1936C14.8726 21.8436 14.713 21.4962 14.5506 21.1462C14.3457 20.8494 14.1407 20.5513 13.9358 20.2545C13.5605 20.1401 13.1852 20.0296 12.8086 19.9192C12.44 19.6676 12.0714 19.4161 11.7014 19.1672C11.398 18.8398 11.0933 18.5138 10.7859 18.1891C10.4425 18.04 10.0979 17.8883 9.75319 17.7406C9.54559 17.4291 9.33533 17.1204 9.12507 16.8103C8.90683 16.5108 8.68459 16.2114 8.46368 15.9133C8.05913 15.8348 7.65457 15.7563 7.24869 15.6817C6.90668 15.1055 6.56068 14.5332 6.21069 13.9609C6.67646 14.3003 7.13957 14.6423 7.60268 14.987C8.08441 15.1294 8.56482 15.2771 9.04522 15.4262C9.51365 15.8521 9.97942 16.2793 10.4425 16.7118C10.9269 16.9141 11.4113 17.1204 11.8931 17.3293C12.0142 17.6434 12.1339 17.9588 12.251 18.2742C12.6929 18.3448 13.132 18.4166 13.5725 18.4938C14.0489 18.6269 14.5253 18.7627 15.0004 18.9024C15.3437 19.2977 15.6844 19.6982 16.0251 20.0988C16.2846 20.5114 16.5414 20.9226 16.7956 21.3365C17.2015 21.4696 17.606 21.6054 18.0093 21.7424C18.137 22.1217 18.2634 22.5037 18.3872 22.883C18.7984 23.048 19.2083 23.2144 19.6182 23.3834C19.9096 23.6935 20.201 24.0035 20.4911 24.3163C20.8957 24.4654 21.3016 24.6171 21.7075 24.7688C21.8206 25.2426 21.931 25.719 22.0402 26.1955C22.2052 26.3831 22.3702 26.5721 22.5352 26.7624C22.7415 27.0911 22.9437 27.4212 23.15 27.7539C23.504 27.7193 23.8606 27.6847 24.2146 27.6527C24.7642 27.9655 25.3112 28.2822 25.8581 28.603C26.1961 28.933 26.5315 29.2657 26.8668 29.5998C27.1423 29.9471 27.4178 30.2958 27.6919 30.6458C28.0007 30.8947 28.3081 31.1449 28.6155 31.3938C28.7805 31.8502 28.9442 32.3067 29.1025 32.7619C29.4392 33.0174 29.7746 33.2743 30.1099 33.5338C30.5704 33.7228 31.0308 33.9144 31.4899 34.11C31.7454 34.5 31.9996 34.8899 32.2524 35.2812C32.4254 35.7417 32.5945 36.2035 32.7621 36.6653C33.023 36.9075 33.2851 37.151 33.5473 37.3959C33.7921 37.6474 34.037 37.9003 34.2805 38.1532C34.4482 38.4792 34.6159 38.8079 34.7809 39.1367C35.0031 39.4148 35.228 39.693 35.4489 39.9724C35.5727 40.2918 35.6938 40.6126 35.8136 40.9333C35.948 41.294 36.0811 41.6573 36.2115 42.0206C36.5987 42.2362 36.9847 42.4518 37.3706 42.6714C37.4584 43.1479 37.5449 43.6243 37.6287 44.1007C38.0546 45.0097 38.4698 45.92 38.877 46.8343L38.8783 46.8317Z" fill="#0E9CD2"/>
<path d="M7.32849 15.5846C7.73437 15.6618 8.13759 15.739 8.54215 15.8188C8.76438 16.1156 8.98529 16.415 9.20487 16.7145C9.41513 17.0259 9.62406 17.3346 9.83299 17.6461C10.1777 17.7951 10.5223 17.9442 10.867 18.0959C11.1744 18.4193 11.4805 18.7467 11.7826 19.0741C12.1525 19.3229 12.5238 19.5731 12.8911 19.826C13.265 19.9365 13.6416 20.0483 14.0156 20.1614C14.2219 20.4595 14.4281 20.7576 14.6317 21.0557C14.7928 21.4044 14.9538 21.7531 15.1108 22.1031C15.1707 22.525 15.2292 22.9455 15.2851 23.3661C15.6032 23.5098 15.9212 23.6535 16.238 23.7999C16.6359 24.0781 17.0338 24.3589 17.429 24.641C17.8735 24.8327 18.3193 25.0256 18.7638 25.2226C19.0911 25.5713 19.4145 25.92 19.7379 26.2727C19.7232 26.793 19.7059 27.3147 19.6873 27.8364C20.0413 28.0573 20.3926 28.2809 20.7426 28.5058C21.0647 28.744 21.3827 28.9836 21.6994 29.2231C22.1306 29.3602 22.5618 29.4986 22.9929 29.6397C23.3948 29.8207 23.7967 30.0017 24.1999 30.1854C24.2904 30.554 24.3809 30.9226 24.4701 31.2926C24.9518 31.5322 25.4336 31.7757 25.914 32.0206C26.0058 32.4758 26.0963 32.9309 26.1854 33.3861C26.3531 33.7627 26.5195 34.1406 26.6845 34.5186C27.1077 34.7808 27.5295 35.0456 27.9487 35.3105C28.2455 35.5314 28.5409 35.7497 28.8363 35.9706C29.1624 36.1369 29.4871 36.3033 29.8104 36.4723C30.1471 36.6453 30.4838 36.8183 30.8165 36.994C30.907 37.4159 30.9935 37.8391 31.08 38.2636C31.3701 38.5192 31.6602 38.776 31.9503 39.0315C32.1366 39.3802 32.3216 39.7289 32.5052 40.0763C32.8858 40.188 33.2651 40.3012 33.6457 40.4169C33.8467 40.7443 34.0489 41.0757 34.2485 41.4058C34.4588 41.7811 34.6651 42.1537 34.8713 42.5303C35.2333 42.734 35.5926 42.9389 35.9533 43.1479C36.2301 43.4233 36.5082 43.7002 36.7837 43.9783C36.9806 44.3217 37.1749 44.6677 37.3705 45.0124C37.8762 45.6153 38.3779 46.2221 38.873 46.8317C38.3433 46.2474 37.8097 45.6672 37.2734 45.0909C37.0791 44.7462 36.8821 44.4015 36.6865 44.0582C36.4097 43.78 36.1356 43.5032 35.8574 43.2264C35.4981 43.0201 35.1375 42.8138 34.7769 42.6102C34.5719 42.2349 34.3643 41.8596 34.1541 41.487C33.9544 41.1556 33.7548 40.8268 33.5512 40.4968C33.172 40.3823 32.7927 40.2692 32.4108 40.1574C32.2271 39.8087 32.0421 39.4614 31.8558 39.114C31.5671 38.8559 31.2769 38.6003 30.9868 38.3448C30.9017 37.9203 30.8138 37.4997 30.726 37.0752C30.3893 36.9008 30.0553 36.7278 29.7173 36.5561C29.3939 36.3871 29.0692 36.2208 28.7445 36.0544C28.4491 35.8335 28.1523 35.6152 27.8569 35.3956C27.4364 35.1295 27.0145 34.8646 26.5926 34.6038C26.4276 34.2258 26.26 33.8479 26.0936 33.4712C26.0045 33.0161 25.914 32.5623 25.8221 32.1071C25.3417 31.8609 24.86 31.6174 24.3796 31.3778C24.2904 31.0078 24.1999 30.6405 24.1108 30.2705C23.7089 30.0869 23.3057 29.9059 22.9038 29.7249C22.4739 29.5838 22.0414 29.4467 21.6103 29.311C21.2922 29.0701 20.9742 28.8305 20.6548 28.5923C20.3048 28.3661 19.9521 28.1452 19.5995 27.9202C19.6194 27.3999 19.6367 26.8795 19.65 26.3578C19.3267 26.0078 19.002 25.6578 18.6759 25.3104C18.2315 25.1135 17.787 24.9205 17.3412 24.7289C16.9473 24.4467 16.5494 24.1686 16.1515 23.8904C15.8334 23.7454 15.5167 23.599 15.1973 23.4566C15.1414 23.0347 15.0842 22.6141 15.0256 22.1936C14.8673 21.8436 14.7076 21.4962 14.5452 21.1462C14.3403 20.8494 14.1354 20.5513 13.9304 20.2545C13.5551 20.1401 13.1799 20.0296 12.8033 19.9192C12.4346 19.6676 12.066 19.4161 11.6961 19.1672C11.3926 18.8398 11.0879 18.5138 10.7805 18.1891C10.4372 18.04 10.0925 17.8883 9.74782 17.7406C9.54022 17.4291 9.32996 17.1204 9.1197 16.8103C8.90145 16.5108 8.67921 16.2114 8.45831 15.9133C8.05375 15.8348 7.6492 15.7563 7.24332 15.6817C6.90131 15.1055 6.55531 14.5332 6.20532 13.9609C6.58193 14.4999 6.95587 15.0416 7.32316 15.5832L7.32849 15.5846Z" fill="white"/>
<path d="M30.6424 47.8488C30.2125 47.4083 29.78 46.9718 29.3449 46.5406C29.1918 46.2717 29.0374 46.0056 28.8817 45.7381C28.6595 45.5291 28.4359 45.3215 28.2124 45.1152C27.9183 44.9675 27.6228 44.8225 27.3287 44.6801C27.1677 44.3859 27.0067 44.0945 26.843 43.8017C26.686 43.5448 26.529 43.288 26.3706 43.0325C26.0579 42.9619 25.7465 42.8887 25.4337 42.8208C25.2927 42.5467 25.1503 42.2739 25.0066 42.001C24.775 41.8067 24.5421 41.6124 24.3119 41.4208C24.2307 41.2105 24.1469 41.0002 24.0644 40.7886C23.8688 40.5943 23.6758 40.4 23.4802 40.2057C23.3245 40.2031 23.1674 40.2031 23.0104 40.2004C22.7749 40.0327 22.5393 39.8677 22.3024 39.7027C21.9671 39.5044 21.6291 39.3061 21.2911 39.1118C21.1713 38.8083 21.0515 38.5062 20.9291 38.2041C20.5858 37.6731 20.2384 37.1448 19.8858 36.6191C19.5544 36.4966 19.223 36.3769 18.893 36.2597C18.8358 35.959 18.7799 35.6609 18.7213 35.3628C18.3993 35.2297 18.0759 35.0979 17.7539 34.9662C17.6288 34.6494 17.5024 34.3327 17.3746 34.0159C17.1231 33.8309 16.8729 33.6446 16.6201 33.4623C16.3419 33.2893 16.0625 33.1176 15.7843 32.9486C15.6792 32.6651 15.5741 32.3843 15.4663 32.1022C15.2201 31.8253 14.9713 31.5485 14.7211 31.273C14.3684 31.128 14.0144 30.9843 13.6591 30.8418C13.365 30.4918 13.0696 30.1458 12.7702 29.7998C12.5892 29.6135 12.4082 29.4285 12.2272 29.2435C12.1314 28.972 12.0369 28.7005 11.9411 28.4303C11.6896 28.2986 11.4367 28.1668 11.1839 28.0364C11.0348 27.7955 10.8858 27.5546 10.7341 27.3151C10.5664 27.2073 10.3961 27.1022 10.2284 26.9957C9.94362 26.7961 9.65883 26.5978 9.37139 26.4021C9.14516 26.1373 8.9176 25.8738 8.68871 25.6103C8.2948 25.392 7.90089 25.1751 7.50565 24.9621C7.35528 24.708 7.2049 24.4551 7.0532 24.2022C6.8935 23.96 6.73248 23.7151 6.57146 23.4716C6.24941 23.417 5.92737 23.3611 5.60266 23.3079C5.36046 22.8354 5.11826 22.3657 4.87207 21.8945C5.22872 22.1674 5.58004 22.4428 5.93269 22.7197C6.31462 22.8288 6.69389 22.9379 7.07582 23.0497C7.49767 23.3145 7.91819 23.5807 8.33605 23.8509C8.77388 24.1863 9.20904 24.5243 9.64287 24.8663C9.79058 25.046 9.93697 25.227 10.0833 25.4093C10.4387 25.4559 10.7926 25.5051 11.1466 25.5544C11.4567 25.7287 11.7681 25.9057 12.0755 26.0827C12.331 26.4021 12.5879 26.7242 12.8407 27.0436C13.0283 27.3776 13.2146 27.7104 13.3996 28.0444C13.7217 28.1415 14.0477 28.24 14.3697 28.3398C14.4536 28.6499 14.5348 28.96 14.6146 29.2714C14.942 29.3926 15.2707 29.5163 15.5967 29.6401C15.8203 29.885 16.0412 30.1312 16.2608 30.3774C16.5868 30.4865 16.9115 30.5956 17.2362 30.7061C17.3786 31.0189 17.5183 31.3329 17.6567 31.6444C17.7845 31.7947 17.9096 31.9438 18.036 32.0942C18.189 32.3564 18.3421 32.6212 18.4925 32.886C18.7134 32.9153 18.9329 32.9473 19.1525 32.9792C19.5158 33.2866 19.8765 33.5954 20.2371 33.9081C20.3688 34.1796 20.5006 34.4525 20.631 34.7266C20.8426 34.9981 21.0555 35.2696 21.2644 35.5437C21.8034 35.8911 22.3437 36.2424 22.8787 36.5978C22.9931 36.9638 23.1062 37.3298 23.2167 37.6957C23.4842 37.8914 23.749 38.0857 24.0151 38.2813C24.2334 38.5555 24.4516 38.8323 24.6685 39.1091C24.7058 39.2342 24.7391 39.3566 24.7737 39.4831C25.0531 39.7067 25.3299 39.9342 25.6081 40.1605C25.817 40.3428 26.0246 40.5278 26.2322 40.7114C26.4291 40.9031 26.6221 41.0961 26.8151 41.2877C27.0227 41.4754 27.2276 41.663 27.4339 41.8533C27.5323 42.1355 27.6308 42.4163 27.728 42.6997C27.8996 42.8821 28.07 43.0671 28.239 43.252C28.3388 43.5382 28.4399 43.8256 28.5384 44.1118C28.7753 44.3314 29.0122 44.551 29.249 44.7732C29.3874 45.086 29.5272 45.3987 29.6629 45.7128C29.9943 46.4221 30.3203 47.1341 30.6397 47.8488H30.6424Z" fill="#0E9CD2"/>
<path d="M5.67306 23.2214C5.99643 23.276 6.32114 23.3305 6.64318 23.3851C6.80421 23.63 6.96523 23.8722 7.12359 24.1171C7.2753 24.3699 7.42701 24.6228 7.57738 24.8756C7.97129 25.0912 8.36786 25.3082 8.76043 25.5278C8.98932 25.7899 9.21689 26.0534 9.44445 26.317C9.73056 26.5152 10.0153 26.7122 10.3001 26.9118C10.5304 27.0702 10.7579 27.2286 10.9881 27.387C11.0773 27.5746 11.1665 27.7636 11.2569 27.9526C11.5111 28.083 11.7626 28.2147 12.0155 28.3452C12.11 28.6153 12.2058 28.8882 12.3003 29.1597C12.4813 29.3446 12.6636 29.531 12.8446 29.7173C13.1426 30.062 13.4381 30.4107 13.7348 30.758C14.0888 30.9017 14.4441 31.0455 14.7981 31.1905C15.0483 31.466 15.2958 31.7428 15.542 32.021C15.6485 32.3031 15.7563 32.5853 15.8614 32.8687C16.1409 33.0391 16.419 33.2094 16.6971 33.3824C16.9486 33.5674 17.2015 33.7511 17.4517 33.9374C17.5794 34.2542 17.7058 34.5709 17.8309 34.889C18.153 35.0194 18.4764 35.1511 18.7984 35.2829C18.857 35.5837 18.9142 35.8818 18.9701 36.1812C19.3014 36.2997 19.6341 36.4194 19.9641 36.5392C20.3155 37.0662 20.6628 37.5959 21.0075 38.1256C21.1299 38.4277 21.251 38.7298 21.3681 39.0332C21.7075 39.2289 22.0441 39.4258 22.3808 39.6255C22.6177 39.7905 22.8532 39.9569 23.0888 40.1232L23.5599 40.1299C23.7542 40.3228 23.9498 40.5185 24.1441 40.7141C24.2266 40.9244 24.3091 41.136 24.3916 41.3463C24.6232 41.5392 24.856 41.7322 25.0863 41.9265C25.23 42.1993 25.3724 42.4735 25.5148 42.7477C25.8275 42.8169 26.1402 42.8874 26.453 42.9593C26.6113 43.2161 26.7684 43.473 26.9241 43.7298C27.0864 44.0226 27.2501 44.3141 27.4111 44.6082C27.7052 44.7519 27.9993 44.897 28.2934 45.0447C28.5183 45.2523 28.7419 45.4599 28.9641 45.6675C29.1185 45.9337 29.2729 46.2012 29.4272 46.47C29.8344 46.9265 30.2403 47.3857 30.6409 47.8488C30.211 47.4083 29.7785 46.9718 29.3434 46.5406C29.1903 46.2717 29.036 46.0056 28.8803 45.7381C28.658 45.5291 28.4345 45.3215 28.2109 45.1152C27.9168 44.9675 27.6214 44.8225 27.3273 44.6801C27.1663 44.3859 27.0052 44.0945 26.8415 43.8017C26.6845 43.5448 26.5275 43.288 26.3691 43.0325C26.0564 42.9619 25.745 42.8887 25.4323 42.8208C25.2912 42.5467 25.1488 42.2739 25.0051 42.001C24.7735 41.8067 24.5407 41.6124 24.3104 41.4208C24.2293 41.2105 24.1454 41.0002 24.0629 40.7886C23.8673 40.5943 23.6743 40.4 23.4787 40.2057C23.323 40.2031 23.166 40.2031 23.0089 40.2004C22.7734 40.0327 22.5378 39.8677 22.301 39.7027C21.9656 39.5044 21.6276 39.3061 21.2896 39.1118C21.1698 38.8083 21.0501 38.5062 20.9276 38.2041C20.5843 37.6731 20.237 37.1448 19.8843 36.6191C19.5529 36.4966 19.2216 36.3769 18.8916 36.2597C18.8343 35.959 18.7784 35.6609 18.7199 35.3628C18.3978 35.2297 18.0745 35.0979 17.7524 34.9662C17.6273 34.6494 17.5009 34.3327 17.3731 34.0159C17.1216 33.8309 16.8714 33.6446 16.6186 33.4623C16.3405 33.2893 16.061 33.1176 15.7829 32.9486C15.6778 32.6651 15.5726 32.3843 15.4648 32.1022C15.2186 31.8253 14.9698 31.5485 14.7196 31.273C14.3669 31.128 14.013 30.9843 13.6577 30.8418C13.3636 30.4918 13.0681 30.1458 12.7687 29.7998C12.5877 29.6135 12.4067 29.4285 12.2257 29.2435C12.1299 28.972 12.0354 28.7005 11.9396 28.4303C11.6881 28.2986 11.4353 28.1668 11.1824 28.0364C11.0334 27.7955 10.8843 27.5546 10.7326 27.3151C10.5649 27.2073 10.3946 27.1022 10.2269 26.9957C9.94215 26.7961 9.65737 26.5978 9.36992 26.4021C9.14369 26.1373 8.91613 25.8738 8.68724 25.6103C8.29333 25.392 7.89943 25.1751 7.50419 24.9621C7.35381 24.708 7.20344 24.4551 7.05173 24.2022C6.89204 23.96 6.73101 23.7151 6.56999 23.4716C6.24795 23.417 5.9259 23.3611 5.60119 23.3079C5.359 22.8354 5.1168 22.3657 4.87061 21.8945C5.14075 22.3377 5.4069 22.7809 5.67039 23.2254L5.67306 23.2214Z" fill="white"/>
<path d="M38.6828 7.41997C38.7281 7.52777 38.772 7.63424 38.8159 7.74337C38.9104 7.80192 39.0049 7.86181 39.0994 7.92037C39.2058 7.96163 39.3136 8.00288 39.4201 8.04547C39.5531 8.07342 39.6849 8.10403 39.8166 8.13331C39.9018 8.23046 39.9883 8.32628 40.0735 8.42343C40.1626 8.50727 40.2531 8.59245 40.341 8.67629C40.4102 8.78409 40.478 8.89056 40.5459 8.99836C40.6603 9.08886 40.7735 9.18069 40.8866 9.27252C40.9917 9.35769 41.0955 9.44419 41.1993 9.52937C41.3204 9.57462 41.4415 9.61987 41.5613 9.66512C41.6451 9.75029 41.7276 9.8368 41.8115 9.9233C41.9086 9.98984 42.0057 10.0577 42.1029 10.1256C42.1827 10.2134 42.2613 10.3026 42.3398 10.3931C42.3451 10.4224 42.3491 10.4517 42.3531 10.4809C42.3411 10.5195 42.3278 10.5568 42.3145 10.5941C42.3318 10.5994 42.3491 10.6047 42.3651 10.61C42.4755 10.6766 42.5846 10.7431 42.6951 10.8096C42.7896 10.9214 42.8827 11.0346 42.9745 11.1477C43.0584 11.2715 43.1422 11.3952 43.2261 11.519C43.3498 11.5962 43.4749 11.676 43.5973 11.7546C43.7011 11.8118 43.8036 11.8677 43.9061 11.9249C43.97 12.0207 44.0312 12.1165 44.0937 12.2124C44.1004 12.3534 44.107 12.4958 44.1137 12.6369C44.2002 12.7088 44.2854 12.7806 44.3705 12.8538C44.465 12.9483 44.5608 13.0441 44.654 13.14C44.7777 13.2012 44.9002 13.2637 45.0226 13.3276C45.0825 13.4381 45.1424 13.5472 45.1996 13.6577C45.3047 13.7176 45.4098 13.7774 45.5136 13.8373C45.5522 13.9451 45.5908 14.0529 45.6294 14.1621C45.7066 14.2353 45.7825 14.3085 45.8583 14.3817C45.8929 14.4895 45.9275 14.5973 45.9608 14.7051C45.9887 14.8129 46.0167 14.9207 46.0446 15.0271C46.1245 15.0963 46.2043 15.1655 46.2828 15.2347C46.384 15.2826 46.4838 15.3319 46.5849 15.3798C46.6328 15.5089 46.6794 15.6393 46.726 15.7684C46.8205 15.8629 46.9136 15.9587 47.0068 16.0545C47.044 16.2422 47.0826 16.4285 47.1186 16.6148C47.0667 16.507 47.0148 16.4006 46.9629 16.2941C46.875 16.2435 46.7859 16.1916 46.698 16.141C46.5982 16.0293 46.4958 15.9188 46.3933 15.8097C46.3307 15.7271 46.2682 15.646 46.2056 15.5661C46.0925 15.4982 45.9794 15.4304 45.865 15.3638C45.8038 15.2547 45.7412 15.1456 45.6787 15.0364C45.5975 14.9459 45.5163 14.8554 45.4325 14.7649C45.3859 14.6358 45.3393 14.5068 45.2914 14.3777C45.1983 14.3031 45.1038 14.2273 45.0106 14.1527C44.9028 14.0929 44.795 14.0343 44.6872 13.9744C44.6101 13.8813 44.5315 13.7881 44.453 13.6936C44.312 13.671 44.1709 13.6484 44.0312 13.6271C43.9779 13.5073 43.9247 13.3862 43.8688 13.2664C43.7837 13.1839 43.6998 13.1027 43.6146 13.0215C43.5574 12.931 43.5002 12.8419 43.443 12.7527C43.3472 12.6981 43.2513 12.6449 43.1555 12.5917C43.0744 12.5264 42.9932 12.4626 42.9107 12.3987C42.8588 12.2656 42.8055 12.1352 42.751 12.0034C42.6432 11.9329 42.5354 11.8637 42.4263 11.7945C42.2786 11.7705 42.1295 11.7479 41.9805 11.7253C41.8913 11.6215 41.8021 11.5203 41.7117 11.4178C41.7103 11.3353 41.709 11.2528 41.7077 11.1703C41.6358 11.0638 41.5626 10.9574 41.4907 10.8522C41.3523 10.8136 41.2139 10.775 41.0755 10.7378C40.9904 10.6287 40.9052 10.5195 40.8187 10.4104C40.7801 10.2773 40.7415 10.1442 40.7016 10.0111C40.6058 9.92197 40.5086 9.83147 40.4115 9.74231C40.2811 9.68375 40.1507 9.62652 40.0189 9.5693C39.9417 9.44952 39.8659 9.32974 39.7887 9.20996C39.6343 9.17004 39.4786 9.13278 39.3243 9.09551C39.2577 9.01832 39.1898 8.94113 39.1233 8.86261C39.0741 8.75215 39.0248 8.64169 38.9743 8.53123C38.8545 8.50594 38.7361 8.48066 38.6163 8.4567C38.5112 8.39815 38.406 8.34092 38.3009 8.28369C38.2557 8.15593 38.2104 8.02684 38.1638 7.89908C38.0667 7.81257 37.9695 7.72606 37.8724 7.63956C37.8085 7.50914 37.7433 7.37871 37.6781 7.24829C37.533 7.24563 37.3893 7.24297 37.2443 7.2403C37.199 7.12319 37.1538 7.00474 37.1085 6.88763C36.9981 6.7958 36.889 6.7053 36.7772 6.6148C36.6641 6.53761 36.5496 6.46176 36.4365 6.3859C36.3207 6.31137 36.2036 6.23684 36.0878 6.16231C36.0492 6.12904 36.0107 6.09577 35.9734 6.0625C36.0812 6.10775 36.189 6.153 36.2968 6.19825C36.4338 6.20091 36.5709 6.20357 36.708 6.20623C36.7985 6.27277 36.8876 6.34065 36.9781 6.40852C37.0886 6.43381 37.2004 6.45776 37.3108 6.48172C37.4199 6.55491 37.5304 6.62944 37.6382 6.70397C37.7114 6.80512 37.7819 6.90626 37.8538 7.00874C37.9602 7.06729 38.0653 7.12718 38.1705 7.18574C38.3421 7.26293 38.5112 7.34012 38.6815 7.41864L38.6828 7.41997Z" fill="#0E9CD2"/>
<path d="M36.1118 6.16693C36.2302 6.22815 36.3474 6.2907 36.4645 6.35192C36.5789 6.42778 36.6934 6.50497 36.8065 6.58215C36.9169 6.67132 37.0287 6.76315 37.1378 6.85365C37.1778 6.97609 37.2177 7.09986 37.2576 7.22229C37.4027 7.22363 37.5477 7.22496 37.6928 7.22762C37.7633 7.35272 37.8325 7.47915 37.903 7.60558C38.0002 7.69209 38.0973 7.77859 38.1945 7.8651C38.241 7.99286 38.2863 8.12062 38.3315 8.24971C38.4367 8.30694 38.5431 8.3655 38.6469 8.42272C38.7667 8.44668 38.8851 8.47196 39.0062 8.49592C39.0555 8.60638 39.1047 8.71684 39.1539 8.82863C39.2218 8.90582 39.2884 8.98301 39.3549 9.06153C39.5106 9.0988 39.665 9.13739 39.8193 9.17598C39.8965 9.29576 39.9737 9.41554 40.0509 9.53532C40.1826 9.59254 40.313 9.64977 40.4448 9.70833C40.5419 9.79749 40.6391 9.88666 40.7349 9.97716C40.7748 10.1102 40.8134 10.2433 40.852 10.3764C40.9385 10.4855 41.0237 10.5947 41.1088 10.7038C41.2472 10.7424 41.3856 10.7797 41.524 10.8196C41.5972 10.9247 41.6691 11.0312 41.741 11.1377C41.7423 11.2202 41.7436 11.3027 41.7449 11.3852C41.8354 11.4877 41.9246 11.5902 42.0138 11.694C42.1615 11.7166 42.3105 11.7405 42.4596 11.7632C42.5674 11.8324 42.6765 11.9029 42.7843 11.9721C42.8375 12.1039 42.8907 12.2356 42.944 12.3674C43.0265 12.4312 43.1076 12.4951 43.1902 12.5603C43.286 12.6136 43.3818 12.6668 43.4776 12.7214C43.5348 12.8105 43.5934 12.901 43.6506 12.9915C43.7358 13.0727 43.8196 13.1539 43.9048 13.2364C43.9593 13.3562 44.0139 13.4773 44.0658 13.5971C44.2069 13.6184 44.3479 13.641 44.4877 13.6636C44.5662 13.7568 44.6447 13.8499 44.7219 13.9431C44.8297 14.0017 44.9375 14.0615 45.0452 14.1214C45.1397 14.196 45.2329 14.2718 45.3274 14.3463C45.3753 14.4754 45.4219 14.6045 45.4684 14.7336C45.5509 14.8241 45.6321 14.9146 45.7146 15.0051C45.7772 15.1142 45.8397 15.222 45.9009 15.3325C46.014 15.399 46.1285 15.4669 46.2403 15.5348C46.3028 15.616 46.3667 15.6972 46.4279 15.7797C46.5304 15.8888 46.6315 15.9993 46.7327 16.1111C46.8205 16.1616 46.9096 16.2135 46.9975 16.2654C47.0387 16.3825 47.08 16.4983 47.1212 16.6168C47.0693 16.509 47.0174 16.4025 46.9655 16.296C46.8777 16.2455 46.7885 16.1936 46.7007 16.143C46.6009 16.0312 46.4984 15.9207 46.396 15.8116C46.3334 15.7291 46.2709 15.6479 46.2083 15.5681C46.0952 15.5002 45.9821 15.4323 45.8677 15.3658C45.8064 15.2566 45.7439 15.1475 45.6813 15.0384C45.6002 14.9479 45.519 14.8574 45.4352 14.7669C45.3886 14.6378 45.342 14.5087 45.2941 14.3796C45.2009 14.3051 45.1065 14.2292 45.0133 14.1547C44.9055 14.0948 44.7977 14.0363 44.6899 13.9764C44.6127 13.8832 44.5342 13.79 44.4557 13.6956C44.3147 13.6729 44.1736 13.6503 44.0339 13.629C43.9806 13.5092 43.9274 13.3881 43.8715 13.2684C43.7863 13.1858 43.7025 13.1047 43.6173 13.0235C43.5601 12.933 43.5029 12.8438 43.4457 12.7546C43.3498 12.7001 43.254 12.6468 43.1582 12.5936C43.077 12.5284 42.9959 12.4645 42.9134 12.4006C42.8615 12.2676 42.8082 12.1371 42.7537 12.0054C42.6459 11.9348 42.5381 11.8656 42.429 11.7964C42.2812 11.7725 42.1322 11.7499 41.9832 11.7272C41.894 11.6234 41.8048 11.5223 41.7143 11.4198C41.713 11.3373 41.7117 11.2548 41.7103 11.1723C41.6385 11.0658 41.5653 10.9593 41.4934 10.8542C41.355 10.8156 41.2166 10.777 41.0782 10.7397C40.9931 10.6306 40.9079 10.5215 40.8214 10.4123C40.7828 10.2793 40.7442 10.1462 40.7043 10.0131C40.6085 9.92392 40.5113 9.83343 40.4142 9.74426C40.2838 9.6857 40.1533 9.62847 40.0216 9.57125C39.9444 9.45147 39.8686 9.33169 39.7914 9.21192C39.637 9.17199 39.4813 9.13473 39.3269 9.09746C39.2604 9.02028 39.1925 8.94309 39.126 8.86457C39.0768 8.7541 39.0275 8.64364 38.977 8.53318C38.8572 8.5079 38.7387 8.48261 38.619 8.45866C38.5138 8.4001 38.4087 8.34287 38.3036 8.28564C38.2583 8.15788 38.2131 8.02879 38.1665 7.90103C38.0694 7.81452 37.9722 7.72802 37.8751 7.64151C37.8112 7.51109 37.746 7.38067 37.6808 7.25024C37.5357 7.24758 37.392 7.24492 37.247 7.24226C37.2017 7.12514 37.1565 7.0067 37.1112 6.88958C37.0008 6.79775 36.8916 6.70725 36.7799 6.61676C36.6667 6.53957 36.5523 6.46371 36.4392 6.38785C36.3234 6.31332 36.2063 6.23879 36.0905 6.16427C36.0519 6.131 36.0133 6.09772 35.9761 6.06445C36.0213 6.09906 36.0679 6.13233 36.1145 6.16693H36.1118Z" fill="white"/>
<path d="M7.53483 40.4688C7.56411 40.5593 7.59205 40.6485 7.62 40.739C7.69718 40.7815 7.77304 40.8241 7.84889 40.868C7.93805 40.8947 8.02588 40.92 8.11504 40.9466C8.22683 40.9585 8.33861 40.9719 8.4504 40.9852C8.5156 41.0624 8.58081 41.1382 8.64469 41.2167C8.71389 41.2819 8.78442 41.3472 8.85229 41.4137C8.90153 41.5015 8.95076 41.5894 8.99867 41.6772C9.08916 41.7464 9.17966 41.8156 9.26749 41.8861C9.34999 41.95 9.4325 42.0166 9.51368 42.0818C9.61482 42.1097 9.71462 42.1377 9.81443 42.167C9.87831 42.2335 9.94219 42.3014 10.0061 42.3692C10.0846 42.4185 10.1618 42.4691 10.2403 42.5196C10.3002 42.5902 10.3614 42.6607 10.4199 42.7312C10.4199 42.7565 10.4226 42.7818 10.4239 42.8071C10.4093 42.8417 10.3946 42.8763 10.38 42.9109C10.3946 42.9136 10.408 42.9176 10.4226 42.9202C10.5118 42.9681 10.6009 43.016 10.6887 43.064C10.7593 43.1531 10.8298 43.2436 10.899 43.3341C10.9602 43.4339 11.0214 43.5351 11.0813 43.6362C11.1811 43.6921 11.2823 43.7507 11.3807 43.8079C11.4646 43.8478 11.5484 43.8877 11.6323 43.9277C11.6788 44.0062 11.7227 44.0834 11.768 44.1619C11.76 44.2857 11.7534 44.4094 11.7454 44.5319C11.8132 44.5864 11.8811 44.6423 11.9476 44.6982C12.0208 44.7728 12.094 44.8473 12.1659 44.9218C12.267 44.9644 12.3682 45.007 12.468 45.0509C12.5092 45.1414 12.5505 45.2332 12.5904 45.3237C12.6756 45.3663 12.7607 45.4089 12.8459 45.4515C12.8699 45.5433 12.8925 45.6338 12.9151 45.7257C12.975 45.7816 13.0336 45.8388 13.0934 45.896C13.1134 45.9865 13.132 46.0783 13.1507 46.1702C13.1653 46.262 13.1786 46.3538 13.1919 46.4456C13.2545 46.4989 13.317 46.5521 13.3782 46.6054C13.4607 46.6386 13.5432 46.6719 13.6257 46.7038C13.655 46.813 13.683 46.9221 13.7109 47.0312C13.7828 47.1058 13.856 47.1803 13.9265 47.2561C13.9411 47.4172 13.9558 47.5769 13.9704 47.7379C13.9358 47.6487 13.9012 47.5596 13.8653 47.4704C13.7934 47.4345 13.7216 47.3972 13.6497 47.3613C13.5738 47.2734 13.4953 47.1856 13.4168 47.0991C13.3702 47.0326 13.3237 46.9673 13.2771 46.9021C13.1853 46.8529 13.0948 46.805 13.0016 46.7571C12.959 46.6666 12.9151 46.5774 12.8712 46.4882C12.81 46.4164 12.7474 46.3445 12.6836 46.2726C12.6556 46.1635 12.6277 46.0544 12.5984 45.9466C12.5252 45.8894 12.4507 45.8321 12.3762 45.7749C12.2883 45.7323 12.2005 45.6911 12.1127 45.6498C12.0541 45.5753 11.9956 45.5007 11.9357 45.4262C11.8159 45.4196 11.6961 45.4142 11.5764 45.4076C11.5418 45.3064 11.5058 45.2066 11.4699 45.1068C11.4047 45.0429 11.3395 44.9791 11.273 44.9165C11.2317 44.8433 11.1904 44.7688 11.1492 44.6956C11.072 44.657 10.9935 44.6184 10.915 44.5811C10.8511 44.5319 10.7859 44.484 10.7207 44.4347C10.6874 44.3229 10.6541 44.2125 10.6195 44.102C10.533 44.0501 10.4465 43.9995 10.3587 43.949C10.2323 43.9423 10.1059 43.9357 9.97945 43.9303C9.91158 43.8478 9.84504 43.7666 9.77584 43.6855C9.78249 43.6136 9.78915 43.5404 9.7958 43.4685C9.7439 43.382 9.69067 43.2955 9.63744 43.2103C9.52166 43.1891 9.40589 43.1691 9.28878 43.1491C9.2249 43.0613 9.16103 42.9735 9.09715 42.887C9.07719 42.7738 9.05456 42.6607 9.03327 42.5476C8.95875 42.4784 8.88289 42.4078 8.80704 42.3386C8.69925 42.3 8.59146 42.2614 8.48234 42.2242C8.42777 42.1257 8.37188 42.0286 8.31599 41.9301C8.18558 41.9101 8.05516 41.8915 7.92341 41.8742C7.87284 41.8116 7.82227 41.7504 7.77171 41.6892C7.73977 41.596 7.7065 41.5042 7.67456 41.4124C7.57342 41.4017 7.47228 41.3911 7.37115 41.3818C7.28598 41.3405 7.19948 41.3006 7.11431 41.2607C7.08769 41.1529 7.05975 41.0437 7.0318 40.9359C6.95595 40.8694 6.88009 40.8028 6.80424 40.7363C6.76166 40.6272 6.71641 40.5194 6.67249 40.4116C6.5474 40.4222 6.42231 40.4342 6.29722 40.4462C6.26927 40.3477 6.24133 40.2479 6.21338 40.1494C6.12688 40.0802 6.04038 40.011 5.95255 39.9418C5.86073 39.8859 5.77023 39.8287 5.67841 39.7728C5.58526 39.7182 5.49077 39.6636 5.39762 39.6104C5.36701 39.5851 5.33774 39.5598 5.30713 39.5332C5.39629 39.5625 5.48545 39.5918 5.57461 39.6224C5.69305 39.6117 5.81149 39.6011 5.92993 39.5904C6.00179 39.6397 6.07365 39.6916 6.14418 39.7421C6.23733 39.7528 6.33182 39.7634 6.4263 39.7754C6.51413 39.83 6.60196 39.8845 6.68979 39.9391C6.74302 40.0216 6.79493 40.1041 6.84816 40.1867C6.93466 40.2279 7.02115 40.2705 7.10632 40.3118C7.24738 40.3623 7.38711 40.4156 7.52685 40.4675L7.53483 40.4688Z" fill="#0E9CD2"/>
<path d="M5.42559 39.6123C5.52141 39.6548 5.61722 39.6974 5.71304 39.7414C5.80486 39.7972 5.89668 39.8531 5.98718 39.9104C6.07501 39.9782 6.1615 40.0488 6.248 40.118C6.27063 40.2218 6.29458 40.3256 6.31721 40.4307C6.4423 40.4188 6.56872 40.4054 6.69381 40.3935C6.74305 40.4973 6.79096 40.6011 6.8402 40.7062C6.91605 40.7728 6.9919 40.8393 7.06776 40.9058C7.0957 41.0136 7.12365 41.1214 7.15026 41.2306C7.23676 41.2705 7.32193 41.3118 7.4071 41.353C7.50824 41.3623 7.60938 41.373 7.71052 41.3836C7.74379 41.4768 7.77572 41.5686 7.80766 41.6618C7.85823 41.723 7.9088 41.7842 7.95937 41.8468C8.08978 41.8654 8.22153 41.884 8.35195 41.9027C8.40784 41.9998 8.46373 42.0983 8.51829 42.1968C8.62741 42.234 8.73521 42.2726 8.843 42.3112C8.91885 42.3804 8.99337 42.4496 9.06923 42.5202C9.09052 42.6333 9.11181 42.7464 9.13311 42.8595C9.19831 42.9474 9.26086 43.0352 9.32474 43.1217C9.44184 43.1417 9.55762 43.163 9.6734 43.1829C9.72663 43.2681 9.77986 43.3546 9.83176 43.4411C9.8251 43.513 9.81845 43.5862 9.8118 43.658C9.87966 43.7392 9.94886 43.8204 10.0154 43.9029C10.1418 43.9083 10.2682 43.9149 10.3947 43.9216C10.4812 43.9721 10.569 44.0227 10.6555 44.0746C10.6901 44.1851 10.7234 44.2955 10.7566 44.4073C10.8218 44.4552 10.8871 44.5045 10.9509 44.5537C11.0294 44.591 11.1066 44.6296 11.1851 44.6668C11.2264 44.74 11.2677 44.8132 11.3089 44.8878C11.3754 44.9503 11.4407 45.0142 11.5059 45.0781C11.5418 45.1779 11.5764 45.279 11.611 45.3802C11.7308 45.3855 11.8505 45.3921 11.9703 45.3988C12.0302 45.4733 12.0887 45.5465 12.1473 45.6224C12.2351 45.6636 12.323 45.7062 12.4108 45.7488C12.4853 45.806 12.5598 45.8633 12.633 45.9205C12.6623 46.0283 12.6902 46.1374 12.7182 46.2466C12.7807 46.3184 12.8433 46.389 12.9058 46.4622C12.9497 46.5513 12.9937 46.6418 13.0362 46.731C13.1281 46.7789 13.2199 46.8281 13.3117 46.8774C13.3583 46.9426 13.4049 47.0078 13.4514 47.0743C13.53 47.1609 13.6071 47.2487 13.6843 47.3365C13.7562 47.3725 13.828 47.4097 13.8999 47.447C13.9252 47.5455 13.9491 47.6439 13.9731 47.7438C13.9385 47.6546 13.9039 47.5654 13.868 47.4763C13.7961 47.4403 13.7242 47.4031 13.6524 47.3671C13.5765 47.2793 13.498 47.1915 13.4195 47.105C13.3729 47.0384 13.3263 46.9732 13.2798 46.908C13.1879 46.8587 13.0975 46.8108 13.0043 46.7629C12.9617 46.6724 12.9178 46.5833 12.8739 46.4941C12.8127 46.4222 12.7501 46.3504 12.6863 46.2785C12.6583 46.1694 12.6304 46.0602 12.6011 45.9524C12.5279 45.8952 12.4534 45.838 12.3788 45.7808C12.291 45.7382 12.2032 45.6969 12.1154 45.6557C12.0568 45.5811 11.9982 45.5066 11.9384 45.4321C11.8186 45.4254 11.6988 45.4201 11.5791 45.4134C11.5445 45.3123 11.5085 45.2125 11.4726 45.1127C11.4074 45.0488 11.3422 44.9849 11.2756 44.9224C11.2344 44.8492 11.1931 44.7746 11.1519 44.7014C11.0747 44.6628 10.9962 44.6242 10.9177 44.587C10.8538 44.5377 10.7886 44.4898 10.7234 44.4406C10.6901 44.3288 10.6568 44.2183 10.6222 44.1079C10.5357 44.056 10.4492 44.0054 10.3614 43.9548C10.235 43.9482 10.1086 43.9415 9.98213 43.9362C9.91426 43.8537 9.84773 43.7725 9.77853 43.6913C9.78518 43.6195 9.79184 43.5463 9.79849 43.4744C9.74659 43.3879 9.69336 43.3014 9.64013 43.2162C9.52435 43.1949 9.40857 43.1749 9.29147 43.155C9.22759 43.0671 9.16371 42.9793 9.09984 42.8928C9.07988 42.7797 9.05725 42.6666 9.03596 42.5534C8.96144 42.4842 8.88558 42.4137 8.80973 42.3445C8.70194 42.3059 8.59414 42.2673 8.48502 42.23C8.43046 42.1316 8.37457 42.0344 8.31868 41.9359C8.18826 41.916 8.05785 41.8973 7.9261 41.88C7.87553 41.8175 7.82496 41.7563 7.77439 41.695C7.74245 41.6019 7.70919 41.5101 7.67725 41.4182C7.57611 41.4076 7.47497 41.3969 7.37383 41.3876C7.28866 41.3464 7.20216 41.3064 7.11699 41.2665C7.09038 41.1587 7.06243 41.0496 7.03449 40.9418C6.95863 40.8752 6.88278 40.8087 6.80693 40.7422C6.76434 40.633 6.7191 40.5252 6.67518 40.4174C6.55009 40.4281 6.425 40.44 6.2999 40.452C6.27196 40.3535 6.24401 40.2537 6.21607 40.1552C6.12957 40.086 6.04307 40.0168 5.95524 39.9476C5.86341 39.8917 5.77292 39.8345 5.6811 39.7786C5.58795 39.724 5.49346 39.6695 5.40031 39.6163C5.3697 39.591 5.34042 39.5657 5.30981 39.5391C5.34575 39.5643 5.38301 39.591 5.41894 39.6163L5.42559 39.6123Z" fill="white"/>
<path d="M21.4187 47.849C21.1526 47.5522 20.8838 47.2568 20.6123 46.964C20.5178 46.7856 20.4233 46.6073 20.3275 46.429C20.1878 46.2879 20.048 46.1482 19.907 46.0084C19.7207 45.9086 19.533 45.8088 19.3467 45.7103C19.2482 45.516 19.1471 45.3217 19.0446 45.1287C18.9475 44.9571 18.849 44.788 18.7505 44.6177C18.5509 44.5671 18.3513 44.5179 18.1504 44.4686C18.0625 44.2876 17.972 44.108 17.8829 43.927C17.7352 43.7979 17.5875 43.6688 17.4397 43.541C17.4065 43.3174 17.3719 43.0939 17.3359 42.8703C17.1616 42.7864 16.9873 42.7039 16.8116 42.6214C16.6426 42.5402 16.4749 42.4604 16.3059 42.3805C16.1542 42.2701 16.0012 42.1623 15.8495 42.0545C15.6326 41.924 15.4143 41.7949 15.1961 41.6672C15.1189 41.4702 15.039 41.2733 14.9618 41.0763C14.9272 40.8367 14.8913 40.5958 14.8554 40.3563C14.6052 40.2378 14.355 40.1221 14.1035 40.0076C14.0662 39.812 14.029 39.619 13.9904 39.4247C13.7801 39.3382 13.5699 39.253 13.3609 39.1678C13.1347 39.1053 12.9085 39.0441 12.6809 38.9829C12.5172 38.8631 12.3535 38.7446 12.1899 38.6262C12.0089 38.5157 11.8266 38.4066 11.6443 38.2975C11.6695 38.0193 11.6935 37.7412 11.7161 37.4617C11.5538 37.2834 11.3887 37.1064 11.2251 36.9293C10.9922 36.8375 10.7606 36.747 10.5277 36.6565C10.3255 36.5168 10.1205 36.3797 9.91559 36.2426C9.74924 36.1748 9.58423 36.1056 9.41788 36.0377C9.40058 35.8141 9.38195 35.5918 9.36199 35.3683C9.28747 35.1859 9.21161 35.0049 9.13443 34.8226C9.03329 34.6696 8.93215 34.5165 8.83101 34.3635C8.63273 34.3129 8.43577 34.265 8.23749 34.2171C8.04719 34.0933 7.85689 33.9695 7.66659 33.8471C7.51355 33.6807 7.35919 33.5157 7.20482 33.3507C7.02516 33.2802 6.84551 33.2096 6.66453 33.1404C6.56206 32.9807 6.45826 32.821 6.35446 32.6613C6.24533 32.5069 6.13621 32.3539 6.02576 32.2008C5.8115 32.1702 5.59725 32.1396 5.383 32.1117C5.21665 31.8136 5.04765 31.5181 4.87598 31.2227C5.11551 31.3903 5.35372 31.5607 5.59193 31.731C5.84477 31.7936 6.09762 31.8588 6.3518 31.9253C6.59 32.1396 6.82688 32.3539 7.06243 32.5721C7.31527 32.6666 7.56945 32.7625 7.82096 32.8609C7.87685 33.0246 7.93141 33.1897 7.98598 33.3547C8.22019 33.38 8.45307 33.4066 8.68729 33.4345C8.9388 33.4918 9.18899 33.5516 9.43917 33.6115C9.61217 33.8138 9.78251 34.0174 9.95418 34.2211C10.0806 34.434 10.207 34.6469 10.3321 34.8599C10.545 34.9198 10.758 34.981 10.9696 35.0422C11.0268 35.2418 11.084 35.4415 11.1399 35.6411C11.3555 35.7169 11.5697 35.7955 11.784 35.874C11.9317 36.031 12.0781 36.1894 12.2245 36.3478C12.4361 36.4156 12.6503 36.4862 12.8619 36.5554C12.9098 36.8056 12.9551 37.0558 12.999 37.3073C13.0828 37.4031 13.1653 37.499 13.2478 37.5961C13.349 37.7665 13.4474 37.9368 13.5486 38.1085C13.7389 38.0792 13.9305 38.0513 14.1208 38.0246C14.4056 38.1764 14.689 38.3294 14.9725 38.4851C15.1442 38.6515 15.3145 38.8205 15.4848 38.9882C15.6219 39.1665 15.7603 39.3448 15.896 39.5232C16.0544 39.647 16.2114 39.772 16.3685 39.8958C16.4443 40.1354 16.5188 40.3736 16.5907 40.6132C16.7637 40.7409 16.9354 40.8673 17.107 40.9964C17.3479 41.0843 17.5888 41.1734 17.8283 41.2653C17.9534 41.4662 18.0798 41.6672 18.2036 41.8695C18.2834 42.1104 18.3606 42.3526 18.4378 42.5935C18.5709 42.7159 18.704 42.8383 18.837 42.9621C18.9608 43.0899 19.0846 43.2176 19.2083 43.3454C19.2882 43.5157 19.3693 43.6861 19.4479 43.8564C19.5596 43.9988 19.6714 44.1412 19.7819 44.2836C19.8391 44.4513 19.895 44.6177 19.9496 44.7867C20.0108 44.9757 20.072 45.166 20.1319 45.3563C20.3328 45.4601 20.5338 45.5639 20.7334 45.6717C20.7666 45.9232 20.7999 46.1761 20.8305 46.4276C21.0328 46.9014 21.2284 47.3752 21.4214 47.8517L21.4187 47.849Z" fill="#0E9CD2"/>
<path d="M5.42558 32.0558C5.63984 32.085 5.85409 32.1157 6.06834 32.1463C6.1788 32.2993 6.28925 32.4524 6.39704 32.6054C6.50084 32.7651 6.60331 32.9248 6.70578 33.0845C6.88543 33.1537 7.06642 33.2243 7.24607 33.2948C7.40177 33.4585 7.55614 33.6248 7.70785 33.7912C7.89948 33.9136 8.08978 34.0374 8.28008 34.1612C8.47703 34.2091 8.67531 34.2583 8.87227 34.3076C8.97474 34.4606 9.07587 34.6137 9.17701 34.768C9.25287 34.949 9.32872 35.1314 9.40457 35.3137C9.42453 35.5373 9.4445 35.7595 9.4618 35.9831C9.62814 36.051 9.79449 36.1189 9.9595 36.1881C10.1644 36.3251 10.3694 36.4636 10.573 36.6033C10.8059 36.6938 11.0388 36.7843 11.2703 36.8761C11.4353 37.0531 11.599 37.2301 11.7614 37.4085C11.7387 37.6866 11.7148 37.9661 11.6908 38.2442C11.8731 38.352 12.0555 38.4625 12.2364 38.5716C12.4015 38.6901 12.5651 38.8085 12.7288 38.9283C12.9551 38.9895 13.1826 39.0507 13.4088 39.1146C13.6191 39.1998 13.828 39.285 14.0383 39.3715C14.0769 39.5658 14.1142 39.7601 14.1514 39.9557C14.4016 40.0702 14.6531 40.1859 14.9033 40.3031C14.9392 40.5439 14.9752 40.7835 15.0098 41.0244C15.0883 41.22 15.1668 41.417 15.244 41.6153C15.4622 41.743 15.6818 41.8721 15.8987 42.0026C16.0504 42.1117 16.2035 42.2195 16.3552 42.3299C16.5242 42.4098 16.6945 42.4897 16.8622 42.5708C17.0378 42.6533 17.2122 42.7372 17.3852 42.821C17.4224 43.0433 17.4557 43.2669 17.4903 43.4918C17.638 43.6195 17.7857 43.7486 17.9348 43.8777C18.0253 44.0587 18.1144 44.2397 18.2023 44.4207C18.4032 44.47 18.6028 44.5192 18.8024 44.5698C18.9009 44.7388 18.9994 44.9105 19.0965 45.0808C19.1977 45.2751 19.2988 45.4681 19.3986 45.6637C19.5863 45.7622 19.7726 45.862 19.9602 45.9632C20.1013 46.1029 20.241 46.2427 20.3807 46.3837C20.4765 46.5621 20.571 46.7404 20.6655 46.9201C20.9184 47.2275 21.1699 47.5376 21.4187 47.849C21.1526 47.5522 20.8838 47.2568 20.6123 46.964C20.5178 46.7856 20.4233 46.6073 20.3275 46.429C20.1878 46.2879 20.048 46.1482 19.907 46.0084C19.7207 45.9086 19.533 45.8088 19.3467 45.7103C19.2482 45.516 19.1471 45.3217 19.0446 45.1287C18.9475 44.9571 18.849 44.788 18.7505 44.6177C18.5509 44.5671 18.3513 44.5179 18.1504 44.4686C18.0625 44.2876 17.972 44.108 17.8829 43.927C17.7352 43.7979 17.5875 43.6688 17.4397 43.541C17.4065 43.3174 17.3719 43.0939 17.3359 42.8703C17.1616 42.7864 16.9873 42.7039 16.8116 42.6214C16.6426 42.5402 16.4749 42.4604 16.3059 42.3805C16.1542 42.2701 16.0012 42.1623 15.8495 42.0545C15.6326 41.924 15.4143 41.7949 15.1961 41.6672C15.1189 41.4702 15.039 41.2733 14.9618 41.0763C14.9272 40.8367 14.8913 40.5958 14.8554 40.3563C14.6052 40.2378 14.355 40.1221 14.1035 40.0076C14.0662 39.812 14.029 39.619 13.9904 39.4247C13.7801 39.3382 13.5699 39.253 13.3609 39.1678C13.1347 39.1053 12.9085 39.0441 12.6809 38.9829C12.5172 38.8631 12.3536 38.7446 12.1899 38.6262C12.0089 38.5157 11.8266 38.4066 11.6443 38.2975C11.6695 38.0193 11.6935 37.7412 11.7161 37.4617C11.5538 37.2834 11.3887 37.1064 11.2251 36.9293C10.9922 36.8375 10.7606 36.747 10.5277 36.6565C10.3255 36.5168 10.1205 36.3797 9.91559 36.2426C9.74924 36.1748 9.58423 36.1056 9.41788 36.0377C9.40058 35.8141 9.38195 35.5918 9.36199 35.3683C9.28747 35.1859 9.21161 35.0049 9.13443 34.8226C9.03329 34.6696 8.93215 34.5165 8.83101 34.3635C8.63273 34.3129 8.43577 34.265 8.23749 34.2171C8.04719 34.0933 7.85689 33.9695 7.66659 33.8471C7.51355 33.6807 7.35919 33.5157 7.20482 33.3507C7.02516 33.2802 6.84551 33.2096 6.66453 33.1404C6.56206 32.9807 6.45826 32.821 6.35446 32.6613C6.24533 32.5069 6.13621 32.3539 6.02576 32.2008C5.8115 32.1702 5.59725 32.1396 5.383 32.1117C5.21665 31.8136 5.04765 31.5181 4.87598 31.2227C5.06228 31.4995 5.24726 31.779 5.42824 32.0571L5.42558 32.0558Z" fill="white"/>
<path d="M46.3798 23.9728C46.0831 23.6827 45.785 23.3939 45.4829 23.1104C45.3791 22.9268 45.2753 22.7458 45.1702 22.5634C45.0158 22.4264 44.8614 22.2906 44.7071 22.1549C44.5008 22.0657 44.2932 21.9779 44.0869 21.8913C43.9791 21.6904 43.87 21.4908 43.7596 21.2911C43.6531 21.1168 43.5466 20.9425 43.4402 20.7681C43.2193 20.7348 42.9984 20.7002 42.7775 20.667C42.683 20.4793 42.5872 20.2917 42.49 20.1053C42.329 19.9789 42.168 19.8538 42.0069 19.73C41.9537 19.5837 41.8992 19.4386 41.8446 19.2922C41.7102 19.1644 41.5758 19.0353 41.44 18.9089C41.3296 18.9156 41.2165 18.9235 41.106 18.9302C40.941 18.8237 40.7773 18.7186 40.6123 18.6135C40.3781 18.4897 40.1399 18.3673 39.9043 18.2461C39.8258 18.0359 39.746 17.8269 39.6661 17.6193C39.4319 17.26 39.1964 16.9007 38.9568 16.5453C38.7226 16.4761 38.4897 16.4096 38.2568 16.343C38.2222 16.1314 38.189 15.9225 38.153 15.7122C37.9268 15.6337 37.6993 15.5578 37.4717 15.482C37.3892 15.2637 37.3053 15.0441 37.2215 14.8245C37.0472 14.7061 36.8715 14.5876 36.6959 14.4705C36.5016 14.3627 36.3059 14.2549 36.1103 14.1485C36.0411 13.9528 35.9719 13.7572 35.9014 13.5615C35.7324 13.3766 35.5607 13.1929 35.3877 13.0106C35.1402 12.9254 34.89 12.8429 34.6398 12.7604C34.4375 12.5261 34.2339 12.2959 34.029 12.0657C33.9039 11.9419 33.7788 11.8208 33.6537 11.6984C33.5912 11.5094 33.53 11.3217 33.4674 11.1341C33.2918 11.0529 33.1134 10.973 32.9364 10.8945C32.8353 10.7308 32.7342 10.5671 32.6317 10.4048C32.5146 10.3369 32.3962 10.2703 32.279 10.2051C32.0808 10.0787 31.8825 9.95228 31.6815 9.82851C31.5258 9.6515 31.3688 9.47716 31.2118 9.30149C30.9363 9.16707 30.6595 9.03399 30.3827 8.90356C30.2802 8.73055 30.1791 8.55887 30.0766 8.38586C29.9688 8.22084 29.8584 8.05581 29.7493 7.89079C29.5204 7.86949 29.2928 7.84687 29.0626 7.8269C28.9002 7.50218 28.7379 7.18144 28.5715 6.85938C28.8191 7.03505 29.0639 7.21205 29.3101 7.39039C29.5803 7.44761 29.8477 7.50484 30.1179 7.5634C30.412 7.72975 30.7061 7.89611 30.9988 8.06646C31.3036 8.28206 31.607 8.49898 31.9091 8.71991C32.0102 8.83968 32.1114 8.96079 32.2112 9.08323C32.4627 9.09787 32.7142 9.11251 32.9657 9.12848C33.184 9.23628 33.4009 9.34541 33.6165 9.45587C33.7921 9.67013 33.9678 9.88573 34.1408 10.1C34.2672 10.3276 34.3936 10.5552 34.5174 10.7841C34.745 10.836 34.9752 10.8879 35.2027 10.9424C35.256 11.1594 35.3079 11.3763 35.3571 11.5932C35.5887 11.6624 35.8189 11.733 36.0491 11.8035C36.2035 11.9659 36.3552 12.1295 36.5069 12.2932C36.7371 12.3531 36.966 12.413 37.1949 12.4742C37.2894 12.6898 37.3825 12.9054 37.4744 13.121C37.5622 13.2208 37.6487 13.3207 37.7352 13.4218C37.839 13.6015 37.9415 13.7811 38.0439 13.9621C38.201 13.9714 38.3567 13.9821 38.5124 13.9927C38.7652 14.1924 39.0154 14.3933 39.2656 14.5956C39.3534 14.7819 39.4412 14.9696 39.5291 15.1572C39.6741 15.3396 39.8192 15.5219 39.9629 15.7055C40.3395 15.9238 40.7174 16.1461 41.0914 16.3696C41.1646 16.6238 41.2378 16.8794 41.3096 17.1349C41.4959 17.26 41.6809 17.3838 41.8659 17.5089C42.0149 17.6925 42.1653 17.8788 42.3143 18.0638C42.3383 18.1503 42.3596 18.2368 42.3809 18.3247C42.5752 18.4697 42.7681 18.6161 42.9611 18.7625C43.1062 18.881 43.2499 19.0021 43.3949 19.1218C43.5307 19.2483 43.6651 19.3747 43.7982 19.5011C43.9419 19.6236 44.0843 19.746 44.2267 19.8711C44.2905 20.0668 44.3557 20.2624 44.4183 20.4594C44.5367 20.5805 44.6538 20.7029 44.7709 20.8253C44.8362 21.0236 44.9014 21.2233 44.9666 21.4216C45.1316 21.5653 45.2953 21.709 45.459 21.8541C45.5508 22.0697 45.6439 22.2853 45.7344 22.5022C45.9553 22.9906 46.1722 23.4804 46.3852 23.9715L46.3798 23.9728Z" fill="#0E9CD2"/>
<path d="M29.1093 7.76232C29.3382 7.78361 29.5684 7.8049 29.7973 7.8262C29.9064 7.99255 30.0169 8.15625 30.1233 8.32127C30.2258 8.49295 30.3283 8.66596 30.4307 8.83764C30.7075 8.97073 30.9843 9.10381 31.2598 9.23823C31.4168 9.41257 31.5739 9.58824 31.7309 9.76392C31.9305 9.89035 32.1301 10.0154 32.3284 10.1419C32.4894 10.2417 32.6478 10.3428 32.8075 10.444C32.8674 10.5731 32.9273 10.7035 32.9871 10.8326C33.1655 10.9111 33.3425 10.9923 33.5195 11.0721C33.5807 11.2598 33.6432 11.4488 33.7058 11.6364C33.8309 11.7589 33.9573 11.8813 34.0824 12.0051C34.2873 12.234 34.4909 12.4669 34.6945 12.6998C34.9447 12.7836 35.1936 12.8661 35.4424 12.9513C35.6154 13.135 35.7857 13.3186 35.9548 13.5036C36.024 13.6992 36.0958 13.8949 36.165 14.0905C36.3606 14.197 36.5549 14.3035 36.7492 14.4113C36.9249 14.5297 37.1005 14.6468 37.2749 14.7653C37.3587 14.9835 37.4426 15.2031 37.5251 15.424C37.7526 15.4999 37.9789 15.5771 38.2064 15.6529C38.2423 15.8645 38.2756 16.0735 38.3102 16.2851C38.5444 16.3516 38.7786 16.4182 39.0115 16.4874C39.2511 16.844 39.4866 17.2034 39.7222 17.5614C39.8033 17.7703 39.8818 17.9793 39.9604 18.1895C40.1986 18.3106 40.4341 18.4331 40.6697 18.5569C40.8347 18.662 40.9997 18.7671 41.1634 18.8736L41.4987 18.8523C41.6331 18.9801 41.7689 19.1092 41.9019 19.2369C41.9565 19.382 42.0111 19.5284 42.0643 19.6748C42.2253 19.7999 42.3863 19.925 42.5474 20.0514C42.6445 20.2377 42.7403 20.4254 42.8348 20.6144C43.0557 20.6463 43.278 20.6809 43.4989 20.7142C43.6067 20.8885 43.7131 21.0629 43.8182 21.2385C43.9287 21.4382 44.0378 21.6378 44.1469 21.8387C44.3532 21.9252 44.5608 22.0131 44.7671 22.1022C44.9228 22.238 45.0772 22.3737 45.2329 22.5108C45.338 22.6931 45.4418 22.8755 45.5456 23.0578C45.8264 23.3612 46.1058 23.6673 46.3813 23.9748C46.0845 23.6846 45.7865 23.3958 45.4844 23.1124C45.3806 22.9287 45.2768 22.7477 45.1716 22.5654C45.0173 22.4283 44.8629 22.2926 44.7085 22.1568C44.5023 22.0676 44.2947 21.9798 44.0884 21.8933C43.9806 21.6923 43.8715 21.4927 43.761 21.2931C43.6546 21.1187 43.5481 20.9444 43.4416 20.7701C43.2207 20.7368 42.9998 20.7022 42.7789 20.6689C42.6844 20.4813 42.5886 20.2936 42.4915 20.1073C42.3305 19.9809 42.1694 19.8558 42.0084 19.732C41.9552 19.5856 41.9006 19.4405 41.8461 19.2941C41.7116 19.1664 41.5772 19.0373 41.4415 18.9109C41.331 18.9175 41.2179 18.9255 41.1075 18.9322C40.9425 18.8257 40.7788 18.7206 40.6138 18.6154C40.3796 18.4916 40.1413 18.3692 39.9058 18.2481C39.8273 18.0378 39.7474 17.8289 39.6676 17.6213C39.4334 17.2619 39.1978 16.9026 38.9583 16.5473C38.7241 16.4781 38.4912 16.4115 38.2583 16.345C38.2237 16.1334 38.1904 15.9244 38.1545 15.7142C37.9283 15.6356 37.7007 15.5598 37.4732 15.4839C37.3907 15.2657 37.3068 15.0461 37.223 14.8265C37.0486 14.708 36.873 14.5896 36.6973 14.4725C36.503 14.3647 36.3074 14.2569 36.1118 14.1504C36.0426 13.9548 35.9734 13.7591 35.9029 13.5635C35.7339 13.3785 35.5622 13.1949 35.3892 13.0125C35.1417 12.9274 34.8915 12.8448 34.6413 12.7623C34.439 12.5281 34.2354 12.2979 34.0305 12.0676C33.9054 11.9439 33.7803 11.8227 33.6552 11.7003C33.5926 11.5113 33.5314 11.3237 33.4689 11.136C33.2932 11.0548 33.1149 10.975 32.9379 10.8965C32.8368 10.7328 32.7356 10.5691 32.6332 10.4067C32.5161 10.3388 32.3976 10.2723 32.2805 10.2071C32.0822 10.0807 31.8839 9.95423 31.683 9.83046C31.5273 9.65346 31.3703 9.47911 31.2132 9.30344C30.9378 9.16903 30.661 9.03594 30.3842 8.90552C30.2817 8.73251 30.1806 8.56083 30.0781 8.38782C29.9703 8.22279 29.8598 8.05776 29.7507 7.89274C29.5218 7.87144 29.2943 7.84882 29.0641 7.82886C28.9017 7.50413 28.7393 7.18339 28.573 6.86133C28.7553 7.1621 28.9363 7.4642 29.1146 7.76631L29.1093 7.76232Z" fill="white"/>
<path d="M75.3289 20.2348L71.861 19.3418L69.4748 28.0422L67.0694 19.5401L63.6001 20.4741L67.5904 34.597H71.4795L74.5044 23.3146V33.2322H77.6619V21.7008H74.9365L75.3289 20.2348Z" fill="#0D90D8"/>
<path d="M83.0101 27.8569L80.9042 20.8262L77.8684 21.5989L81.3609 33.2765H84.766L88.1341 21.402L85.0983 20.6621L83.0101 27.8569Z" fill="#0D90D8"/>
<path d="M91.3271 21.6738H88.1682V33.2038H91.3271V21.6738Z" fill="#0D90D8"/>
<path d="M100.598 24.6623C100.259 24.0496 99.8327 23.534 99.3171 23.1183C98.803 22.7025 98.2792 22.3647 97.7459 22.1076C97.214 21.8505 96.7053 21.6618 96.2198 21.5415C95.7344 21.4211 95.3515 21.35 95.0698 21.3281H91.9109V33.2041H95.0698C95.1751 33.215 95.4034 33.174 95.7549 33.081C96.1063 32.988 96.5097 32.843 96.9651 32.6461C97.4205 32.4492 97.9004 32.1921 98.4037 31.8734C98.9069 31.5561 99.3718 31.1732 99.7985 30.7233C100.225 30.2747 100.577 29.7537 100.851 29.1629C101.126 28.5721 101.264 27.9034 101.264 27.1594C101.264 26.7327 101.208 26.3061 101.098 25.878C100.987 25.4513 100.82 25.0465 100.597 24.6623H100.598ZM97.6324 28.4326C97.3986 28.8101 97.0649 29.1383 96.6328 29.4186C96.1993 29.6976 95.6797 29.8699 95.0711 29.9356V24.6787C95.7726 24.7115 96.3456 24.8537 96.7914 25.1053C97.2358 25.357 97.5599 25.666 97.7651 26.0325C97.9702 26.4004 98.0577 26.7957 98.029 27.2237C97.9989 27.6504 97.8676 28.0524 97.6338 28.4313L97.6324 28.4326Z" fill="#0D90D8"/>
<path d="M112.572 28.2877C112.829 27.6367 112.961 26.9707 112.967 26.2924C112.973 25.6141 112.85 24.9535 112.6 24.3135C112.348 23.6735 111.971 23.1087 111.467 22.6218C110.964 22.135 110.332 21.7589 109.572 21.4963C108.812 21.2338 107.923 21.1408 106.904 21.2173H103.763V33.3394H106.904V31.6642C107.91 31.6861 108.791 31.5466 109.545 31.2457C110.299 30.9448 110.929 30.54 111.432 30.0299C111.935 29.5212 112.315 28.94 112.572 28.289V28.2877ZM109.791 26.3498C109.762 26.7601 109.627 27.1457 109.387 27.5081C109.148 27.8692 108.817 28.181 108.396 28.4449C107.975 28.7075 107.472 28.8607 106.886 28.9044L106.868 24.0427C107.582 24.0318 108.158 24.1385 108.597 24.3627C109.036 24.587 109.352 24.8715 109.545 25.2175C109.737 25.5621 109.819 25.9396 109.791 26.3512V26.3498Z" fill="#0D90D8"/>
<path d="M114.89 21.0664L111.397 33.0408L114.433 33.8135L115.118 31.4804H118.347L118.786 33.3198L121.84 32.729L119.207 21.0664H114.89V21.0664ZM115.961 28.5237L116.926 25.1896L117.681 28.5237H115.961Z" fill="#0D90D8"/>
<path d="M128.823 28.3044L124.997 22.5237H121.838V32.7285V33.1333H124.997V28.4521L128.823 33.5449H131.981V22.2598H128.823V28.3044Z" fill="#0D90D8"/>
<path d="M132.54 33.3424H139.752V30.3857H135.699V29.2848H138.262V26.3295H135.699V24.2098L139.857 24.2426V21.3188L132.54 21.2695V33.3424Z" fill="#0D90D8"/>
<path d="M143.99 30.9029V19.8516H140.254V34.3984H147.6V30.9029H143.99Z" fill="#0D90D8"/>
<path d="M75.3289 18.9053L71.861 18L69.4748 26.8153L67.0694 18.201L63.6001 19.1474L67.5904 33.4562H71.4795L74.5044 22.0247V32.0736H77.6619V20.3905H74.9365L75.3289 18.9053Z" fill="white"/>
<path d="M83.0101 26.627L80.9042 19.5047L77.8684 20.287L81.3609 32.1192H84.766L88.1341 20.0873L85.0983 19.3379L83.0101 26.627Z" fill="white"/>
<path d="M91.3271 20.3633H88.1682V32.045H91.3271V20.3633Z" fill="white"/>
<path d="M100.598 23.3896C100.259 22.7687 99.8327 22.2477 99.3171 21.8251C98.803 21.4039 98.2792 21.062 97.7459 20.8022C97.214 20.541 96.7053 20.3495 96.2198 20.2278C95.7344 20.1061 95.3515 20.0336 95.0698 20.0117H91.9109V32.0436H95.0698C95.1751 32.0545 95.4034 32.0135 95.7549 31.9191C96.1063 31.8248 96.5097 31.6784 96.9651 31.4774C97.4205 31.2764 97.9004 31.0165 98.4037 30.6951C98.9069 30.3738 99.3718 29.9854 99.7985 29.53C100.225 29.0746 100.577 28.5481 100.851 27.9491C101.126 27.3501 101.264 26.6731 101.264 25.9182C101.264 25.4861 101.208 25.0526 101.098 24.6204C100.987 24.1883 100.82 23.778 100.597 23.3882L100.598 23.3896ZM97.6324 27.2092C97.3986 27.5921 97.0649 27.9245 96.6328 28.2075C96.1993 28.4906 95.6797 28.6657 95.0711 28.7313V23.406C95.7726 23.4388 96.3456 23.5838 96.7914 23.8395C97.2358 24.0953 97.5599 24.4084 97.7651 24.7791C97.9702 25.151 98.0577 25.5531 98.029 25.9852C97.9989 26.4174 97.8676 26.8249 97.6338 27.2078L97.6324 27.2092Z" fill="white"/>
<path d="M112.572 27.0648C112.829 26.4042 112.961 25.7314 112.967 25.0435C112.973 24.3556 112.85 23.6869 112.6 23.0386C112.348 22.389 111.971 21.8188 111.467 21.3251C110.964 20.8314 110.332 20.4512 109.572 20.1845C108.812 19.9179 107.923 19.8235 106.904 19.9014H103.763V32.1836H106.904V30.4864C107.91 30.5083 108.791 30.3674 109.545 30.0625C110.299 29.7575 110.929 29.3472 111.432 28.8303C111.935 28.3147 112.315 27.7267 112.572 27.0661V27.0648ZM109.791 25.1009C109.762 25.5167 109.627 25.9078 109.387 26.2743C109.148 26.6408 108.817 26.9567 108.396 27.2234C107.975 27.4901 107.472 27.6446 106.886 27.6897L106.868 22.7638C107.582 22.7528 108.158 22.8609 108.597 23.0879C109.036 23.3149 109.352 23.6034 109.545 23.9535C109.737 24.3023 109.819 24.6852 109.791 25.1023V25.1009Z" fill="white"/>
<path d="M114.89 19.7461L111.397 31.8778L114.433 32.66L115.118 30.2969H118.347L118.786 32.1609L121.84 31.5619L119.207 19.7461H114.89V19.7461ZM115.961 27.3019L116.926 23.924L117.681 27.3019H115.961Z" fill="white"/>
<path d="M128.823 27.081L124.997 21.2223H121.838V31.5625V31.9728H124.997V27.2301L128.823 32.3899H131.981V20.957H128.823V27.081Z" fill="white"/>
<path d="M132.54 32.1846H139.752V29.1897H135.699V28.0737H138.262V25.0788H135.699V22.9317L139.857 22.9659V20.0037L132.54 19.9531V32.1846Z" fill="white"/>
<path d="M143.99 29.7138V18.5176H140.254V33.2558H147.6V29.7138H143.99Z" fill="white"/>
</svg>
