<svg width="21" height="22" viewBox="0 0 21 22" fill="none" xmlns="http://www.w3.org/2000/svg">
<ellipse cx="10.0902" cy="10.9995" rx="10.0902" ry="10.144" fill="#6FCDF8"/>
<path d="M13.9746 15.772H12.6796V13.783C12.6796 13.572 12.5886 13.3696 12.4267 13.2204C12.2648 13.0712 12.0452 12.9874 11.8162 12.9874H8.36292C8.13395 12.9874 7.91436 13.0712 7.75245 13.2204C7.59054 13.3696 7.49959 13.572 7.49959 13.783V15.772H6.20459V13.783C6.20528 13.2556 6.43289 12.7501 6.83751 12.3772C7.24212 12.0043 7.7907 11.7946 8.36292 11.7939H11.8162C12.3885 11.7946 12.937 12.0043 13.3417 12.3772C13.7463 12.7501 13.9739 13.2556 13.9746 13.783V15.772Z" fill="white"/>
<path d="M10.0895 10.9992C9.57725 10.9992 9.07651 10.8592 8.65058 10.597C8.22466 10.3347 7.89269 9.96194 7.69666 9.52581C7.50063 9.08967 7.44934 8.60976 7.54928 8.14676C7.64921 7.68377 7.89589 7.25847 8.2581 6.92467C8.62032 6.59087 9.08181 6.36355 9.58422 6.27145C10.0866 6.17935 10.6074 6.22662 11.0807 6.40727C11.5539 6.58793 11.9584 6.89385 12.243 7.28636C12.5276 7.67887 12.6795 8.14034 12.6795 8.61241C12.6788 9.24524 12.4057 9.85197 11.9202 10.2995C11.4346 10.7469 10.7762 10.9986 10.0895 10.9992ZM10.0895 7.419C9.83338 7.419 9.58301 7.48899 9.37004 7.62012C9.15708 7.75126 8.9911 7.93764 8.89309 8.15571C8.79507 8.37378 8.76943 8.61373 8.81939 8.84523C8.86936 9.07673 8.9927 9.28938 9.17381 9.45628C9.35491 9.62318 9.58566 9.73684 9.83687 9.78289C10.0881 9.82894 10.3485 9.80531 10.5851 9.71498C10.8217 9.62465 11.024 9.47169 11.1663 9.27543C11.3086 9.07918 11.3845 8.84844 11.3845 8.61241C11.3845 8.2959 11.2481 7.99235 11.0052 7.76854C10.7623 7.54473 10.433 7.419 10.0895 7.419Z" fill="white"/>
</svg>
