<svg width="20" height="20" viewBox="0 0 20 20" fill="none" xmlns="http://www.w3.org/2000/svg">
<circle cx="10" cy="10" r="10" fill="#6FCDF8"/>
<g clip-path="url(#clip0_526_3177)">
<path d="M10.2652 5.3103C10.2286 5.31191 10.1909 5.32273 10.1587 5.29395H10.2637C10.2613 5.2997 10.2617 5.30523 10.2652 5.3103Z" fill="#787878"/>
<path d="M13.6008 13.1222C13.5907 12.7431 13.5477 12.3652 13.5194 11.9866C13.4705 11.3303 13.4223 10.6739 13.3728 10.0176C13.3171 9.28199 13.2577 8.54666 13.2053 7.81086C13.177 7.41337 12.9194 7.15221 12.5378 7.1506C12.319 7.14968 12.1002 7.14599 11.8817 7.15267C11.801 7.1552 11.7845 7.12918 11.7817 7.04881C11.7503 6.15387 11.0909 5.40011 10.2654 5.3103C10.2318 5.29118 10.1919 5.31697 10.1588 5.29395H9.86136C9.85763 5.30845 9.84689 5.30961 9.83505 5.31145C8.96126 5.45009 8.35841 6.15249 8.32487 7.07506C8.32246 7.14208 8.30251 7.1529 8.24486 7.15198C8.01753 7.14829 7.78999 7.14945 7.56244 7.15083C7.18736 7.15313 6.92912 7.4159 6.9026 7.80948C6.8695 8.29817 6.83004 8.7864 6.79299 9.27462C6.74279 9.93696 6.69237 10.5993 6.64195 11.2616C6.60337 11.7683 6.56544 12.2749 6.52598 12.7816C6.50604 13.0381 6.48214 13.2942 6.54856 13.548C6.73336 14.2541 7.29017 14.7023 7.9886 14.705C8.31238 14.7062 8.63594 14.705 8.95972 14.705C10.0153 14.705 11.071 14.7071 12.1265 14.7043C12.9745 14.702 13.6244 14.0098 13.601 13.1222H13.6008ZM8.84683 7.06562C8.86809 6.42424 9.37119 5.88005 9.97667 5.84781C10.6133 5.81396 11.1585 6.27962 11.2459 6.93182C11.2654 7.07752 11.2058 7.15037 11.0673 7.15037H10.0613C9.68226 7.15037 9.30302 7.14806 8.92399 7.15244C8.85494 7.15313 8.84464 7.13171 8.84683 7.06562ZM12.127 14.153C11.436 14.1551 10.7452 14.1535 10.0543 14.1535C9.37207 14.1535 8.68987 14.1537 8.00789 14.1535C7.38378 14.153 6.97231 13.6622 7.03479 13.011C7.08214 12.5177 7.11151 12.0225 7.149 11.5281C7.19964 10.8598 7.25049 10.1917 7.30113 9.52334C7.34344 8.96487 7.38575 8.40641 7.42784 7.84817C7.43683 7.72933 7.46445 7.70193 7.58151 7.70193C7.80314 7.70147 8.02455 7.704 8.24617 7.70032C8.30492 7.69939 8.32575 7.71091 8.324 7.77839C8.31917 7.96815 8.32159 8.15815 8.32246 8.34791C8.32334 8.53146 8.43339 8.65812 8.58815 8.65605C8.74051 8.65397 8.84617 8.53007 8.84683 8.35044C8.8477 8.15446 8.84836 7.95848 8.84595 7.7625C8.84529 7.71529 8.85691 7.70078 8.90339 7.70078C9.66998 7.70239 10.4368 7.70262 11.2034 7.70032C11.2597 7.70032 11.2619 7.72473 11.2615 7.77056C11.2597 7.96354 11.2602 8.15653 11.2608 8.34929C11.2617 8.52961 11.3663 8.65305 11.5189 8.65582C11.6734 8.65858 11.7845 8.53169 11.7854 8.3486C11.7863 8.15561 11.7881 7.96262 11.7841 7.76987C11.7828 7.71114 11.7997 7.69962 11.8523 7.70032C12.0825 7.70331 12.3129 7.70101 12.5433 7.70193C12.6406 7.70239 12.6717 7.73486 12.6796 7.83803C12.762 8.93056 12.844 10.0229 12.9269 11.1154C12.9762 11.7653 13.0268 12.4152 13.077 13.0651C13.1237 13.6701 12.7053 14.1512 12.127 14.153Z" fill="white"/>
<path d="M9.69736 11.8609C9.618 11.8641 9.55377 11.8314 9.50006 11.7752C9.29356 11.559 9.08618 11.3436 8.88231 11.1249C8.76656 11.0007 8.76635 10.8358 8.87464 10.7239C8.98249 10.6124 9.13638 10.6173 9.25629 10.7398C9.37971 10.8658 9.5051 10.9901 9.61954 11.1246C9.68179 11.1976 9.7127 11.182 9.76992 11.1209C10.1237 10.7435 10.4819 10.3704 10.8382 9.99502C10.9228 9.9059 11.0181 9.8603 11.1376 9.9052C11.3064 9.96877 11.3656 10.174 11.2597 10.326C11.2459 10.3455 11.2303 10.364 11.2139 10.3812C10.777 10.8404 10.3399 11.2994 9.90298 11.7589C9.84533 11.8194 9.7811 11.8632 9.69758 11.8609H9.69736Z" fill="white"/>
</g>
<defs>
<clipPath id="clip0_526_3177">
<rect width="7.09647" height="9.41177" fill="white" transform="translate(6.50488 5.29395)"/>
</clipPath>
</defs>
</svg>
