<svg width="20" height="20" viewBox="0 0 20 20" fill="none" xmlns="http://www.w3.org/2000/svg">
<circle cx="10" cy="10" r="10" fill="#6FCDF8"/>
<path d="M14.192 9.45794C14.1913 9.01452 13.867 8.66879 13.4231 8.63195C13.3726 8.62783 13.3639 8.61227 13.3641 8.56697C13.3662 8.32398 13.3657 8.08099 13.365 7.83799C13.3639 7.36826 13.0562 7.02939 12.5878 6.98455C12.5461 6.98066 12.535 6.96968 12.5364 6.92963C12.5392 6.84681 12.5385 6.76375 12.5364 6.68092C12.5242 6.24939 12.169 5.88811 11.735 5.88628C10.6141 5.88124 9.49318 5.88216 8.37252 5.88605C8.01248 5.88719 7.69947 6.14117 7.60105 6.48667C7.56025 6.63013 7.5727 6.77565 7.5704 6.92094C7.5697 6.95618 7.57385 6.98043 7.52015 6.98546C7.05063 7.02985 6.74361 7.36848 6.74246 7.83777C6.74177 8.08076 6.74246 8.32375 6.74246 8.56674C6.74246 8.60061 6.74891 8.62692 6.69359 8.63241C6.21785 8.6784 5.91452 9.0152 5.91429 9.49181C5.91406 10.7411 5.91406 11.9901 5.91406 13.2394C5.91406 13.7709 6.26326 14.1178 6.79824 14.1178C7.88179 14.1178 8.96512 14.1178 10.0487 14.1178C11.1465 14.1178 12.2444 14.1187 13.3422 14.1174C13.8283 14.1169 14.1911 13.7618 14.1918 13.2824C14.1937 12.0075 14.1939 10.7326 14.1918 9.45771L14.192 9.45794ZM8.12059 6.9008C8.12681 6.84726 8.12174 6.79235 8.12197 6.73812C8.12289 6.54089 8.23238 6.43335 8.43314 6.43312C8.78648 6.43267 9.13983 6.43312 9.49341 6.43312C10.2059 6.43312 10.9186 6.43884 11.631 6.42969C11.8592 6.42672 12.0093 6.54799 11.986 6.78983C11.9821 6.82942 11.9811 6.87037 11.9864 6.90973C11.9947 6.97173 11.9701 6.98363 11.9111 6.9834C11.3996 6.98089 10.8881 6.98203 10.3769 6.98203H10.0494C9.4344 6.98203 8.81967 6.98089 8.20472 6.98363C8.13902 6.98386 8.11252 6.9699 8.12082 6.90103L8.12059 6.9008ZM7.29196 8.5434C7.29726 8.30911 7.29357 8.07481 7.29403 7.84028C7.29426 7.64053 7.4026 7.53094 7.60082 7.53094C9.23595 7.53071 10.8711 7.53071 12.506 7.53094C12.6998 7.53094 12.8123 7.64145 12.8128 7.83205C12.8135 8.07206 12.81 8.31231 12.8148 8.55233C12.8162 8.61845 12.7969 8.63035 12.7344 8.63012C11.8378 8.62806 10.9414 8.62875 10.0448 8.62875C9.14813 8.62875 8.26879 8.62783 7.38093 8.63058C7.3104 8.63058 7.29034 8.61616 7.29196 8.54363V8.5434ZM13.6409 13.2461C13.6409 13.4666 13.5367 13.5691 13.3129 13.5691C11.1405 13.5691 8.96811 13.5691 6.7957 13.5691C6.56798 13.5691 6.46633 13.4671 6.4661 13.239C6.4661 11.9929 6.4661 10.7468 6.4661 9.50073C6.4661 9.27993 6.56959 9.17788 6.79386 9.17788C7.87995 9.17788 8.96627 9.17788 10.0524 9.17788C11.1384 9.17788 12.2248 9.17788 13.3109 9.17788C13.5384 9.17788 13.6407 9.28016 13.6407 9.50782C13.6407 10.7539 13.6407 12 13.6407 13.2461H13.6409Z" fill="white"/>
</svg>
