<svg width="35" height="34" viewBox="0 0 35 34" fill="none" xmlns="http://www.w3.org/2000/svg">
<ellipse cx="17.7458" cy="17" rx="16.9098" ry="17" fill="#6FCDF8"/>
<path d="M29.024 18.0526C28.6673 16.0191 28.2857 13.9901 27.9166 11.9589C27.7389 10.9819 27.5611 10.0049 27.3804 9.02852C27.1037 7.53242 25.6409 6.83245 24.5086 7.03392C23.688 7.17986 22.8644 7.31265 22.0421 7.45344C18.6524 8.03265 15.261 8.60556 11.8719 9.18877C11.0792 9.32499 10.2781 9.42229 9.49604 9.6083C8.38926 9.87158 7.64746 10.8154 7.63917 11.9108C7.6368 12.2136 7.6765 12.5083 7.73812 12.8025C7.76656 12.9376 7.73456 13.0309 7.60244 13.1047C6.90092 13.4945 6.47018 14.0651 6.37598 14.8538V24.9178C6.4293 25.0803 6.41034 25.2549 6.4767 25.4163C6.82449 26.2622 7.4709 26.7579 8.38275 26.9462C8.57886 26.9868 8.77735 26.9937 8.97761 26.9937C13.7578 26.9925 18.5381 26.9799 23.3183 27C25.0164 27.0068 26.0597 25.7237 25.9993 24.4227C25.9572 23.5184 25.9898 22.6101 25.9922 21.7041C25.9928 21.4637 26.0177 21.4386 26.26 21.3956C26.5723 21.3401 26.8886 21.3006 27.1967 21.2262C28.0345 21.0236 28.6312 20.5394 28.9523 19.7622C29.1828 19.2047 29.1235 18.6232 29.0234 18.0532L29.024 18.0526ZM7.70494 15.5429C7.7239 15.3878 7.69783 15.2275 7.71975 15.073C7.7944 14.5522 8.21448 14.1847 8.77083 14.1401C8.83719 14.1349 8.90355 14.1361 8.96991 14.1361C13.7632 14.1361 18.5564 14.1361 23.3497 14.1361C24.0038 14.1361 24.4582 14.4514 24.5779 14.9969C24.6271 15.2218 24.591 15.4525 24.6004 15.6802C24.604 15.7598 24.5619 15.7764 24.492 15.7724C24.4405 15.7695 24.3889 15.7724 24.3368 15.7724C21.6042 15.7724 18.8716 15.7724 16.1391 15.7724C13.4065 15.7724 10.6739 15.7701 7.94134 15.7775C7.74345 15.7775 7.68242 15.73 7.70494 15.5435V15.5429ZM24.5998 24.4616C24.5998 25.2017 24.143 25.6401 23.3704 25.6407C18.5612 25.6412 13.7519 25.6412 8.94265 25.6407C8.16234 25.6407 7.70849 25.1988 7.70849 24.4422C7.70849 23.0222 7.71145 21.6017 7.70434 20.1817C7.70375 20.0209 7.74404 19.9837 7.90935 19.9837C10.6573 19.9894 13.4059 19.9877 16.1539 19.9877C18.9019 19.9877 21.6356 19.9894 24.3765 19.9831C24.5578 19.9831 24.6064 20.0203 24.6052 20.2012C24.5963 21.6211 24.601 23.0417 24.5998 24.4616ZM24.6052 17.2799C24.5892 17.6932 24.5951 18.1075 24.6028 18.5213C24.6052 18.6535 24.5797 18.7039 24.4251 18.7039C18.9137 18.6999 13.4017 18.6999 7.89039 18.7033C7.74819 18.7033 7.70138 18.6713 7.70494 18.5276C7.71501 18.1138 7.71797 17.6995 7.70434 17.2862C7.69842 17.1122 7.73989 17.0619 7.92949 17.0624C10.5299 17.0693 13.131 17.067 15.7314 17.067C15.879 17.067 16.0271 17.067 16.1746 17.067C18.9084 17.067 21.6421 17.0687 24.3753 17.063C24.556 17.063 24.6129 17.0979 24.6058 17.2805L24.6052 17.2799ZM26.8566 19.9121C26.6119 19.9642 26.3601 19.986 26.1178 20.0461C25.946 20.0884 25.9288 20.034 25.9294 19.8881C25.9347 18.7108 25.9341 17.5329 25.9318 16.3556C25.9306 15.8708 25.9715 15.3786 25.9045 14.9019C25.7321 13.6668 24.7124 12.8517 23.3971 12.85C21.0846 12.8477 18.7721 12.8495 16.4602 12.8495C14.1033 12.8495 11.7469 12.846 9.38998 12.8552C9.19031 12.8558 9.13817 12.7894 9.12099 12.6222C9.10322 12.4454 9.05286 12.272 9.0333 12.0951C8.96517 11.4753 9.34436 10.9859 9.97596 10.8783C13.2874 10.3157 16.6 9.75482 19.9115 9.19278C21.5023 8.92264 23.092 8.64734 24.6834 8.38006C25.3357 8.27074 25.8879 8.63246 26.0041 9.25631C26.3394 11.0586 26.6629 12.8626 26.9911 14.6655C27.2341 15.9985 27.4764 17.3314 27.7193 18.665C27.8266 19.2534 27.464 19.7828 26.8566 19.9127V19.9121Z" fill="white"/>
<path d="M11.2652 24.3377C10.7924 24.3377 10.3202 24.34 9.84734 24.3371C9.39942 24.3343 9.09843 24.0698 9.10258 23.6887C9.10673 23.3069 9.40712 23.0499 9.85801 23.0494C10.8107 23.0476 11.7629 23.0471 12.7156 23.0494C13.1564 23.0505 13.4669 23.3241 13.4627 23.6995C13.4592 24.071 13.1606 24.3331 12.7263 24.3366C12.2392 24.3406 11.7516 24.3377 11.2646 24.3377H11.2652Z" fill="white"/>
</svg>
