<svg width="32" height="32" viewBox="0 0 32 32" fill="none" xmlns="http://www.w3.org/2000/svg">
<rect width="32" height="32" rx="16" fill="url(#paint0_linear_2448_1926)"/>
<g filter="url(#filter0_d_2448_1926)">
<path d="M21.9702 19.5573C21.8177 18.7112 21.3042 18.1214 20.4373 17.8544C19.5755 17.5888 18.8027 17.7819 18.1459 18.3713C18.0849 18.426 18.0485 18.4288 17.9805 18.3891C16.8052 17.7003 15.6293 17.0139 14.4528 16.3299C14.3773 16.2861 14.3638 16.25 14.3918 16.1726C14.5532 15.7379 14.5532 15.2643 14.3918 14.8295C14.3648 14.7532 14.3732 14.716 14.4501 14.6715C15.624 13.99 16.7963 13.3058 17.967 12.6187C18.0434 12.5739 18.082 12.5704 18.1535 12.635C18.7139 13.1439 19.3815 13.3434 20.1502 13.2175C21.2384 13.0393 22.0565 12.0749 21.9936 11.0514C21.9251 9.9371 21.0269 9.06656 19.8828 9.0037C18.2908 8.91744 17.1066 10.3524 17.596 11.783C17.6295 11.8807 17.6098 11.9199 17.5224 11.9706C16.3599 12.6458 15.1997 13.3237 14.0416 14.0043C13.9531 14.0552 13.908 14.0486 13.8311 13.9819C13.1398 13.3821 12.339 13.2012 11.4583 13.518C10.5776 13.8348 10.0919 14.4684 10.0085 15.3502C9.92513 16.2319 10.4618 17.0602 11.3126 17.431C11.7279 17.613 12.1924 17.6706 12.6435 17.5961C13.0946 17.5216 13.5106 17.3186 13.8357 17.0144C13.9056 16.9498 13.9482 16.9409 14.0349 16.9918C15.1973 17.6753 16.3617 18.3556 17.528 19.0326C17.609 19.0792 17.6311 19.1171 17.599 19.2108C17.2385 20.2503 17.7609 21.3562 18.8162 21.8137C19.0196 21.9018 19.2395 21.9326 19.4486 22H19.9883C19.9945 21.9804 20.011 21.9789 20.0293 21.9771C21.2657 21.8432 22.179 20.717 21.9702 19.5573ZM19.7357 9.7778C20.1143 9.77618 20.4781 9.91619 20.7474 10.1672C21.0167 10.4181 21.1695 10.7595 21.1723 11.1166C21.1735 11.2944 21.1376 11.4707 21.0666 11.6353C20.9955 11.8 20.8907 11.9499 20.7582 12.0764C20.6257 12.2028 20.468 12.3034 20.2942 12.3724C20.1205 12.4413 19.934 12.4773 19.7455 12.4782C19.5569 12.4787 19.3701 12.4441 19.1958 12.3763C19.0214 12.3086 18.863 12.209 18.7296 12.0833C18.5962 11.9576 18.4904 11.8084 18.4184 11.644C18.3463 11.4797 18.3094 11.3036 18.3097 11.1257C18.3094 10.7687 18.4595 10.4261 18.7269 10.1734C18.9943 9.92063 19.3571 9.77834 19.7357 9.7778ZM12.2694 16.848C12.0808 16.85 11.8937 16.8168 11.7188 16.7502C11.5439 16.6836 11.3848 16.5851 11.2505 16.4602C11.1163 16.3353 11.0096 16.1865 10.9367 16.0225C10.8637 15.8585 10.826 15.6825 10.8255 15.5047C10.8232 15.1477 10.9714 14.8044 11.2374 14.5504C11.5034 14.2964 11.8655 14.1524 12.244 14.1501C12.4326 14.1483 12.6196 14.1817 12.7944 14.2483C12.9693 14.3149 13.1284 14.4135 13.2627 14.5384C13.3969 14.6632 13.5037 14.8119 13.5768 14.9758C13.6499 15.1397 13.6879 15.3156 13.6887 15.4935C13.6903 15.8504 13.5419 16.1934 13.2758 16.4473C13.0098 16.7012 12.6479 16.8453 12.2694 16.848ZM19.7398 21.2203C19.3613 21.2203 18.9983 21.0788 18.7303 20.8269C18.4622 20.575 18.311 20.2331 18.3097 19.8762C18.3087 19.6983 18.345 19.522 18.4165 19.3575C18.488 19.1929 18.5933 19.0432 18.7264 18.9172C18.8594 18.7912 19.0176 18.6912 19.1918 18.623C19.366 18.5549 19.5528 18.5199 19.7414 18.5201C19.9298 18.5206 20.1163 18.5561 20.2902 18.6246C20.4641 18.693 20.622 18.7932 20.7548 18.9192C20.8876 19.0453 20.9927 19.1948 21.0643 19.3592C21.1358 19.5237 21.1722 19.6998 21.1715 19.8775C21.1694 20.2343 21.0177 20.5758 20.7494 20.8274C20.4811 21.0791 20.1181 21.2203 19.7398 21.2203Z" fill="white"/>
</g>
<defs>
<filter id="filter0_d_2448_1926" x="10" y="9" width="12" height="13" filterUnits="userSpaceOnUse" color-interpolation-filters="sRGB">
<feFlood flood-opacity="0" result="BackgroundImageFix"/>
<feColorMatrix in="SourceAlpha" type="matrix" values="0 0 0 0 0 0 0 0 0 0 0 0 0 0 0 0 0 0 127 0" result="hardAlpha"/>
<feOffset/>
<feComposite in2="hardAlpha" operator="out"/>
<feColorMatrix type="matrix" values="0 0 0 0 0 0 0 0 0 0 0 0 0 0 0 0 0 0 0.25 0"/>
<feBlend mode="normal" in2="BackgroundImageFix" result="effect1_dropShadow_2448_1926"/>
<feBlend mode="normal" in="SourceGraphic" in2="effect1_dropShadow_2448_1926" result="shape"/>
</filter>
<linearGradient id="paint0_linear_2448_1926" x1="0.488136" y1="14.2545" x2="30.3379" y2="14.8162" gradientUnits="userSpaceOnUse">
<stop stop-color="#0597D9"/>
<stop offset="1" stop-color="#0597D9" stop-opacity="0.6"/>
</linearGradient>
</defs>
</svg>
