<svg width="336" height="309" viewBox="0 0 336 309" fill="none" xmlns="http://www.w3.org/2000/svg">
<g clip-path="url(#clip0_166_151)">
<path d="M109.13 308.04C106.53 307.8 104.38 306.52 102.9 304.1C71.9299 253.49 36.8699 205.68 2.16993 157.64C-1.00007 153.24 -0.720066 149.91 3.14993 146.07C9.86993 139.38 16.6199 132.73 23.3699 126.09C27.8899 121.64 30.5599 121.4 35.8199 125.07C58.8999 141.17 81.9999 157.25 104.99 173.48C107.45 175.22 108.48 174.79 110.17 172.62C139.47 135.13 171.17 99.7998 205.88 67.2398C231 43.6798 257.2 21.4398 286.07 2.5198C288.68 0.809799 291.33 -0.0302007 294.47 -0.0002007C305.44 0.119799 316.42 0.0697993 327.39 0.0297993C330.93 0.0197993 333.88 1.1398 335.27 4.5498C336.69 8.0498 335.61 11.0498 332.81 13.5998C290.34 52.2098 254.75 96.7998 221 142.94C183.48 194.22 149.02 247.52 116.99 302.39C115.21 305.45 113.2 307.96 109.13 308.05V308.04Z" fill="#EC1C24"/>
</g>
<defs>
<clipPath id="clip0_166_151">
<rect width="335.9" height="308.04" fill="white"/>
</clipPath>
</defs>
</svg>
