<svg width="211" height="160" viewBox="0 0 211 160" fill="none" xmlns="http://www.w3.org/2000/svg">
<path d="M158.999 1.555V111.468H47.8884V1.555H158.999ZM159.944 0.621094H46.9443V112.402H159.944V0.621094Z" fill="#0D90D8"/>
<path d="M99.5979 21.7297C99.858 22.3421 100.115 22.9572 100.367 23.5752C100.901 23.9443 101.432 24.3189 101.961 24.6964C102.56 24.9788 103.159 25.2612 103.759 25.5437C104.499 25.7673 105.24 25.9966 105.978 26.2259C106.464 26.8019 106.95 27.3779 107.43 27.9567C107.936 28.4656 108.442 28.9745 108.94 29.4862C109.336 30.1125 109.723 30.7388 110.107 31.3652C110.755 31.9244 111.396 32.4836 112.029 33.0484C112.62 33.5685 113.205 34.0942 113.793 34.6227C114.472 34.933 115.15 35.2406 115.825 35.5566C116.297 36.0683 116.77 36.5855 117.239 37.1028C117.787 37.5222 118.335 37.9445 118.881 38.3639C119.33 38.8895 119.783 39.4208 120.224 39.9549C120.252 40.117 120.28 40.282 120.308 40.4442C120.241 40.6483 120.173 40.8496 120.105 41.0509C120.201 41.0901 120.294 41.1264 120.393 41.1656C121.012 41.585 121.631 42.0072 122.247 42.4294C122.779 43.0921 123.31 43.7604 123.836 44.4287C124.317 45.1501 124.794 45.8743 125.266 46.5984C125.967 47.0878 126.665 47.5855 127.358 48.086C127.937 48.4495 128.517 48.813 129.091 49.1793C129.453 49.7385 129.803 50.2977 130.159 50.8569C130.207 51.6371 130.258 52.4228 130.303 53.2029C130.792 53.6419 131.276 54.0837 131.756 54.531C132.293 55.1015 132.833 55.6747 133.362 56.2451C134.057 56.6477 134.747 57.0531 135.434 57.4614C135.776 58.0989 136.118 58.7308 136.451 59.3683C137.042 59.7486 137.633 60.1317 138.218 60.5119C138.444 61.1271 138.667 61.7422 138.888 62.3574C139.32 62.7964 139.753 63.2382 140.182 63.68C140.383 64.2895 140.581 64.8991 140.779 65.5086C140.943 66.1154 141.107 66.7193 141.268 67.3289C141.717 67.7483 142.167 68.1677 142.613 68.5927C143.181 68.9087 143.744 69.2275 144.309 69.5434C144.583 70.2816 144.855 71.017 145.123 71.7524C145.655 72.3228 146.186 72.896 146.712 73.472C146.938 74.5205 147.161 75.5663 147.379 76.6148C147.079 75.9969 146.785 75.3817 146.483 74.7666C145.988 74.4394 145.488 74.1123 144.99 73.7879C144.422 73.1225 143.846 72.4626 143.266 71.8083C142.913 71.3246 142.557 70.8464 142.201 70.3683C141.562 69.9349 140.929 69.5071 140.287 69.0821C139.936 68.4501 139.583 67.8182 139.224 67.1891C138.763 66.6466 138.3 66.1098 137.833 65.5701C137.565 64.8348 137.294 64.1022 137.019 63.3696C136.494 62.9082 135.962 62.4469 135.431 61.9883C134.826 61.6052 134.221 61.225 133.616 60.8475C133.175 60.2938 132.729 59.7402 132.288 59.1866C131.499 58.9937 130.713 58.7979 129.925 58.605C129.616 57.9171 129.308 57.2265 128.995 56.5387C128.514 56.0437 128.039 55.5516 127.556 55.0623C127.231 54.5366 126.903 54.0138 126.575 53.4909C126.038 53.1442 125.501 52.7975 124.958 52.4591C124.5 52.0621 124.04 51.6678 123.573 51.2736C123.271 50.5186 122.963 49.7665 122.652 49.0143C122.047 48.5725 121.436 48.1335 120.826 47.6973C119.998 47.4932 119.166 47.2891 118.335 47.0906C117.832 46.4754 117.324 45.8687 116.815 45.2591C116.801 44.8033 116.786 44.3476 116.772 43.8946C116.36 43.2711 115.95 42.6503 115.534 42.0352C114.763 41.75 113.988 41.4732 113.211 41.1935C112.727 40.5448 112.241 39.9045 111.749 39.2642C111.526 38.5121 111.294 37.7599 111.065 37.0105C110.523 36.4681 109.974 35.9256 109.426 35.386C108.694 34.9973 107.959 34.6143 107.221 34.2312C106.783 33.5322 106.348 32.8331 105.904 32.1369C105.036 31.8433 104.171 31.5553 103.301 31.2729C102.925 30.8115 102.543 30.353 102.164 29.8916C101.882 29.2569 101.593 28.6222 101.311 27.9875C100.644 27.7861 99.9767 27.5904 99.3068 27.3975C98.716 27.0228 98.1253 26.6537 97.5317 26.2874C97.2688 25.5576 97.0087 24.8278 96.7374 24.1009C96.189 23.5752 95.6407 23.0495 95.0923 22.5266C94.7248 21.7745 94.3489 21.0251 93.9758 20.273C93.1674 20.1835 92.3618 20.094 91.5562 20.0101C91.2962 19.3391 91.0333 18.668 90.7704 17.9969C90.1486 17.4377 89.5267 16.8841 88.902 16.3304C88.2604 15.8495 87.6216 15.3714 86.9799 14.896C86.327 14.4263 85.6712 13.9537 85.0183 13.4896C84.8006 13.2882 84.5858 13.0869 84.3682 12.8828C84.9759 13.1848 85.5808 13.4896 86.1828 13.7943C86.9489 13.8782 87.7149 13.9621 88.478 14.0488C88.9897 14.4626 89.4928 14.8792 90.0016 15.2959C90.6206 15.4888 91.2425 15.6761 91.8643 15.8719C92.4805 16.3332 93.0995 16.7974 93.7101 17.2615C94.1228 17.8543 94.5298 18.4499 94.9368 19.0483C95.5361 19.4229 96.1268 19.806 96.7204 20.1863C97.6815 20.6952 98.6369 21.2097 99.5894 21.7269L99.5979 21.7297Z" fill="#0E9CD2"/>
<path d="M85.1504 13.5203C85.8118 13.9174 86.4732 14.3172 87.1318 14.7199C87.7763 15.1952 88.4179 15.6761 89.0567 16.1571C89.6814 16.7079 90.3089 17.2671 90.9279 17.8208C91.1626 18.517 91.3943 19.216 91.6233 19.9123C92.4317 19.9934 93.2401 20.0772 94.0485 20.1611C94.4527 20.8881 94.8513 21.6179 95.2527 22.3505C95.801 22.8734 96.3522 23.4018 96.8977 23.9247C97.1663 24.6517 97.432 25.3787 97.692 26.1085C98.2856 26.4804 98.8792 26.8494 99.4671 27.2241C100.137 27.4171 100.804 27.6156 101.474 27.8113C101.762 28.446 102.045 29.0807 102.328 29.7155C102.709 30.174 103.088 30.6354 103.467 31.0995C104.337 31.3847 105.202 31.6755 106.07 31.9635C106.514 32.6626 106.952 33.3588 107.39 34.0634C108.128 34.4437 108.863 34.8296 109.598 35.2154C110.146 35.7579 110.692 36.2975 111.237 36.84C111.466 37.5949 111.698 38.3443 111.921 39.0937C112.413 39.7368 112.896 40.3799 113.382 41.023C114.16 41.3026 114.931 41.585 115.706 41.8674C116.119 42.4854 116.534 43.1033 116.944 43.7268C116.958 44.1826 116.972 44.6356 116.986 45.0913C117.498 45.7009 118.007 46.3104 118.51 46.9228C119.338 47.1241 120.172 47.3254 121.003 47.5323C121.611 47.9685 122.221 48.4103 122.829 48.8493C123.14 49.6015 123.445 50.3536 123.75 51.1086C124.214 51.5028 124.678 51.8971 125.136 52.2941C125.675 52.6353 126.215 52.9792 126.75 53.3231C127.077 53.846 127.408 54.3689 127.733 54.8973C128.214 55.3867 128.691 55.8788 129.172 56.3709C129.483 57.0615 129.797 57.7494 130.102 58.4428C130.89 58.633 131.676 58.8287 132.462 59.0244C132.909 59.578 133.352 60.1261 133.793 60.6853C134.398 61.0656 135.006 61.4486 135.608 61.8317C136.142 62.2903 136.671 62.7544 137.197 63.213C137.474 63.9456 137.745 64.681 138.016 65.4163C138.48 65.956 138.943 66.4929 139.407 67.0353C139.763 67.6672 140.119 68.2963 140.47 68.9283C141.109 69.3561 141.747 69.7839 142.381 70.2173C142.74 70.6982 143.096 71.1764 143.449 71.6601C144.029 72.3144 144.605 72.9743 145.176 73.6369C145.671 73.9641 146.171 74.2912 146.669 74.6212C146.912 75.2839 147.146 75.9493 147.384 76.6148C147.084 75.9969 146.79 75.3817 146.488 74.7666C145.993 74.4394 145.493 74.1123 144.995 73.7879C144.427 73.1225 143.85 72.4626 143.271 71.8083C142.918 71.3246 142.562 70.8464 142.205 70.3683C141.567 69.9349 140.933 69.5071 140.292 69.0821C139.941 68.4501 139.588 67.8182 139.229 67.1891C138.768 66.6466 138.305 66.1098 137.838 65.5701C137.57 64.8348 137.298 64.1022 137.024 63.3696C136.498 62.9082 135.967 62.4469 135.436 61.9883C134.831 61.6052 134.226 61.225 133.621 60.8475C133.18 60.2938 132.733 59.7402 132.292 59.1866C131.504 58.9937 130.718 58.7979 129.929 58.605C129.621 57.9171 129.313 57.2265 128.999 56.5387C128.519 56.0437 128.044 55.5516 127.561 55.0623C127.236 54.5366 126.908 54.0138 126.58 53.4909C126.043 53.1442 125.506 52.7975 124.963 52.4591C124.505 52.0621 124.044 51.6678 123.578 51.2736C123.276 50.5186 122.968 49.7665 122.657 49.0143C122.052 48.5725 121.441 48.1335 120.831 47.6973C120.002 47.4932 119.171 47.2891 118.34 47.0906C117.837 46.4754 117.328 45.8687 116.82 45.2591C116.806 44.8033 116.791 44.3476 116.777 43.8946C116.365 43.2711 115.955 42.6503 115.539 42.0352C114.768 41.75 113.993 41.4732 113.216 41.1935C112.732 40.5448 112.246 39.9045 111.754 39.2642C111.531 38.5121 111.299 37.7599 111.07 37.0105C110.528 36.4681 109.979 35.9256 109.431 35.386C108.699 34.9973 107.964 34.6143 107.226 34.2312C106.788 33.5322 106.353 32.8331 105.909 32.1369C105.041 31.8433 104.176 31.5553 103.306 31.2729C102.93 30.8115 102.548 30.353 102.169 29.8916C101.887 29.2569 101.598 28.6222 101.316 27.9875C100.649 27.7861 99.9816 27.5904 99.3117 27.3975C98.7209 27.0228 98.1301 26.6537 97.5365 26.2874C97.2737 25.5576 97.0136 24.8278 96.7423 24.1009C96.1939 23.5752 95.6455 23.0495 95.0972 22.5266C94.7297 21.7745 94.3538 21.0251 93.9807 20.273C93.1723 20.1835 92.3667 20.094 91.5611 20.0101C91.3011 19.3391 91.0382 18.668 90.7753 17.9969C90.1535 17.4377 89.5316 16.8841 88.9069 16.3304C88.2653 15.8495 87.6265 15.3714 86.9848 14.896C86.3319 14.4263 85.6761 13.9537 85.0232 13.4896C84.8055 13.2882 84.5907 13.0869 84.373 12.8828C84.6303 13.0953 84.8903 13.305 85.1504 13.5203Z" fill="white"/>
<path d="M143.396 96.4352C143.334 96.2647 143.266 96.0941 143.201 95.9263C142.669 94.7883 142.135 93.6531 141.592 92.5235C141.231 91.8356 140.863 91.1478 140.496 90.4655C139.885 90.0852 139.275 89.7078 138.664 89.3359C138.407 88.2566 138.152 87.1773 137.887 86.1008C137.46 85.1976 137.03 84.2945 136.592 83.3969C135.973 82.7846 135.354 82.1778 134.729 81.571C134.622 80.5616 134.515 79.5467 134.399 78.5345C133.986 77.9109 133.57 77.2902 133.149 76.6722C132.802 75.9984 132.448 75.3245 132.092 74.6506C131.371 74.3738 130.648 74.1054 129.93 73.8342C129.735 73.0569 129.54 72.2823 129.336 71.5078C128.743 71.0688 128.146 70.6298 127.547 70.1936C127.324 69.4219 127.095 68.6474 126.866 67.8784C126.422 67.2325 125.973 66.5838 125.52 65.9407C124.737 65.6443 123.949 65.3507 123.163 65.06C122.713 64.4252 122.258 63.7877 121.803 63.1558C121.492 62.261 121.176 61.3691 120.856 60.4743C119.864 60.2059 118.875 59.9403 117.883 59.6802C117.563 58.7715 117.244 57.8655 116.916 56.9568C116.226 56.364 115.531 55.7768 114.839 55.1896C114.595 54.4319 114.35 53.6713 114.104 52.9164C113.92 52.0832 113.739 51.2527 113.552 50.4195C112.668 50.1007 111.786 49.7875 110.898 49.4744C110.644 48.6887 110.384 47.9002 110.121 47.1144C109.547 46.5944 108.971 46.0827 108.388 45.571C107.894 45.0118 107.396 44.4553 106.893 43.9017C106.373 43.1971 105.853 42.4953 105.327 41.799C104.629 41.3964 103.925 40.9993 103.221 40.6051C102.63 39.9843 102.037 39.3748 101.443 38.7652C100.72 38.3262 99.9989 37.8928 99.2753 37.4594C98.6845 37.0428 98.0937 36.6346 97.5002 36.2208C96.8161 35.8209 96.1293 35.4211 95.4424 35.0268C94.9308 34.5123 94.4135 34.0006 93.8934 33.4917C93.4412 32.6669 92.9833 31.8448 92.5253 31.0256C91.6208 30.5279 90.7163 30.0357 89.809 29.5464C89.009 29.3143 88.2035 29.0851 87.3979 28.853C86.7421 28.428 86.0863 28.003 85.4306 27.5835C84.8879 26.974 84.3395 26.3616 83.7883 25.7549C82.9884 25.5228 82.1856 25.2907 81.3829 25.0614C80.8091 24.4854 80.2296 23.9094 79.6502 23.339C78.952 22.942 78.251 22.5505 77.5443 22.1619C76.6426 22.064 75.7438 21.9661 74.8364 21.8739C74.3842 21.2867 73.9263 20.7051 73.4627 20.1207C72.8465 19.76 72.2303 19.4021 71.6113 19.0442C70.899 18.9267 70.1839 18.8093 69.4659 18.6975C68.3833 18.0012 67.2979 17.3162 66.2012 16.6367C67.1566 17.6433 68.1035 18.6583 69.0419 19.6789C69.8758 20.0256 70.7096 20.3723 71.5378 20.7219C71.9166 21.5187 72.2897 22.3128 72.6571 23.1097C73.6408 23.6438 74.6245 24.1835 75.6025 24.7287C76.1084 25.1118 76.6144 25.4948 77.1203 25.8807C77.632 26.2554 78.1379 26.6301 78.6467 27.0019C79.277 27.4018 79.913 27.8072 80.5405 28.2155C81.1426 28.6572 81.7418 29.1018 82.3383 29.5492C82.6944 30.1196 83.0506 30.6928 83.4011 31.266C84.136 31.7358 84.8709 32.2027 85.6002 32.6781C85.9987 33.3435 86.3916 34.0062 86.7845 34.6773C87.3046 35.2701 87.8219 35.8656 88.3335 36.4612C89.1504 36.6122 89.9644 36.766 90.7785 36.917C91.2845 37.5377 91.7819 38.1529 92.2823 38.7736C92.9861 39.0644 93.6871 39.3608 94.3909 39.6572C94.7188 40.4121 95.041 41.1615 95.3604 41.9165C95.9992 42.2716 96.6352 42.6323 97.2712 42.9958C97.4917 43.5074 97.7093 44.0247 97.927 44.5392C98.6336 44.7349 99.3346 44.9335 100.041 45.1348C100.471 45.7024 100.895 46.2728 101.319 46.8432C102.274 47.1871 103.227 47.5367 104.179 47.8946C104.488 48.8704 104.79 49.8463 105.087 50.8249C105.737 51.7504 106.384 52.6843 107.02 53.6182C107.667 54.046 108.315 54.4738 108.956 54.9072C109.191 55.7041 109.417 56.4982 109.646 57.2951C110.226 57.7397 110.808 58.1899 111.387 58.6429C112.009 59.0707 112.628 59.5013 113.247 59.9347C113.688 60.7232 114.126 61.5145 114.559 62.3086C115.093 63.0272 115.624 63.7486 116.15 64.4728C117.077 64.8055 118.007 65.141 118.934 65.485C119.24 66.3937 119.545 67.3024 119.842 68.2112C120.235 69.0221 120.625 69.8357 121.009 70.6522C121.823 71.1359 122.637 71.6169 123.446 72.109C123.85 72.9478 124.251 73.7866 124.647 74.6283C125.334 75.2015 126.023 75.7831 126.707 76.3619C127.222 76.7729 127.731 77.1839 128.242 77.595C128.74 78.1039 129.234 78.6211 129.726 79.1356C130.162 79.6641 130.597 80.1926 131.032 80.7266C130.995 81.4033 130.959 82.0743 130.922 82.751C131.32 83.2291 131.716 83.7101 132.112 84.1882C132.626 84.7083 133.138 85.2312 133.647 85.7596C134.204 86.2825 134.755 86.8082 135.309 87.3339C135.563 88.0469 135.818 88.7599 136.066 89.4757C136.521 89.9986 136.974 90.5242 137.426 91.0499C138.155 91.3463 138.882 91.6483 139.605 91.953C140.216 92.4172 140.826 92.8897 141.434 93.3623C142.098 94.3773 142.757 95.4035 143.407 96.4324L143.396 96.4352Z" fill="#0E9CD2"/>
<path d="M69.1856 19.4901C70.0194 19.8341 70.8532 20.1836 71.6814 20.5359C72.0602 21.3328 72.4333 22.1269 72.798 22.9266C73.7844 23.4606 74.7681 23.9975 75.7461 24.5455C76.2549 24.9286 76.7609 25.3117 77.2668 25.7003C77.7784 26.075 78.2872 26.4469 78.796 26.8216C79.4263 27.2242 80.0595 27.6269 80.6927 28.0351C81.2919 28.4769 81.8911 28.9215 82.4876 29.3716C82.8437 29.942 83.1999 30.5152 83.5532 31.0912C84.2881 31.5582 85.0202 32.0252 85.7523 32.5005C86.1508 33.1688 86.5466 33.8342 86.9395 34.5025C87.4596 35.0953 87.9768 35.6909 88.4941 36.2892C89.3082 36.4374 90.1194 36.5912 90.9334 36.745C91.4366 37.3629 91.9397 37.9837 92.44 38.6016C93.141 38.898 93.8477 39.1916 94.5487 39.488C94.8766 40.2402 95.1988 40.9923 95.521 41.7445C96.1598 42.1052 96.7958 42.4603 97.4318 42.8238C97.6523 43.3411 97.8699 43.8555 98.0876 44.3728C98.7971 44.5686 99.4981 44.7643 100.202 44.9684C100.634 45.536 101.061 46.1064 101.482 46.6768C102.441 47.0208 103.393 47.3759 104.343 47.7282C104.654 48.7068 104.956 49.6799 105.256 50.6613C105.906 51.5896 106.55 52.5235 107.189 53.4574C107.837 53.8824 108.484 54.313 109.125 54.7464C109.357 55.5461 109.583 56.3402 109.812 57.1371C110.392 57.5845 110.977 58.0347 111.554 58.4848C112.175 58.9127 112.797 59.3433 113.413 59.7767C113.854 60.568 114.293 61.3593 114.728 62.1534C115.262 62.8748 115.793 63.5962 116.322 64.3204C117.218 64.6727 118.111 65.0278 119.004 65.3885C119.344 66.2804 119.683 67.1696 120.014 68.0616C120.409 68.8752 120.797 69.6861 121.181 70.5026C121.967 70.9891 122.753 71.4812 123.536 71.9761C123.968 72.8094 124.398 73.6426 124.819 74.4787C125.511 75.0547 126.198 75.6335 126.879 76.2179C127.346 76.6373 127.809 77.0567 128.273 77.4789C128.816 77.9794 129.358 78.4855 129.901 78.9916C130.308 79.5285 130.715 80.0681 131.119 80.6106C131.114 81.2732 131.105 81.9415 131.094 82.6098C131.495 83.0879 131.894 83.5689 132.287 84.0442C132.801 84.5643 133.313 85.09 133.824 85.6184C134.344 86.1609 134.862 86.7089 135.379 87.2625C135.67 87.9504 135.958 88.6438 136.244 89.3373C136.628 89.8517 137.01 90.3662 137.392 90.8863C138.191 91.1883 138.989 91.4987 139.786 91.809C140.359 92.3011 140.93 92.7933 141.499 93.2882C142.135 94.3339 142.768 95.3853 143.392 96.4422C142.742 95.4104 142.084 94.3871 141.419 93.3721C140.812 92.8995 140.201 92.427 139.591 91.9628C138.867 91.658 138.141 91.3561 137.411 91.0597C136.959 90.534 136.507 90.0083 136.052 89.4855C135.803 88.7724 135.549 88.0594 135.294 87.3436C134.74 86.818 134.189 86.2923 133.632 85.7694C133.123 85.2437 132.612 84.7209 132.097 84.198C131.702 83.7198 131.303 83.2389 130.907 82.7608C130.944 82.0841 130.981 81.413 131.018 80.7364C130.585 80.2023 130.15 79.6739 129.712 79.1454C129.217 78.6309 128.722 78.1136 128.228 77.6047C127.716 77.1909 127.207 76.7799 126.693 76.3716C126.009 75.79 125.322 75.2113 124.632 74.638C124.234 73.7964 123.835 72.9576 123.431 72.1187C122.623 71.6294 121.808 71.1457 120.994 70.662C120.61 69.8427 120.22 69.0318 119.827 68.2209C119.53 67.3094 119.228 66.4035 118.92 65.4947C117.995 65.1508 117.065 64.8153 116.135 64.4825C115.61 63.7583 115.078 63.0369 114.544 62.3183C114.112 61.5242 113.673 60.7329 113.233 59.9444C112.614 59.511 111.994 59.0804 111.373 58.6526C110.793 58.1996 110.211 57.7495 109.631 57.3049C109.402 56.508 109.174 55.7139 108.942 54.917C108.3 54.4836 107.656 54.0558 107.006 53.628C106.367 52.6941 105.722 51.7602 105.072 50.8347C104.775 49.856 104.473 48.8802 104.165 47.9043C103.212 47.5464 102.26 47.1969 101.304 46.853C100.88 46.2798 100.453 45.7122 100.027 45.1446C99.32 44.9432 98.619 44.7475 97.9123 44.549C97.6947 44.0345 97.477 43.5172 97.2566 43.0055C96.6206 42.6448 95.9846 42.2813 95.3458 41.9262C95.0264 41.1741 94.7013 40.4219 94.3763 39.667C93.6753 39.3706 92.9714 39.0742 92.2676 38.7834C91.7673 38.1626 91.2698 37.5447 90.7639 36.9268C89.9498 36.773 89.1357 36.622 88.3188 36.471C87.8072 35.8754 87.29 35.2798 86.7699 34.6871C86.377 34.016 85.9841 33.3533 85.5855 32.6878C84.8563 32.2125 84.1213 31.7455 83.3864 31.2758C83.0331 30.7026 82.6798 30.1294 82.3236 29.559C81.7272 29.1116 81.128 28.6642 80.5259 28.2252C79.8984 27.817 79.2652 27.4143 78.6321 27.0117C78.1233 26.637 77.6173 26.2651 77.1057 25.8905C76.5997 25.5046 76.0938 25.1215 75.5878 24.7385C74.6098 24.1932 73.6261 23.6536 72.6425 23.1195C72.2722 22.3226 71.9019 21.5285 71.5232 20.7316C70.695 20.3793 69.8639 20.0326 69.0273 19.6887C68.0888 18.6681 67.1419 17.6531 66.1865 16.6465C67.1928 17.5888 68.1934 18.5423 69.1827 19.4985L69.1856 19.4901Z" fill="white"/>
<path d="M129.524 99.0204C128.399 97.7929 127.266 96.5738 126.127 95.3631C125.714 94.6389 125.296 93.9147 124.88 93.1933C124.292 92.6089 123.71 92.0273 123.119 91.4457C122.356 91.0123 121.59 90.5789 120.824 90.1511C120.389 89.3626 119.948 88.5741 119.501 87.7912C119.077 87.0949 118.653 86.4043 118.221 85.7108C117.415 85.4704 116.609 85.2327 115.798 84.9978C115.408 84.2653 115.015 83.5355 114.62 82.8057C114.006 82.2632 113.39 81.7264 112.774 81.1895C112.593 80.2976 112.406 79.414 112.22 78.522C111.505 78.1557 110.795 77.7922 110.077 77.4315C109.39 77.0764 108.701 76.7269 108.011 76.3774C107.383 75.9132 106.753 75.4547 106.126 74.9933C105.232 74.4341 104.336 73.8777 103.44 73.3296C103.09 72.5355 102.734 71.7414 102.38 70.9501C102.191 69.9938 101.999 69.0404 101.804 68.0841C100.783 67.5668 99.7601 67.0551 98.7397 66.5518C98.5503 65.7745 98.3581 65.0028 98.1687 64.2255C97.315 63.8396 96.4586 63.4593 95.6049 63.079C94.692 62.7826 93.7733 62.4947 92.8575 62.2094C92.1819 61.7033 91.5064 61.2 90.828 60.6995C90.0846 60.2242 89.3355 59.76 88.5865 59.2875C88.6289 58.1942 88.6656 57.1009 88.6939 56.0049C88.007 55.2695 87.3174 54.5341 86.6248 53.8043C85.6807 53.3905 84.7367 52.985 83.7897 52.5824C82.9531 51.9896 82.1079 51.4052 81.2628 50.8208C80.5872 50.5161 79.9145 50.2085 79.2361 49.9093C79.1174 49.0229 78.9958 48.1394 78.8715 47.2558C78.5351 46.5204 78.1959 45.7906 77.851 45.0552C77.4158 44.4317 76.9805 43.8054 76.5452 43.1818C75.7481 42.9414 74.951 42.7093 74.151 42.4772C73.3681 41.9487 72.5851 41.4203 71.7993 40.8974C71.1548 40.2096 70.5075 39.5245 69.8546 38.8423C69.1253 38.5291 68.3932 38.2103 67.6611 37.9C67.2202 37.2457 66.7736 36.597 66.327 35.9455C65.8634 35.3164 65.3914 34.6872 64.9222 34.0609C64.0629 33.8959 63.2036 33.7309 62.3415 33.5744C61.615 32.3636 60.8801 31.1613 60.1367 29.959C61.126 30.672 62.1097 31.3906 63.0933 32.1148C64.1166 32.414 65.137 32.7243 66.1574 33.0375C67.1524 33.9323 68.1417 34.8298 69.1253 35.7386C70.1542 36.1636 71.1831 36.597 72.2063 37.036C72.4635 37.6959 72.7179 38.3585 72.9667 39.0212C73.9051 39.1694 74.8379 39.3204 75.7735 39.4826C76.7854 39.7622 77.7973 40.0474 78.8064 40.341C79.5357 41.1714 80.2593 42.0131 80.9829 42.8547C81.5341 43.7215 82.0797 44.5855 82.6195 45.4551C83.4816 45.7347 84.3409 46.0199 85.1974 46.3079C85.4688 47.1048 85.7373 47.9073 86.0002 48.7042C86.8736 49.0509 87.7442 49.4004 88.6148 49.7555C89.2338 50.407 89.8528 51.0585 90.469 51.7156C91.3283 52.0288 92.1904 52.3475 93.0525 52.6663C93.2928 53.6617 93.5274 54.6627 93.7592 55.6637C94.1097 56.058 94.4602 56.455 94.8107 56.8549C95.2488 57.5455 95.6784 58.239 96.1166 58.938C96.8684 58.8653 97.626 58.7926 98.3778 58.7255C99.5452 59.3826 100.707 60.048 101.869 60.7219C102.587 61.4153 103.299 62.1144 104.011 62.8162C104.596 63.546 105.181 64.2786 105.764 65.014C106.42 65.5368 107.072 66.0625 107.725 66.5854C108.076 67.5444 108.424 68.5035 108.76 69.4598C109.475 69.9966 110.187 70.5363 110.9 71.0815C111.878 71.4786 112.856 71.8812 113.831 72.2923C114.374 73.1115 114.913 73.9308 115.451 74.7528C115.818 75.7203 116.177 76.6906 116.533 77.6608C117.087 78.1697 117.644 78.6814 118.201 79.1959C118.721 79.7243 119.241 80.2556 119.758 80.7869C120.114 81.4719 120.471 82.1626 120.821 82.8532C121.293 83.4376 121.771 84.022 122.24 84.6092C122.503 85.2802 122.76 85.9541 123.015 86.628C123.3 87.3857 123.583 88.1491 123.86 88.9124C124.682 89.3654 125.502 89.8184 126.322 90.2797C126.508 91.2807 126.692 92.2817 126.87 93.2827C127.775 95.1925 128.656 97.105 129.521 99.026L129.524 99.0204Z" fill="#0E9CD2"/>
<path d="M62.5107 33.3703C63.3728 33.5324 64.2292 33.6946 65.0885 33.8624C65.5606 34.4859 66.0298 35.115 66.4962 35.7442C66.9428 36.3984 67.3865 37.0472 67.8303 37.7014C68.5624 38.0146 69.2945 38.3278 70.0266 38.6465C70.6795 39.326 71.3297 40.0138 71.9713 40.7017C72.7571 41.2246 73.5457 41.7502 74.3259 42.2815C75.1201 42.5136 75.9201 42.7484 76.7143 42.9861C77.1525 43.6124 77.5906 44.2388 78.0231 44.8651C78.3651 45.5977 78.7071 46.3303 79.0406 47.0657C79.1678 47.952 79.2922 48.8356 79.4109 49.7192C80.0865 50.0212 80.762 50.3231 81.4348 50.6307C82.2799 51.2151 83.1251 51.8051 83.9646 52.3979C84.9087 52.8005 85.8556 53.2059 86.7997 53.6198C87.495 54.3523 88.1819 55.0849 88.8687 55.8259C88.8377 56.9192 88.8009 58.0153 88.7613 59.1113C89.5132 59.5755 90.2594 60.0452 91.0028 60.5178C91.6869 61.0183 92.3624 61.5216 93.0352 62.0249C93.951 62.3129 94.8668 62.6037 95.7826 62.9001C96.6363 63.2804 97.4899 63.6606 98.3464 64.0465C98.5386 64.821 98.7308 65.5955 98.9202 66.3729C99.9434 66.8762 100.967 67.3879 101.987 67.9023C102.182 68.8586 102.374 69.8149 102.564 70.7712C102.92 71.5625 103.273 72.3566 103.624 73.1507C104.522 73.7015 105.419 74.2579 106.309 74.8144C106.939 75.2785 107.567 75.7371 108.194 76.2012C108.887 76.5508 109.576 76.9003 110.263 77.2554C110.978 77.6189 111.694 77.9824 112.4 78.3515C112.592 79.2378 112.776 80.127 112.96 81.019C113.576 81.5558 114.192 82.0955 114.808 82.6323C115.204 83.3649 115.597 84.0975 115.987 84.8273C116.796 85.0621 117.601 85.2998 118.41 85.5431C118.836 86.2309 119.266 86.9272 119.69 87.6206C120.137 88.4091 120.575 89.192 121.013 89.9833C121.782 90.4111 122.545 90.8417 123.311 91.2807C123.899 91.8595 124.49 92.4411 125.075 93.0255C125.493 93.7469 125.906 94.4739 126.321 95.1981C127.395 96.4647 128.461 97.7398 129.512 99.0204C128.388 97.7929 127.254 96.5738 126.115 95.3631C125.702 94.6389 125.284 93.9147 124.868 93.1933C124.28 92.6089 123.698 92.0273 123.107 91.4457C122.344 91.0123 121.578 90.5789 120.812 90.1511C120.377 89.3626 119.936 88.5741 119.489 87.7912C119.065 87.0949 118.641 86.4043 118.209 85.7108C117.403 85.4704 116.598 85.2327 115.786 84.9978C115.396 84.2653 115.004 83.5355 114.608 82.8057C113.994 82.2632 113.378 81.7264 112.762 81.1895C112.581 80.2976 112.395 79.414 112.208 78.522C111.493 78.1557 110.783 77.7922 110.065 77.4315C109.379 77.0764 108.689 76.7269 107.999 76.3774C107.372 75.9132 106.741 75.4547 106.114 74.9933C105.221 74.4341 104.325 73.8777 103.429 73.3296C103.078 72.5355 102.722 71.7414 102.369 70.9501C102.179 69.9938 101.987 69.0404 101.792 68.0841C100.772 67.5668 99.7483 67.0551 98.7279 66.5518C98.5386 65.7745 98.3463 65.0028 98.157 64.2255C97.3033 63.8396 96.4469 63.4593 95.5932 63.079C94.6802 62.7826 93.7616 62.4947 92.8458 62.2094C92.1702 61.7033 91.4947 61.2 90.8163 60.6995C90.0729 60.2242 89.3238 59.76 88.5748 59.2875C88.6172 58.1942 88.6539 57.1009 88.6822 56.0049C87.9953 55.2695 87.3056 54.5341 86.6131 53.8043C85.669 53.3905 84.7249 52.985 83.778 52.5824C82.9414 51.9896 82.0962 51.4052 81.251 50.8208C80.5755 50.5161 79.9028 50.2085 79.2244 49.9093C79.1056 49.0229 78.9841 48.1394 78.8597 47.2558C78.5234 46.5204 78.1842 45.7906 77.8393 45.0552C77.404 44.4317 76.9687 43.8054 76.5334 43.1818C75.7363 42.9414 74.9392 42.7093 74.1393 42.4772C73.3563 41.9487 72.5734 41.4203 71.7876 40.8974C71.1431 40.2096 70.4958 39.5245 69.8429 38.8423C69.1136 38.5291 68.3815 38.2103 67.6494 37.9C67.2085 37.2457 66.7619 36.597 66.3153 35.9455C65.8517 35.3164 65.3797 34.6872 64.9104 34.0609C64.0512 33.8959 63.1919 33.7309 62.3297 33.5744C61.6033 32.3636 60.8684 31.1613 60.125 29.959C60.9249 31.0914 61.7192 32.2294 62.4993 33.3675L62.5107 33.3703Z" fill="white"/>
<path d="M112.027 101.157C111.114 100.231 110.196 99.3143 109.271 98.4083C108.946 97.8435 108.618 97.2843 108.288 96.7223C107.816 96.2833 107.341 95.8471 106.866 95.4137C106.241 95.1033 105.614 94.7985 104.989 94.4994C104.647 93.8814 104.305 93.2691 103.957 92.6539C103.624 92.1143 103.29 91.5746 102.954 91.0378C102.29 90.8896 101.628 90.7358 100.964 90.5932C100.664 90.0172 100.362 89.444 100.057 88.8708C99.5647 88.4625 99.0701 88.0543 98.5811 87.6516C98.4087 87.2099 98.2306 86.7681 98.0553 86.3235C97.6398 85.9153 97.23 85.507 96.8144 85.0988C96.4837 85.0932 96.1502 85.0932 95.8167 85.0876C95.3163 84.7353 94.816 84.3886 94.3129 84.0419C93.6006 83.6252 92.8826 83.2086 92.1647 82.8004C91.9103 82.1629 91.6559 81.5281 91.3958 80.8934C90.6666 79.7778 89.9288 78.6677 89.1798 77.5632C88.476 77.306 87.7721 77.0543 87.0711 76.8083C86.9496 76.1764 86.8309 75.55 86.7065 74.9237C86.0225 74.6441 85.3356 74.3673 84.6516 74.0905C84.3859 73.425 84.1173 72.7595 83.846 72.094C83.3118 71.7054 82.7804 71.3139 82.2433 70.9308C81.6525 70.5673 81.059 70.2066 80.4682 69.8515C80.2449 69.256 80.0216 68.666 79.7926 68.0732C79.2697 67.4916 78.7411 66.91 78.2097 66.3312C77.4607 66.0264 76.7088 65.7245 75.9541 65.4253C75.3294 64.6899 74.7019 63.9629 74.0659 63.2359C73.6815 62.8445 73.2971 62.4558 72.9127 62.0671C72.7092 61.4967 72.5085 60.9263 72.305 60.3587C71.7707 60.0819 71.2337 59.8051 70.6966 59.5311C70.38 59.025 70.0635 58.5189 69.7412 58.0156C69.3851 57.7891 69.0233 57.5682 68.6671 57.3445C68.0622 56.9251 67.4573 56.5084 66.8468 56.0974C66.3663 55.541 65.8829 54.9874 65.3967 54.4337C64.5601 53.9752 63.7234 53.5194 62.8839 53.072C62.5645 52.538 62.2451 52.0067 61.9228 51.4754C61.5837 50.9665 61.2416 50.452 60.8996 49.9404C60.2156 49.8257 59.5315 49.7083 58.8418 49.5964C58.3274 48.6038 57.813 47.6168 57.29 46.627C58.0476 47.2002 58.7938 47.779 59.5428 48.3605C60.3541 48.5898 61.1597 48.8191 61.9709 49.054C62.8669 49.6104 63.7601 50.1696 64.6477 50.7373C65.5776 51.4419 66.5019 52.1521 67.4234 52.8707C67.7372 53.2482 68.0481 53.6284 68.359 54.0115C69.1137 54.1094 69.8656 54.2128 70.6175 54.3163C71.2761 54.6826 71.9375 55.0545 72.5905 55.4263C73.1332 56.0974 73.6787 56.7741 74.2157 57.4451C74.6143 58.147 75.01 58.846 75.4029 59.5478C76.087 59.7519 76.7795 59.9589 77.4635 60.1686C77.6416 60.8201 77.814 61.4716 77.9836 62.1259C78.679 62.3803 79.3771 62.6403 80.0696 62.9004C80.5445 63.4149 81.0137 63.9321 81.4801 64.4494C82.1726 64.6787 82.8623 64.908 83.552 65.1401C83.8545 65.7972 84.1513 66.457 84.4452 67.1113C84.7166 67.4273 84.9823 67.7405 85.2508 68.0564C85.5759 68.6073 85.9009 69.1637 86.2203 69.7201C86.6896 69.7816 87.1559 69.8487 87.6223 69.9158C88.394 70.5618 89.16 71.2105 89.926 71.8675C90.2059 72.4379 90.4857 73.0112 90.7627 73.5872C91.2121 74.1576 91.6644 74.728 92.1082 75.304C93.2529 76.0338 94.4005 76.7719 95.5368 77.5185C95.7799 78.2874 96.0202 79.0564 96.2548 79.8253C96.8229 80.2363 97.3854 80.6446 97.9507 81.0556C98.4143 81.6316 98.8779 82.2132 99.3386 82.7948C99.4178 83.0576 99.4884 83.3149 99.5619 83.5805C100.155 84.0502 100.743 84.5284 101.334 85.0037C101.778 85.3868 102.219 85.7755 102.66 86.1613C103.078 86.564 103.488 86.9694 103.898 87.372C104.339 87.7663 104.774 88.1605 105.212 88.5604C105.421 89.1532 105.631 89.7431 105.837 90.3387C106.202 90.7218 106.563 91.1105 106.922 91.4991C107.134 92.1003 107.349 92.7042 107.558 93.3054C108.062 93.7668 108.565 94.2281 109.068 94.6951C109.362 95.3522 109.659 96.0093 109.947 96.6691C110.651 98.1595 111.343 99.6554 112.022 101.157H112.027Z" fill="#0E9CD2"/>
<path d="M58.9916 49.4147C59.6784 49.5293 60.3681 49.644 61.0521 49.7586C61.3942 50.2731 61.7362 50.782 62.0725 51.2965C62.3948 51.8277 62.717 52.359 63.0364 52.8903C63.8731 53.3432 64.7154 53.799 65.5493 54.2604C66.0354 54.8112 66.5188 55.3648 67.0021 55.9185C67.6099 56.3351 68.2148 56.7489 68.8197 57.1683C69.3087 57.5011 69.792 57.8338 70.281 58.1665C70.4704 58.5608 70.6598 58.9578 70.852 59.3549C71.3919 59.6289 71.9261 59.9057 72.4631 60.1798C72.6638 60.7474 72.8673 61.3206 73.068 61.891C73.4525 62.2796 73.8397 62.6711 74.2241 63.0626C74.8573 63.7868 75.4848 64.5193 76.1151 65.2491C76.867 65.5511 77.6217 65.8531 78.3736 66.1579C78.905 66.7367 79.4307 67.3183 79.9536 67.9026C80.1798 68.4954 80.4087 69.0882 80.632 69.6838C81.2256 70.0417 81.8164 70.3996 82.4071 70.7631C82.9414 71.1517 83.4784 71.5376 84.0098 71.9291C84.2812 72.5945 84.5497 73.26 84.8154 73.9283C85.4994 74.2023 86.1863 74.4791 86.8703 74.7559C86.9947 75.3879 87.1163 76.0142 87.235 76.6433C87.9388 76.8922 88.6455 77.1438 89.3465 77.3955C90.0927 78.5027 90.8304 79.6156 91.5625 80.7285C91.8226 81.3632 92.0798 81.9979 92.3285 82.6354C93.0493 83.0464 93.7644 83.4603 94.4796 83.8797C94.9827 84.2264 95.483 84.5759 95.9833 84.9254L96.9839 84.9394C97.3966 85.3448 97.8121 85.7559 98.2248 86.1669C98.4001 86.6087 98.5753 87.0533 98.7506 87.4951C99.2424 87.9005 99.7371 88.3059 100.226 88.7142C100.531 89.2874 100.834 89.8634 101.136 90.4394C101.8 90.5848 102.465 90.733 103.129 90.884C103.465 91.4236 103.799 91.9633 104.13 92.5029C104.474 93.1181 104.822 93.7304 105.164 94.3484C105.789 94.6503 106.413 94.9551 107.038 95.2655C107.516 95.7017 107.991 96.1379 108.463 96.5741C108.791 97.1333 109.119 97.6953 109.446 98.2601C110.311 99.2192 111.173 100.184 112.024 101.157C111.111 100.231 110.193 99.3143 109.268 98.4083C108.943 97.8435 108.615 97.2843 108.285 96.7223C107.813 96.2833 107.338 95.8471 106.863 95.4137C106.238 95.1033 105.611 94.7985 104.986 94.4994C104.644 93.8814 104.302 93.2691 103.954 92.6539C103.621 92.1143 103.287 91.5746 102.951 91.0378C102.287 90.8896 101.625 90.7358 100.961 90.5932C100.661 90.0172 100.359 89.444 100.054 88.8708C99.5618 88.4625 99.0671 88.0543 98.5781 87.6516C98.4057 87.2099 98.2276 86.7681 98.0524 86.3235C97.6369 85.9153 97.227 85.507 96.8115 85.0988C96.4808 85.0932 96.1473 85.0932 95.8137 85.0876C95.3134 84.7353 94.8131 84.3886 94.31 84.0419C93.5977 83.6252 92.8797 83.2086 92.1618 82.8004C91.9074 82.1629 91.653 81.5281 91.3929 80.8934C90.6637 79.7778 89.9259 78.6677 89.1769 77.5632C88.473 77.306 87.7692 77.0543 87.0682 76.8083C86.9467 76.1764 86.828 75.55 86.7036 74.9237C86.0195 74.6441 85.3327 74.3673 84.6486 74.0905C84.3829 73.425 84.1144 72.7595 83.8431 72.094C83.3088 71.7054 82.7774 71.3139 82.2404 70.9308C81.6496 70.5673 81.056 70.2066 80.4653 69.8515C80.242 69.256 80.0187 68.666 79.7897 68.0732C79.2668 67.4916 78.7382 66.91 78.2068 66.3312C77.4578 66.0264 76.7059 65.7245 75.9512 65.4253C75.3265 64.6899 74.699 63.9629 74.063 63.2359C73.6786 62.8445 73.2942 62.4558 72.9097 62.0671C72.7062 61.4967 72.5055 60.9263 72.302 60.3587C71.7678 60.0819 71.2307 59.8051 70.6937 59.5311C70.3771 59.025 70.0605 58.5189 69.7383 58.0156C69.3821 57.7891 69.0203 57.5682 68.6642 57.3445C68.0593 56.9251 67.4544 56.5084 66.8439 56.0974C66.3633 55.541 65.88 54.9874 65.3938 54.4337C64.5571 53.9752 63.7205 53.5194 62.881 53.072C62.5616 52.538 62.2421 52.0067 61.9199 51.4754C61.5807 50.9665 61.2387 50.452 60.8967 49.9404C60.2126 49.8257 59.5286 49.7083 58.8389 49.5964C58.3245 48.6038 57.81 47.6168 57.2871 46.627C57.8609 47.5581 58.4262 48.4892 58.9859 49.4231L58.9916 49.4147Z" fill="white"/>
<path d="M129.108 16.2134C129.204 16.4399 129.297 16.6635 129.39 16.8928C129.591 17.0159 129.792 17.1417 129.992 17.2647C130.218 17.3514 130.447 17.4381 130.673 17.5275C130.956 17.5863 131.236 17.6506 131.516 17.7121C131.697 17.9162 131.88 18.1175 132.061 18.3216C132.251 18.4978 132.443 18.6768 132.629 18.8529C132.776 19.0794 132.921 19.3031 133.065 19.5296C133.308 19.7197 133.548 19.9126 133.788 20.1056C134.012 20.2845 134.232 20.4663 134.453 20.6452C134.71 20.7403 134.967 20.8354 135.221 20.9304C135.4 21.1094 135.575 21.2911 135.753 21.4729C135.959 21.6127 136.166 21.7553 136.372 21.8979C136.541 22.0824 136.708 22.2698 136.875 22.4599C136.886 22.5214 136.895 22.5829 136.903 22.6445C136.878 22.7255 136.85 22.8038 136.821 22.8821C136.858 22.8933 136.895 22.9045 136.929 22.9157C137.163 23.0555 137.395 23.1953 137.63 23.3351C137.83 23.57 138.028 23.8076 138.223 24.0453C138.401 24.3053 138.579 24.5654 138.758 24.8254C139.02 24.9876 139.286 25.1554 139.546 25.3203C139.767 25.4406 139.984 25.558 140.202 25.6782C140.338 25.8796 140.468 26.0809 140.6 26.2822C140.615 26.5786 140.629 26.8778 140.643 27.1742C140.827 27.3252 141.008 27.4761 141.188 27.6299C141.389 27.8285 141.593 28.0298 141.79 28.2311C142.053 28.3597 142.313 28.4911 142.573 28.6254C142.701 28.8574 142.828 29.0867 142.949 29.3188C143.173 29.4446 143.396 29.5704 143.616 29.6963C143.698 29.9228 143.78 30.1492 143.862 30.3785C144.026 30.5323 144.187 30.6861 144.349 30.8399C144.422 31.0664 144.496 31.2929 144.566 31.5193C144.626 31.7458 144.685 31.9723 144.744 32.196C144.914 32.3414 145.083 32.4868 145.25 32.6322C145.465 32.7329 145.677 32.8363 145.892 32.937C145.994 33.2082 146.093 33.4822 146.192 33.7534C146.392 33.952 146.59 34.1533 146.788 34.3546C146.867 34.7489 146.949 35.1403 147.025 35.5318C146.915 35.3053 146.805 35.0816 146.695 34.8579C146.508 34.7517 146.319 34.6426 146.132 34.5364C145.92 34.3015 145.702 34.0694 145.485 33.8401C145.352 33.6668 145.219 33.4962 145.086 33.3284C144.846 33.1858 144.606 33.0432 144.363 32.9034C144.233 32.6741 144.1 32.4449 143.967 32.2156C143.795 32.0254 143.622 31.8353 143.444 31.6452C143.345 31.3739 143.246 31.1027 143.144 30.8315C142.947 30.6749 142.746 30.5155 142.548 30.3589C142.319 30.2331 142.09 30.1101 141.861 29.9843C141.697 29.7885 141.53 29.5928 141.364 29.3943C141.064 29.3468 140.764 29.2992 140.468 29.2545C140.355 29.0028 140.241 28.7484 140.123 28.4967C139.942 28.3234 139.764 28.1528 139.583 27.9822C139.461 27.7921 139.34 27.6048 139.218 27.4174C139.015 27.3028 138.811 27.1909 138.608 27.0791C138.435 26.9421 138.263 26.8079 138.088 26.6737C137.977 26.394 137.864 26.12 137.748 25.8432C137.519 25.695 137.291 25.5496 137.059 25.4042C136.745 25.3539 136.428 25.3064 136.112 25.2588C135.922 25.0407 135.733 24.8282 135.541 24.6129C135.538 24.4396 135.535 24.2662 135.532 24.0928C135.38 23.8692 135.224 23.6455 135.072 23.4246C134.778 23.3435 134.484 23.2624 134.19 23.1841C134.009 22.9548 133.828 22.7255 133.644 22.4963C133.562 22.2166 133.48 21.937 133.395 21.6574C133.192 21.4701 132.986 21.2799 132.779 21.0926C132.502 20.9696 132.225 20.8493 131.945 20.7291C131.781 20.4775 131.62 20.2258 131.456 19.9742C131.129 19.8903 130.798 19.812 130.47 19.7337C130.329 19.5715 130.184 19.4093 130.043 19.2444C129.939 19.0123 129.834 18.7802 129.727 18.5481C129.472 18.495 129.221 18.4419 128.966 18.3915C128.743 18.2685 128.52 18.1483 128.296 18.0281C128.2 17.7596 128.104 17.4884 128.005 17.22C127.799 17.0382 127.592 16.8565 127.386 16.6747C127.25 16.4007 127.112 16.1267 126.973 15.8527C126.665 15.8471 126.36 15.8415 126.052 15.8359C125.956 15.5898 125.86 15.341 125.764 15.0949C125.529 14.902 125.297 14.7119 125.06 14.5217C124.82 14.3595 124.576 14.2002 124.336 14.0408C124.09 13.8842 123.842 13.7276 123.596 13.571C123.514 13.5011 123.432 13.4312 123.353 13.3613C123.581 13.4564 123.81 13.5515 124.039 13.6465C124.331 13.6521 124.622 13.6577 124.913 13.6633C125.105 13.8031 125.294 13.9457 125.487 14.0883C125.721 14.1414 125.959 14.1918 126.193 14.2421C126.425 14.3959 126.66 14.5525 126.889 14.7091C127.044 14.9216 127.194 15.1341 127.347 15.3494C127.573 15.4724 127.796 15.5982 128.019 15.7213C128.384 15.8834 128.743 16.0456 129.105 16.2106L129.108 16.2134Z" fill="#0E9CD2"/>
<path d="M123.646 13.5805C123.897 13.7092 124.146 13.8406 124.395 13.9692C124.638 14.1286 124.881 14.2908 125.121 14.4529C125.356 14.6403 125.593 14.8332 125.825 15.0233C125.91 15.2806 125.995 15.5406 126.079 15.7979C126.388 15.8007 126.696 15.8035 127.004 15.809C127.154 16.0719 127.301 16.3375 127.45 16.6031C127.657 16.7849 127.863 16.9666 128.069 17.1484C128.168 17.4168 128.264 17.6852 128.361 17.9565C128.584 18.0767 128.81 18.1997 129.03 18.32C129.285 18.3703 129.536 18.4234 129.794 18.4737C129.898 18.7058 130.003 18.9379 130.107 19.1728C130.252 19.335 130.393 19.4971 130.534 19.6621C130.865 19.7404 131.193 19.8215 131.521 19.9026C131.685 20.1542 131.849 20.4059 132.012 20.6575C132.292 20.7778 132.569 20.898 132.849 21.021C133.056 21.2084 133.262 21.3957 133.465 21.5858C133.55 21.8654 133.632 22.1451 133.714 22.4247C133.898 22.6539 134.079 22.8832 134.26 23.1125C134.554 23.1936 134.848 23.2719 135.142 23.3558C135.297 23.5767 135.45 23.8004 135.602 24.024C135.605 24.1974 135.608 24.3708 135.611 24.5441C135.803 24.7594 135.992 24.9747 136.182 25.1928C136.495 25.2404 136.812 25.2907 137.129 25.3382C137.358 25.4836 137.589 25.6318 137.818 25.7772C137.931 26.054 138.044 26.3308 138.158 26.6077C138.333 26.7419 138.505 26.8761 138.68 27.0131C138.884 27.1249 139.087 27.2368 139.291 27.3514C139.413 27.5388 139.537 27.7289 139.658 27.919C139.839 28.0896 140.017 28.2602 140.198 28.4335C140.314 28.6852 140.43 28.9396 140.54 29.1913C140.84 29.236 141.14 29.2836 141.436 29.3311C141.603 29.5268 141.77 29.7225 141.934 29.9183C142.163 30.0413 142.392 30.1671 142.621 30.293C142.821 30.4495 143.019 30.6089 143.22 30.7655C143.322 31.0367 143.421 31.3079 143.52 31.5792C143.695 31.7693 143.867 31.9594 144.043 32.1496C144.175 32.3789 144.308 32.6053 144.438 32.8374C144.679 32.9772 144.922 33.1198 145.159 33.2624C145.292 33.433 145.428 33.6036 145.558 33.7769C145.775 34.0062 145.99 34.2383 146.205 34.4732C146.391 34.5794 146.581 34.6885 146.767 34.7975C146.855 35.0436 146.943 35.2868 147.03 35.5357C146.92 35.3092 146.81 35.0855 146.7 34.8618C146.513 34.7556 146.324 34.6465 146.137 34.5403C145.925 34.3054 145.707 34.0733 145.49 33.844C145.357 33.6707 145.224 33.5001 145.091 33.3323C144.851 33.1897 144.611 33.0471 144.368 32.9073C144.238 32.678 144.105 32.4488 143.972 32.2195C143.799 32.0293 143.627 31.8392 143.449 31.6491C143.35 31.3778 143.251 31.1066 143.149 30.8354C142.951 30.6788 142.751 30.5194 142.553 30.3629C142.324 30.237 142.095 30.114 141.866 29.9882C141.702 29.7924 141.535 29.5967 141.369 29.3982C141.069 29.3507 140.769 29.3031 140.473 29.2584C140.359 29.0067 140.246 28.7523 140.128 28.5006C139.947 28.3273 139.769 28.1567 139.588 27.9862C139.466 27.796 139.345 27.6087 139.223 27.4213C139.02 27.3067 138.816 27.1948 138.613 27.083C138.44 26.946 138.268 26.8118 138.093 26.6776C137.982 26.398 137.869 26.1239 137.753 25.8471C137.524 25.6989 137.295 25.5535 137.064 25.4081C136.75 25.3578 136.433 25.3103 136.117 25.2627C135.927 25.0446 135.738 24.8321 135.546 24.6168C135.543 24.4435 135.54 24.2701 135.537 24.0967C135.385 23.8731 135.229 23.6494 135.077 23.4285C134.783 23.3474 134.489 23.2663 134.195 23.188C134.014 22.9587 133.833 22.7294 133.649 22.5002C133.567 22.2205 133.485 21.9409 133.4 21.6613C133.197 21.474 132.99 21.2839 132.784 21.0965C132.507 20.9735 132.23 20.8532 131.95 20.733C131.786 20.4814 131.625 20.2297 131.461 19.9781C131.133 19.8942 130.803 19.8159 130.475 19.7376C130.333 19.5754 130.189 19.4132 130.048 19.2483C129.943 19.0162 129.839 18.7841 129.731 18.552C129.477 18.4989 129.225 18.4458 128.971 18.3955C128.748 18.2724 128.524 18.1522 128.301 18.032C128.205 17.7635 128.109 17.4923 128.01 17.2239C127.804 17.0421 127.597 16.8604 127.391 16.6786C127.255 16.4046 127.117 16.1306 126.978 15.8566C126.67 15.851 126.365 15.8454 126.057 15.8398C125.961 15.5937 125.865 15.3449 125.769 15.0988C125.534 14.9059 125.302 14.7158 125.065 14.5256C124.824 14.3635 124.581 14.2041 124.341 14.0447C124.095 13.8881 123.846 13.7315 123.601 13.5749C123.519 13.505 123.437 13.4351 123.357 13.3652C123.454 13.4379 123.552 13.5078 123.651 13.5805H123.646Z" fill="white"/>
<path d="M62.9476 85.6493C63.0097 85.8394 63.0691 86.0267 63.1285 86.2169C63.2924 86.3064 63.4535 86.3958 63.6146 86.4881C63.804 86.544 63.9906 86.5972 64.18 86.6531C64.4174 86.6782 64.6548 86.7062 64.8923 86.7342C65.0308 86.8963 65.1693 87.0557 65.3049 87.2207C65.4519 87.3577 65.6017 87.4947 65.7459 87.6345C65.8505 87.8191 65.9551 88.0036 66.0568 88.1881C66.249 88.3335 66.4412 88.4789 66.6278 88.6271C66.803 88.7613 66.9783 88.9012 67.1507 89.0382C67.3655 89.0969 67.5775 89.1556 67.7895 89.2171C67.9252 89.3569 68.0609 89.4995 68.1966 89.6421C68.3633 89.7456 68.5273 89.8518 68.694 89.9581C68.8212 90.1063 68.9513 90.2545 69.0756 90.4027C69.0756 90.4558 69.0813 90.5089 69.0841 90.5621C69.053 90.6348 69.0219 90.7075 68.9908 90.7802C69.0219 90.7857 69.0502 90.7941 69.0813 90.7997C69.2707 90.9004 69.4601 91.001 69.6466 91.1017C69.7964 91.289 69.9462 91.4792 70.0932 91.6693C70.2232 91.879 70.3533 92.0915 70.4805 92.304C70.6925 92.4215 70.9073 92.5445 71.1164 92.6647C71.2945 92.7486 71.4726 92.8325 71.6507 92.9164C71.7496 93.0814 71.8429 93.2435 71.939 93.4085C71.922 93.6685 71.9079 93.9286 71.8909 94.1858C72.0351 94.3005 72.1792 94.4179 72.3206 94.5353C72.476 94.6919 72.6315 94.8485 72.7841 95.0051C72.999 95.0946 73.2138 95.184 73.4258 95.2763C73.5134 95.4664 73.601 95.6594 73.6858 95.8495C73.8667 95.939 74.0476 96.0285 74.2285 96.1179C74.2794 96.3109 74.3275 96.501 74.3755 96.6939C74.5027 96.8114 74.6271 96.9316 74.7543 97.0519C74.7967 97.242 74.8363 97.4349 74.8758 97.6279C74.9069 97.8208 74.9352 98.0137 74.9635 98.2066C75.0963 98.3185 75.2292 98.4303 75.3592 98.5422C75.5344 98.6121 75.7097 98.682 75.8849 98.7491C75.9471 98.9784 76.0065 99.2077 76.0658 99.4369C76.2185 99.5935 76.3739 99.7501 76.5237 99.9095C76.5548 100.248 76.5859 100.583 76.617 100.922C76.5435 100.734 76.47 100.547 76.3937 100.36C76.2411 100.284 76.0884 100.206 75.9358 100.13C75.7747 99.9458 75.6079 99.7613 75.4411 99.5795C75.3422 99.4397 75.2433 99.3027 75.1444 99.1657C74.9493 99.0623 74.7571 98.9616 74.5592 98.8609C74.4688 98.6708 74.3755 98.4835 74.2822 98.2961C74.1522 98.1451 74.0194 97.9941 73.8837 97.8432C73.8243 97.6139 73.765 97.3846 73.7028 97.1581C73.5473 97.0379 73.389 96.9176 73.2307 96.7974C73.0442 96.7079 72.8576 96.6212 72.6711 96.5346C72.5467 96.378 72.4223 96.2214 72.2951 96.0648C72.0407 96.0508 71.7863 96.0397 71.532 96.0257C71.4585 95.8132 71.3821 95.6035 71.3058 95.3938C71.1673 95.2595 71.0288 95.1253 70.8875 94.9939C70.7999 94.8401 70.7122 94.6835 70.6246 94.5298C70.4607 94.4487 70.2939 94.3676 70.1271 94.2893C69.9915 94.1858 69.8529 94.0852 69.7144 93.9817C69.6438 93.7468 69.5731 93.5148 69.4996 93.2827C69.3159 93.1736 69.1322 93.0674 68.9456 92.9611C68.6771 92.9471 68.4086 92.9332 68.14 92.922C67.9959 92.7486 67.8545 92.5781 67.7076 92.4075C67.7217 92.2565 67.7358 92.1027 67.75 91.9517C67.6397 91.77 67.5267 91.5882 67.4136 91.4093C67.1677 91.3645 66.9218 91.3226 66.673 91.2807C66.5373 91.0961 66.4017 90.9116 66.266 90.7298C66.2236 90.4922 66.1755 90.2545 66.1303 90.0168C65.972 89.8714 65.8109 89.7232 65.6498 89.5778C65.4208 89.4967 65.1919 89.4156 64.9601 89.3374C64.8442 89.1304 64.7255 88.9263 64.6068 88.7194C64.3298 88.6775 64.0528 88.6383 63.7729 88.602C63.6655 88.4706 63.5581 88.3419 63.4507 88.2133C63.3829 88.0176 63.3122 87.8246 63.2443 87.6317C63.0295 87.6093 62.8147 87.587 62.5999 87.5674C62.419 87.4807 62.2353 87.3968 62.0543 87.313C61.9978 87.0865 61.9385 86.8572 61.8791 86.6307C61.718 86.4909 61.5569 86.3511 61.3958 86.2113C61.3053 85.982 61.2092 85.7555 61.1159 85.529C60.8502 85.5514 60.5845 85.5766 60.3188 85.6017C60.2595 85.3948 60.2001 85.1851 60.1407 84.9782C59.957 84.8328 59.7733 84.6874 59.5867 84.542C59.3917 84.4246 59.1995 84.3043 59.0044 84.1869C58.8066 84.0723 58.6059 83.9576 58.408 83.8458C58.343 83.7926 58.2808 83.7395 58.2158 83.6836C58.4052 83.7451 58.5946 83.8066 58.784 83.8709C59.0355 83.8486 59.2871 83.8262 59.5387 83.8038C59.6913 83.9073 59.8439 84.0163 59.9938 84.1226C60.1916 84.145 60.3923 84.1673 60.593 84.1925C60.7795 84.3071 60.9661 84.4218 61.1527 84.5364C61.2657 84.7098 61.376 84.8831 61.489 85.0565C61.6728 85.1432 61.8565 85.2326 62.0374 85.3193C62.337 85.4256 62.6338 85.5374 62.9306 85.6465L62.9476 85.6493Z" fill="#0E9CD2"/>
<path d="M58.4666 83.8471C58.6701 83.9366 58.8736 84.0261 59.0772 84.1184C59.2722 84.2358 59.4672 84.3532 59.6594 84.4735C59.846 84.6161 60.0297 84.7643 60.2135 84.9097C60.2615 85.1278 60.3124 85.3459 60.3604 85.5668C60.6261 85.5416 60.8947 85.5136 61.1604 85.4885C61.265 85.7066 61.3667 85.9247 61.4713 86.1456C61.6324 86.2854 61.7935 86.4252 61.9546 86.565C62.014 86.7915 62.0734 87.0179 62.1299 87.2472C62.3136 87.3311 62.4945 87.4178 62.6754 87.5045C62.8903 87.524 63.1051 87.5464 63.3199 87.5688C63.3906 87.7645 63.4584 87.9574 63.5262 88.1532C63.6337 88.2818 63.7411 88.4104 63.8485 88.5418C64.1255 88.581 64.4053 88.6201 64.6823 88.6593C64.801 88.8634 64.9198 89.0703 65.0356 89.2772C65.2674 89.3555 65.4964 89.4366 65.7253 89.5177C65.8865 89.6631 66.0447 89.8085 66.2059 89.9567C66.2511 90.1943 66.2963 90.432 66.3415 90.6697C66.48 90.8542 66.6129 91.0388 66.7486 91.2205C66.9973 91.2625 67.2432 91.3072 67.4891 91.3491C67.6022 91.5281 67.7153 91.7098 67.8255 91.8916C67.8114 92.0426 67.7972 92.1964 67.7831 92.3474C67.9273 92.5179 68.0742 92.6885 68.2156 92.8618C68.4841 92.873 68.7526 92.887 69.0212 92.901C69.2049 93.0072 69.3914 93.1135 69.5752 93.2225C69.6487 93.4546 69.7193 93.6867 69.79 93.9216C69.9285 94.0222 70.067 94.1257 70.2027 94.2291C70.3694 94.3074 70.5334 94.3885 70.7002 94.4668C70.7878 94.6206 70.8754 94.7744 70.963 94.931C71.1044 95.0624 71.2429 95.1966 71.3814 95.3308C71.4577 95.5405 71.5312 95.753 71.6047 95.9655C71.8591 95.9767 72.1135 95.9907 72.3679 96.0047C72.4951 96.1613 72.6194 96.315 72.7438 96.4744C72.9304 96.5611 73.1169 96.6506 73.3035 96.7401C73.4618 96.8603 73.62 96.9805 73.7755 97.1008C73.8377 97.3272 73.8971 97.5565 73.9564 97.7858C74.0893 97.9368 74.2221 98.085 74.355 98.2388C74.4482 98.4261 74.5415 98.6163 74.632 98.8036C74.827 98.9043 75.022 99.0077 75.2171 99.1112C75.316 99.2482 75.4149 99.3852 75.5139 99.525C75.6806 99.7067 75.8446 99.8913 76.0085 100.076C76.1612 100.151 76.3138 100.23 76.4664 100.308C76.5201 100.515 76.571 100.722 76.6219 100.931C76.5484 100.744 76.4749 100.557 76.3986 100.369C76.246 100.294 76.0933 100.216 75.9407 100.14C75.7796 99.9556 75.6128 99.7711 75.446 99.5893C75.3471 99.4495 75.2482 99.3125 75.1492 99.1755C74.9542 99.072 74.762 98.9714 74.5641 98.8707C74.4737 98.6806 74.3804 98.4932 74.2871 98.3059C74.1571 98.1549 74.0243 98.0039 73.8886 97.8529C73.8292 97.6236 73.7699 97.3944 73.7077 97.1679C73.5522 97.0476 73.3939 96.9274 73.2356 96.8072C73.0491 96.7177 72.8625 96.631 72.676 96.5443C72.5516 96.3877 72.4272 96.2312 72.3 96.0746C72.0456 96.0606 71.7912 96.0494 71.5368 96.0354C71.4633 95.8229 71.387 95.6132 71.3107 95.4035C71.1722 95.2693 71.0337 95.1351 70.8924 95.0037C70.8047 94.8499 70.7171 94.6933 70.6295 94.5395C70.4656 94.4584 70.2988 94.3773 70.132 94.299C69.9963 94.1956 69.8578 94.0949 69.7193 93.9915C69.6487 93.7566 69.578 93.5245 69.5045 93.2924C69.3208 93.1834 69.1371 93.0771 68.9505 92.9709C68.682 92.9569 68.4134 92.9429 68.1449 92.9317C68.0008 92.7584 67.8594 92.5878 67.7124 92.4173C67.7266 92.2663 67.7407 92.1125 67.7548 91.9615C67.6446 91.7797 67.5315 91.598 67.4185 91.419C67.1726 91.3743 66.9266 91.3324 66.6779 91.2904C66.5422 91.1059 66.4066 90.9213 66.2709 90.7396C66.2285 90.5019 66.1804 90.2642 66.1352 90.0266C65.9769 89.8812 65.8158 89.733 65.6547 89.5876C65.4257 89.5065 65.1968 89.4254 64.965 89.3471C64.8491 89.1402 64.7304 88.9361 64.6117 88.7292C64.3346 88.6872 64.0576 88.6481 63.7778 88.6117C63.6704 88.4803 63.563 88.3517 63.4556 88.2231C63.3877 88.0273 63.3171 87.8344 63.2492 87.6415C63.0344 87.6191 62.8196 87.5967 62.6048 87.5772C62.4239 87.4905 62.2401 87.4066 62.0592 87.3227C62.0027 87.0962 61.9433 86.867 61.884 86.6405C61.7229 86.5007 61.5617 86.3609 61.4006 86.2211C61.3102 85.9918 61.2141 85.7653 61.1208 85.5388C60.8551 85.5612 60.5894 85.5863 60.3237 85.6115C60.2643 85.4046 60.205 85.1949 60.1456 84.988C59.9619 84.8426 59.7782 84.6972 59.5916 84.5518C59.3966 84.4343 59.2044 84.3141 59.0093 84.1967C58.8115 84.082 58.6108 83.9674 58.4129 83.8555C58.3479 83.8024 58.2857 83.7493 58.2207 83.6934C58.297 83.7465 58.3762 83.8024 58.4525 83.8555L58.4666 83.8471Z" fill="white"/>
<path d="M92.4364 101.153C91.871 100.529 91.3001 99.9084 90.7234 99.2932C90.5227 98.9185 90.3221 98.5439 90.1185 98.1692C89.8217 97.8728 89.5249 97.5792 89.2253 97.2856C88.8296 97.0759 88.4311 96.8662 88.0353 96.6593C87.8262 96.251 87.6113 95.8428 87.3937 95.4374C87.1873 95.0767 86.9782 94.7216 86.769 94.3637C86.345 94.2574 85.921 94.154 85.4942 94.0505C85.3077 93.6702 85.1154 93.2928 84.9261 92.9125C84.6123 92.6413 84.2986 92.37 83.9848 92.1016C83.9141 91.6319 83.8406 91.1621 83.7643 90.6924C83.394 90.5162 83.0238 90.3428 82.6506 90.1695C82.2917 89.9989 81.9355 89.8312 81.5765 89.6634C81.2543 89.4313 80.9292 89.2048 80.607 88.9783C80.1463 88.7043 79.6827 88.4331 79.2191 88.1647C79.0552 87.7508 78.8856 87.337 78.7217 86.9232C78.6482 86.4199 78.5719 85.9138 78.4955 85.4105C77.9641 85.1616 77.4327 84.9184 76.8985 84.6779C76.8194 84.2669 76.7402 83.8614 76.6582 83.4532C76.2116 83.2714 75.765 83.0925 75.3213 82.9135C74.8407 82.7821 74.3602 82.6535 73.8769 82.5249C73.5292 82.2732 73.1815 82.0244 72.8338 81.7755C72.4494 81.5434 72.0622 81.3142 71.6749 81.0849C71.7286 80.5005 71.7795 79.9161 71.8276 79.3289C71.4827 78.9542 71.1322 78.5824 70.7846 78.2105C70.2899 78.0175 69.7981 77.8274 69.3034 77.6373C68.8738 77.3437 68.4385 77.0557 68.0032 76.7677C67.6499 76.6251 67.2994 76.4797 66.946 76.3371C66.9093 75.8673 66.8697 75.4004 66.8273 74.9306C66.669 74.5476 66.5079 74.1673 66.344 73.7842C66.1291 73.4627 65.9143 73.1411 65.6995 72.8195C65.2783 72.7133 64.86 72.6126 64.4388 72.512C64.0346 72.2519 63.6304 71.9919 63.2262 71.7347C62.9012 71.3851 62.5733 71.0384 62.2454 70.6917C61.8638 70.5435 61.4822 70.3953 61.0978 70.2499C60.8801 69.9144 60.6597 69.5788 60.4392 69.2433C60.2074 68.919 59.9756 68.5974 59.741 68.2759C59.2859 68.2115 58.8308 68.1472 58.3758 68.0885C58.0224 67.4622 57.6635 66.8414 57.2988 66.2207C57.8076 66.573 58.3136 66.9309 58.8195 67.2888C59.3566 67.4202 59.8937 67.5572 60.4335 67.6971C60.9395 68.1472 61.4426 68.5974 61.9429 69.056C62.48 69.2545 63.0199 69.4558 63.5541 69.6627C63.6728 70.0067 63.7887 70.3534 63.9046 70.7001C64.4021 70.7532 64.8967 70.8091 65.3942 70.8679C65.9285 70.9881 66.4599 71.1139 66.9913 71.2397C67.3587 71.6648 67.7205 72.0926 68.0852 72.5204C68.3537 72.9677 68.6222 73.4151 68.8879 73.8625C69.3402 73.9883 69.7924 74.1169 70.2418 74.2456C70.3634 74.665 70.4849 75.0844 70.6037 75.5038C71.0616 75.6632 71.5167 75.8282 71.9717 75.9931C72.2855 76.3231 72.5964 76.6558 72.9073 76.9886C73.3568 77.1312 73.8119 77.2794 74.2613 77.4248C74.363 77.9504 74.4591 78.4761 74.5524 79.0046C74.7305 79.2059 74.9058 79.4072 75.081 79.6113C75.2958 79.9692 75.505 80.3271 75.7198 80.6878C76.124 80.6263 76.531 80.5676 76.9353 80.5117C77.5401 80.8304 78.1422 81.152 78.7443 81.4791C79.1089 81.8286 79.4707 82.1838 79.8325 82.5361C80.1237 82.9107 80.4176 83.2854 80.7059 83.6601C81.0423 83.9202 81.3758 84.183 81.7094 84.443C81.8705 84.9463 82.0288 85.4468 82.1814 85.9501C82.5489 86.2186 82.9135 86.4842 83.2782 86.7554C83.7898 86.94 84.3014 87.1273 84.8102 87.3202C85.0759 87.7425 85.3444 88.1647 85.6073 88.5897C85.7769 89.0958 85.9408 89.6047 86.1048 90.1108C86.3874 90.368 86.6701 90.6253 86.9527 90.8853C87.2156 91.1537 87.4785 91.4221 87.7414 91.6906C87.911 92.0485 88.0834 92.4064 88.2502 92.7643C88.4876 93.0635 88.725 93.3627 88.9596 93.6618C89.0812 94.0141 89.1999 94.3637 89.3158 94.7188C89.4458 95.1158 89.5758 95.5157 89.703 95.9155C90.1298 96.1336 90.5567 96.3517 90.9806 96.5782C91.0513 97.1067 91.122 97.6379 91.187 98.1664C91.6166 99.1618 92.0322 100.157 92.442 101.158L92.4364 101.153Z" fill="#0E9CD2"/>
<path d="M58.4662 67.9711C58.9213 68.0326 59.3764 68.0969 59.8315 68.1612C60.0661 68.4828 60.3007 68.8043 60.5296 69.1259C60.7501 69.4614 60.9678 69.7969 61.1854 70.1325C61.567 70.2779 61.9514 70.4261 62.333 70.5743C62.6637 70.9182 62.9916 71.2677 63.3138 71.6172C63.7209 71.8745 64.1251 72.1345 64.5293 72.3945C64.9476 72.4952 65.3688 72.5987 65.7871 72.7021C66.0048 73.0237 66.2196 73.3452 66.4344 73.6696C66.5955 74.0498 66.7566 74.4329 66.9178 74.816C66.9602 75.2857 67.0026 75.7527 67.0393 76.2224C67.3926 76.365 67.746 76.5076 68.0965 76.653C68.5318 76.941 68.9671 77.2318 69.3995 77.5254C69.8942 77.7156 70.3888 77.9057 70.8807 78.0986C71.2312 78.4705 71.5788 78.8424 71.9237 79.2171C71.8756 79.8015 71.8248 80.3886 71.7739 80.973C72.1611 81.1995 72.5484 81.4316 72.9328 81.6609C73.2833 81.9097 73.6309 82.1586 73.9786 82.4102C74.4591 82.5389 74.9425 82.6675 75.423 82.8017C75.8696 82.9807 76.3134 83.1596 76.76 83.3414C76.842 83.7496 76.9211 84.1578 77.0003 84.5689C77.5317 84.8093 78.0659 85.0526 78.5973 85.2986C78.6736 85.8047 78.7499 86.308 78.8234 86.8141C78.9902 87.2252 79.157 87.639 79.3209 88.0556C79.7845 88.324 80.2509 88.5953 80.7116 88.8693C81.0338 89.0986 81.3589 89.3251 81.6811 89.5571C82.0401 89.7249 82.4019 89.8927 82.7581 90.0632C83.1312 90.2366 83.5015 90.4127 83.8689 90.5889C83.9481 91.0559 84.0187 91.5256 84.0922 91.9981C84.406 92.2666 84.7197 92.5378 85.0363 92.809C85.2285 93.1893 85.4179 93.5696 85.6044 93.9498C86.0313 94.0533 86.4553 94.1567 86.8792 94.263C87.0884 94.6181 87.2976 94.9788 87.5039 95.3367C87.7188 95.7449 87.9336 96.1504 88.1456 96.5614C88.5441 96.7683 88.9398 96.978 89.3384 97.1905C89.638 97.4841 89.9348 97.7777 90.2316 98.0741C90.4351 98.4488 90.6358 98.8235 90.8365 99.201C91.3736 99.8469 91.9078 100.498 92.4364 101.153C91.871 100.529 91.3001 99.9084 90.7234 99.2932C90.5227 98.9185 90.3221 98.5439 90.1185 98.1692C89.8217 97.8728 89.5249 97.5792 89.2253 97.2856C88.8296 97.0759 88.4311 96.8662 88.0353 96.6593C87.8262 96.251 87.6113 95.8428 87.3937 95.4374C87.1873 95.0767 86.9782 94.7216 86.769 94.3637C86.345 94.2574 85.921 94.154 85.4942 94.0505C85.3077 93.6702 85.1154 93.2928 84.9261 92.9125C84.6123 92.6413 84.2986 92.37 83.9848 92.1016C83.9141 91.6319 83.8406 91.1621 83.7643 90.6924C83.394 90.5162 83.0238 90.3428 82.6506 90.1695C82.2917 89.9989 81.9355 89.8312 81.5765 89.6634C81.2543 89.4313 80.9292 89.2048 80.607 88.9783C80.1463 88.7043 79.6827 88.4331 79.2191 88.1647C79.0552 87.7508 78.8856 87.337 78.7217 86.9232C78.6482 86.4199 78.5719 85.9138 78.4955 85.4105C77.9641 85.1616 77.4327 84.9184 76.8985 84.6779C76.8194 84.2669 76.7402 83.8614 76.6582 83.4532C76.2116 83.2714 75.765 83.0925 75.3213 82.9135C74.8407 82.7821 74.3602 82.6535 73.8769 82.5249C73.5292 82.2732 73.1815 82.0244 72.8338 81.7755C72.4494 81.5434 72.0622 81.3142 71.6749 81.0849C71.7286 80.5005 71.7795 79.9161 71.8276 79.3289C71.4827 78.9542 71.1322 78.5824 70.7846 78.2105C70.2899 78.0175 69.7981 77.8274 69.3034 77.6373C68.8738 77.3437 68.4385 77.0557 68.0032 76.7677C67.6499 76.6251 67.2994 76.4797 66.946 76.3371C66.9093 75.8673 66.8697 75.4004 66.8273 74.9306C66.669 74.5476 66.5079 74.1673 66.344 73.7842C66.1291 73.4627 65.9143 73.1411 65.6995 72.8195C65.2783 72.7133 64.86 72.6126 64.4388 72.512C64.0346 72.2519 63.6304 71.9919 63.2262 71.7347C62.9012 71.3851 62.5733 71.0384 62.2454 70.6917C61.8638 70.5435 61.4822 70.3953 61.0978 70.2499C60.8801 69.9144 60.6597 69.5788 60.4392 69.2433C60.2074 68.919 59.9756 68.5974 59.741 68.2759C59.2859 68.2115 58.8308 68.1472 58.3758 68.0885C58.0224 67.4622 57.6635 66.8414 57.2988 66.2207C57.6946 66.8023 58.0874 67.3895 58.4719 67.9739L58.4662 67.9711Z" fill="white"/>
<path d="M145.456 50.9924C144.825 50.3829 144.192 49.7761 143.55 49.1805C143.33 48.7947 143.109 48.4144 142.886 48.0313C142.558 47.7433 142.23 47.4581 141.902 47.1729C141.464 46.9856 141.023 46.801 140.585 46.6193C140.356 46.1971 140.125 45.7777 139.89 45.3582C139.664 44.992 139.438 44.6257 139.212 44.2594C138.742 44.1895 138.273 44.1168 137.804 44.0469C137.603 43.6526 137.4 43.2584 137.193 42.8669C136.851 42.6013 136.509 42.3384 136.167 42.0784C136.054 41.7708 135.938 41.466 135.822 41.1585C135.537 40.89 135.251 40.6188 134.963 40.3532C134.729 40.3672 134.488 40.3839 134.254 40.3979C133.903 40.1742 133.555 39.9533 133.205 39.7325C132.708 39.4724 132.202 39.2152 131.701 38.9607C131.534 38.5189 131.365 38.0799 131.195 37.6437C130.698 36.8888 130.197 36.1338 129.689 35.3873C129.191 35.2419 128.697 35.1021 128.202 34.9623C128.128 34.5177 128.058 34.0787 127.981 33.6369C127.501 33.4719 127.018 33.3126 126.534 33.1532C126.359 32.6946 126.181 32.2333 126.003 31.7719C125.633 31.523 125.259 31.2742 124.886 31.0281C124.474 30.8016 124.058 30.5752 123.643 30.3515C123.496 29.9404 123.349 29.5294 123.199 29.1184C122.84 28.7297 122.475 28.3438 122.108 27.9608C121.582 27.7818 121.051 27.6085 120.519 27.4351C120.09 26.943 119.657 26.4593 119.222 25.9755C118.956 25.7155 118.69 25.4611 118.425 25.2038C118.292 24.8068 118.162 24.4125 118.029 24.0183C117.656 23.8477 117.277 23.6799 116.901 23.5149C116.686 23.171 116.471 22.8271 116.254 22.486C116.005 22.3434 115.754 22.2036 115.505 22.0666C115.084 21.8009 114.662 21.5353 114.236 21.2753C113.905 20.9034 113.571 20.5371 113.238 20.168C112.653 19.8856 112.065 19.606 111.477 19.332C111.259 18.9685 111.044 18.6078 110.827 18.2443C110.598 17.8975 110.363 17.5508 110.131 17.2041C109.645 17.1594 109.162 17.1118 108.673 17.0699C108.328 16.3876 107.983 15.7138 107.63 15.0371C108.156 15.4062 108.676 15.7781 109.199 16.1528C109.772 16.273 110.341 16.3932 110.914 16.5163C111.539 16.8658 112.164 17.2153 112.786 17.5732C113.433 18.0262 114.077 18.4819 114.719 18.9461C114.934 19.1977 115.149 19.4522 115.361 19.7094C115.895 19.7402 116.429 19.7709 116.963 19.8045C117.427 20.031 117.888 20.2603 118.346 20.4923C118.719 20.9425 119.092 21.3955 119.459 21.8457C119.728 22.3238 119.996 22.8019 120.259 23.2829C120.743 23.3919 121.232 23.501 121.715 23.6156C121.828 24.0714 121.938 24.5271 122.043 24.9829C122.535 25.1283 123.024 25.2765 123.513 25.4247C123.84 25.7658 124.163 26.1097 124.485 26.4537C124.974 26.5795 125.46 26.7053 125.946 26.8339C126.147 27.2869 126.345 27.7399 126.54 28.1929C126.726 28.4026 126.91 28.6123 127.094 28.8248C127.314 29.2023 127.532 29.5797 127.75 29.96C128.083 29.9796 128.414 30.002 128.745 30.0243C129.282 30.4437 129.813 30.866 130.344 31.291C130.531 31.6824 130.718 32.0767 130.904 32.4709C131.212 32.854 131.52 33.2371 131.826 33.6229C132.626 34.0815 133.428 34.5484 134.223 35.0182C134.378 35.5523 134.534 36.0891 134.686 36.626C135.082 36.8888 135.475 37.1488 135.868 37.4117C136.184 37.7975 136.504 38.189 136.82 38.5777C136.871 38.7594 136.916 38.9411 136.962 39.1257C137.374 39.4305 137.784 39.738 138.194 40.0456C138.502 40.2945 138.807 40.5489 139.115 40.8006C139.404 41.0662 139.689 41.3318 139.972 41.5975C140.277 41.8547 140.58 42.112 140.882 42.3748C141.018 42.7858 141.156 43.1968 141.289 43.6107C141.541 43.8651 141.789 44.1224 142.038 44.3796C142.177 44.7962 142.315 45.2156 142.454 45.6323C142.804 45.9342 143.152 46.2362 143.499 46.541C143.695 46.994 143.892 47.4469 144.085 47.9027C144.554 48.9289 145.015 49.9579 145.467 50.9896L145.456 50.9924Z" fill="#0E9CD2"/>
<path d="M108.772 16.934C109.258 16.9787 109.747 17.0235 110.233 17.0682C110.465 17.4177 110.7 17.7616 110.926 18.1084C111.143 18.4691 111.361 18.8326 111.579 19.1933C112.167 19.4729 112.755 19.7525 113.34 20.0349C113.673 20.4012 114.007 20.7703 114.34 21.1394C114.764 21.405 115.188 21.6678 115.609 21.9335C115.952 22.1432 116.288 22.3557 116.627 22.5682C116.754 22.8394 116.881 23.1134 117.009 23.3846C117.387 23.5496 117.763 23.7202 118.139 23.8879C118.269 24.2822 118.402 24.6792 118.535 25.0735C118.801 25.3307 119.069 25.588 119.335 25.848C119.77 26.329 120.203 26.8183 120.635 27.3076C121.167 27.4838 121.695 27.6571 122.224 27.8361C122.591 28.2219 122.953 28.6078 123.312 28.9965C123.459 29.4075 123.612 29.8185 123.759 30.2295C124.174 30.4532 124.587 30.6769 124.999 30.9034C125.373 31.1523 125.746 31.3983 126.116 31.6472C126.294 32.1057 126.472 32.5671 126.647 33.0313C127.131 33.1906 127.611 33.3528 128.095 33.5122C128.171 33.9568 128.242 34.3958 128.315 34.8403C128.813 34.9802 129.31 35.12 129.805 35.2654C130.313 36.0147 130.814 36.7697 131.314 37.5218C131.487 37.9608 131.653 38.3998 131.82 38.8416C132.326 39.096 132.826 39.3533 133.327 39.6133C133.677 39.8342 134.028 40.0551 134.375 40.2788L135.088 40.2341C135.373 40.5025 135.661 40.7737 135.944 41.0421C136.06 41.3469 136.176 41.6545 136.289 41.9621C136.631 42.2249 136.973 42.4877 137.315 42.7534C137.521 43.1448 137.725 43.5391 137.926 43.9361C138.395 44.0032 138.867 44.0759 139.336 44.1458C139.565 44.5121 139.791 44.8784 140.014 45.2475C140.249 45.6669 140.481 46.0864 140.713 46.5086C141.151 46.6903 141.592 46.8749 142.03 47.0622C142.36 47.3474 142.688 47.6326 143.019 47.9206C143.242 48.3037 143.463 48.6867 143.683 49.0698C144.28 49.7073 144.873 50.3504 145.458 50.9963C144.828 50.3868 144.195 49.78 143.553 49.1845C143.333 48.7986 143.112 48.4183 142.889 48.0352C142.561 47.7472 142.233 47.462 141.905 47.1768C141.467 46.9895 141.026 46.805 140.588 46.6232C140.359 46.201 140.127 45.7816 139.893 45.3622C139.667 44.9959 139.441 44.6296 139.214 44.2633C138.745 44.1934 138.276 44.1207 137.807 44.0508C137.606 43.6565 137.403 43.2623 137.196 42.8708C136.854 42.6052 136.512 42.3423 136.17 42.0823C136.057 41.7747 135.941 41.47 135.825 41.1624C135.54 40.894 135.254 40.6227 134.966 40.3571C134.731 40.3711 134.491 40.3879 134.257 40.4018C133.906 40.1781 133.558 39.9573 133.208 39.7364C132.71 39.4763 132.204 39.2191 131.704 38.9646C131.537 38.5228 131.368 38.0839 131.198 37.6477C130.701 36.8927 130.2 36.1378 129.692 35.3912C129.194 35.2458 128.699 35.106 128.205 34.9662C128.131 34.5216 128.061 34.0826 127.984 33.6408C127.504 33.4758 127.02 33.3165 126.537 33.1571C126.362 32.6985 126.184 32.2372 126.006 31.7758C125.635 31.5269 125.262 31.2781 124.889 31.032C124.477 30.8055 124.061 30.5791 123.646 30.3554C123.499 29.9443 123.352 29.5333 123.202 29.1223C122.843 28.7336 122.478 28.3478 122.111 27.9647C121.585 27.7857 121.054 27.6124 120.522 27.439C120.092 26.9469 119.66 26.4632 119.225 25.9794C118.959 25.7194 118.693 25.465 118.428 25.2077C118.295 24.8107 118.165 24.4164 118.032 24.0222C117.659 23.8516 117.28 23.6838 116.904 23.5189C116.689 23.1749 116.474 22.831 116.257 22.4899C116.008 22.3473 115.756 22.2075 115.508 22.0705C115.087 21.8048 114.665 21.5392 114.239 21.2792C113.908 20.9073 113.574 20.541 113.241 20.1719C112.656 19.8895 112.068 19.6099 111.48 19.3359C111.262 18.9724 111.047 18.6117 110.83 18.2482C110.601 17.9014 110.366 17.5547 110.134 17.208C109.648 17.1633 109.165 17.1157 108.676 17.0738C108.331 16.3915 107.986 15.7177 107.633 15.041C108.02 15.6729 108.404 16.3077 108.783 16.9424L108.772 16.934Z" fill="white"/>
<path d="M29.4459 123.248L20.7395 121L14.7487 142.891L8.70982 121.499L0 123.849L10.0178 159.383H19.7816L27.3757 130.995V155.949H35.3028V126.936H28.4606L29.4459 123.248Z" fill="white"/>
<path d="M48.7288 142.421L43.4418 124.735L35.8203 126.677L44.5885 156.06H53.137L61.5927 126.181L53.9712 124.32L48.7288 142.421Z" fill="white"/>
<path d="M69.6092 126.869H61.6787V155.879H69.6092V126.869Z" fill="white"/>
<path d="M92.8858 134.384C92.0344 132.843 90.9633 131.549 89.669 130.499C88.3781 129.453 87.0632 128.604 85.7243 127.959C84.3888 127.31 83.1117 126.835 81.893 126.533C80.6742 126.23 79.7129 126.05 79.0057 125.996H71.0752V155.875H79.0057C79.2701 155.902 79.8434 155.8 80.7257 155.566C81.608 155.332 82.6208 154.968 83.764 154.469C84.9072 153.97 86.1123 153.324 87.3756 152.526C88.639 151.728 89.8063 150.764 90.8774 149.633C91.9486 148.502 92.8309 147.195 93.5209 145.707C94.211 144.22 94.5577 142.538 94.5577 140.664C94.5577 139.591 94.417 138.514 94.1389 137.441C93.8608 136.368 93.442 135.349 92.8824 134.381L92.8858 134.384ZM85.4394 143.87C84.8523 144.821 84.0146 145.646 82.9298 146.349C81.8415 147.052 80.5369 147.487 79.0091 147.65V134.425C80.7703 134.507 82.2088 134.867 83.328 135.502C84.4438 136.137 85.2574 136.915 85.7724 137.835C86.2873 138.759 86.5071 139.757 86.435 140.83C86.3594 141.903 86.0299 142.915 85.4428 143.866L85.4394 143.87Z" fill="white"/>
<path d="M122.947 143.507C123.593 141.866 123.922 140.196 123.939 138.487C123.953 136.779 123.644 135.118 123.016 133.509C122.384 131.896 121.437 130.479 120.173 129.253C118.91 128.027 117.324 127.083 115.415 126.421C113.506 125.759 111.275 125.524 108.717 125.718H100.831V156.218H108.717V152.004C111.244 152.058 113.455 151.708 115.346 150.951C117.241 150.194 118.821 149.175 120.084 147.891C121.347 146.611 122.302 145.15 122.947 143.51V143.507ZM115.964 138.63C115.892 139.662 115.552 140.634 114.951 141.544C114.351 142.454 113.52 143.238 112.462 143.901C111.405 144.563 110.142 144.947 108.672 145.059L108.628 132.826C110.42 132.799 111.865 133.067 112.967 133.631C114.069 134.195 114.862 134.911 115.346 135.781C115.83 136.647 116.036 137.598 115.964 138.633V138.63Z" fill="white"/>
<path d="M128.766 125.336L119.998 155.463L127.62 157.405L129.34 151.537H137.445L138.547 156.166L146.213 154.678L139.605 125.336H128.766ZM131.454 144.099L133.878 135.711L135.773 144.099H131.454Z" fill="white"/>
<path d="M163.746 143.548L154.14 128.999H146.21V154.677V155.695H154.14V143.918L163.746 156.731H171.673V128.34H163.746V143.548Z" fill="white"/>
<path d="M173.076 156.224H191.182V148.787H181.007V146.016H187.44V138.578H181.007V133.246L191.447 133.331V125.975L173.076 125.85V156.224Z" fill="white"/>
<path d="M201.823 150.089V122.285H192.443V158.885H210.886V150.089H201.823Z" fill="white"/>
</svg>
